{
.formatVersion = 3;
axes = (
{
name = Weight;
tag = wght;
}
);
classes = (
{
code = "A Aacute Abreve Acircumflex Adieresis Agrave Amacron Aogonek Aring Atilde AE B C Cacute Ccaron Ccedilla Cdotaccent D Eth Dcaron Dcroat E Eacute Ecaron Ecircumflex Edieresis Edotaccent Egrave Emacron Eogonek F G Gbreve Gcommaaccent Gdotaccent H Hbar I Iacute Icircumflex Idieresis Idotaccent Igrave Imacron Iogonek J K Kcommaaccent L Lacute Lcaron Lcommaaccent Lslash M N Nacute Ncaron Ncommaaccent Eng Ntilde O Oacute Ocircumflex Odieresis Ograve Ohungarumlaut Omacron Oslash Otilde OE P Thorn Q R Racute Rcaron Rcommaaccent S Sacute Scaron Scedilla Scommaaccent Germandbls T Tbar Tcaron Tcedilla U Uacute Ucircumflex Udieresis Ugrave Uhungarumlaut Umacron Uogonek Uring V W Wacute Wcircumflex Wdieresis Wgrave X Y Yacute Ycircumflex Ydieresis Ygrave Z Zacute Zcaron Zdotaccent Q.ss01";
name = Uppercase;
}
);
familyName = "League Spartan";
customParameters = (
{
name = glyphOrder;
value = (
A,
Aacute,
Abreve,
Acircumflex,
Adieresis,
Agrave,
Amacron,
Aogonek,
Aring,
Atilde,
AE,
B,
C,
Cacute,
Ccaron,
Ccedilla,
Cdotaccent,
D,
Eth,
Dcaron,
Dcroat,
E,
Eacute,
Ecaron,
Ecircumflex,
Edieresis,
Edotaccent,
Egrave,
Emacron,
Eogonek,
F,
G,
Gbreve,
Gcommaaccent,
Gdotaccent,
H,
Hbar,
I,
Iacute,
Icircumflex,
Idieresis,
Idotaccent,
Igrave,
Imacron,
Iogonek,
J,
K,
Kcommaaccent,
L,
Lacute,
Lcaron,
Lcommaaccent,
Lslash,
M,
N,
Nacute,
Ncaron,
Ncommaaccent,
Eng,
Ntilde,
O,
Oacute,
Ocircumflex,
Odieresis,
Ograve,
Ohungarumlaut,
Omacron,
Oslash,
Otilde,
OE,
P,
Thorn,
Q,
R,
Racute,
Rcaron,
Rcommaaccent,
S,
Sacute,
Scaron,
Scedilla,
Scommaaccent,
Germandbls,
T,
Tbar,
Tcaron,
Tcedilla,
U,
Uacute,
Ucircumflex,
Udieresis,
Ugrave,
Uhungarumlaut,
Umacron,
Uogonek,
Uring,
V,
W,
Wacute,
Wcircumflex,
Wdieresis,
Wgrave,
X,
Y,
Yacute,
Ycircumflex,
Ydieresis,
Ygrave,
Z,
Zacute,
Zcaron,
Zdotaccent,
Q.ss01,
a,
aacute,
abreve,
acircumflex,
adieresis,
agrave,
amacron,
aogonek,
aring,
atilde,
ae,
b,
c,
cacute,
ccaron,
ccedilla,

glyphs = (
{
glyphname = A;
layers = (
{
anchors = (
{
name = bottom;
position = "{630, 0}";
},
{
name = ogonek;
position = "{1176, 16}";
},
{
name = top;
position = "{863, 1320}";
}
);
layerId = "C4E47923-0598-4673-A08C-5FB6011F6DED";
shapes = (
{
closed = 1;
nodes = (
(-104,0,l),
(310,0,l),
(435.379,229,l),
(906.379,229,l),
(950,0,l),
(1363,0,l),
(1051.752,1320,l),
(672.752,1320,l)
);
},
{
closed = 1;
nodes = (
(779.936,856,l),
(782.936,856,l),
(835.625,565,l),
(624.625,565,l)
);
}
);
width = 1451;
},
{
anchors = (
{
name = bottom;
position = "{475, 0}";
},
{
name = ogonek;
position = "{869, 16}";
},
{
name = top;
position = "{708, 1320}";
}
);
layerId = "2CB18861-F91E-4469-AD22-4F8C4E906F22";
shapes = (
{
closed = 1;
nodes = (
(-26,0,l),
(42,0,l),
(237,362,l),
(842,362,l),
(907,0,l),
(974,0,l),
(747,1320,l),
(670,1320,l)
);
},
{
closed = 1;
nodes = (
(692,1237,l),
(695,1237,l),
(837,426,l),
(265,426,l)
);
}
);
width = 1086;
}
);
leftKerningGroup = A;
rightKerningGroup = A;
unicode = 65;
},
{
glyphname = AE;
rightMetricsKey = E;
layers = (
{
anchors = (
{
name = bottom;
position = "{821, 0}";
},
{
name = top;
position = "{1053, 1320}";
}
);
layerId = "C4E47923-0598-4673-A08C-5FB6011F6DED";
shapes = (
{
closed = 1;
nodes = (
(-56,0,l),
(396.8,0,l),
(518.4,225.6,l),
(1000,225.6,l),
(1224,1320,l),
(814.4,1320,l)
);
},
{
closed = 1;
nodes = (
(907.2,793.6,l),
(864,568,l),
(761.6,568,l)
);
},
{
alignment = -1;
pos = (693,0);
ref = E;
}
);
width = 1764;
},
{
anchors = (
{
name = bottom;
position = "{655, 0}";
},
{
name = top;
position = "{887, 1320}";
}
);
layerId = "2CB18861-F91E-4469-AD22-4F8C4E906F22";
shapes = (
{
closed = 1;
nodes = (
(-86.4,0,l),
(-11.2,0,l),
(267.2,360,l),
(808,360,l),
(972.8,1320,l),
(905.6,1320,l)
);
},
{
closed = 1;
nodes = (
(884.8,1212.8,l),
(748.8,427.2,l),
(310.4,427.2,l)
);
},
{
alignment = -1;
pos = (636,0);
ref = E;
}
);
width = 1446;
}
);
leftKerningGroup = A;
rightKerningGroup = E;
unicode = 198;
},
{
color = 1;
glyphname = B;
leftMetricsKey = H;
layers = (
{
anchors = (
{
name = bottom;
position = "{514, 0}";
},
{
name = top;
position = "{746, 1320}";
}
);
layerId = "C4E47923-0598-4673-A08C-5FB6011F6DED";
shapes = (
{
closed = 1;
nodes = (
(60,0,l),
(613.6,0,ls),
(887.2,0,o),
(1080.8,142.4,o),
(1120.8,368,cs),
(1157.6,585.6,o),
(1108,672,o),
(916,712,c),
(1048.8,744,o),
(1148,828.8,o),
(1175.2,976,cs),
(1220,1227.2,o),
(1039.2,1320,o),
(805.6,1320,cs),
(288.8,1320,l)
);
},
{
closed = 1;
nodes = (
(541.6,505.6,l),
(541.6,505.6,ls),
(653.6,505.6,o),
(727.2,500.8,o),
(704.8,387.2,c),
(688.8,291.2,o),
(605.6,294.4,o),
(503.2,294.4,c),
(503.2,294.4,l)
);
},
{
closed = 1;
nodes = (
(631.2,1025.6,l),
(647.2,1025.6,ls),
(748,1025.6,o),
(788,1001.6,o),
(778.4,937.6,cs),
(760.8,835.2,o),
(706.4,841.6,o),
(600.8,841.6,c),
(600.8,841.6,l)
);
}
);
width = 1181;
},
{
anchors = (
{
name = bottom;
position = "{372, 0}";
},
{
name = top;
position = "{604, 1320}";
}
);
layerId = "2CB18861-F91E-4469-AD22-4F8C4E906F22";
shapes = (
{
closed = 1;
nodes = (
(16,0,l),
(406.4,0,ls),
(680,0,o),
(816,169.6,o),
(851.2,368,cs),
(884.8,569.6,o),
(712,670.4,o),
(635.2,673.6,c),
(715.2,686.4,o),
(862.4,828.8,o),
(894.4,1003.2,cs),
(939.2,1254.4,o),
(753.6,1320,o),
(545.6,1320,cs),
(249.6,1320,l)
);
},
{
closed = 1;
nodes = (
(193.6,641.6,l),
(523.2,641.6,ls),
(745.6,641.6,o),
(812.8,500.8,o),
(788.8,360,cs),
(766.4,235.2,o),
(684.8,75.2,o),
(444.8,75.2,cs),
(94.4,75.2,l)
);
},
{
closed = 1;
nodes = (
(302.4,1244.8,l),
(563.2,1244.8,ls),
(772.8,1244.8,o),
(860.8,1166.4,o),
(828.8,993.6,cs),
(806.4,862.4,o),
(694.4,705.6,o),
(505.6,705.6,cs),
(204.8,705.6,l)
);
}
);
width = 888;
},
{
layerId = "3BCED78A-C279-4060-B997-2242E80BB2EB";
name = "BoldItalicItalic.Nov 4 17, 14:34";
shapes = (
{
closed = 1;
nodes = (
(-20.8,0,l),
(496,0,ls),
(769.6,0,o),
(937.6,139.2,o),
(974.4,347.2,cs),
(1012.8,569.6,o),
(920,670.4,o),
(769.6,696,c),
(897.6,726.4,o),
(1000,817.6,o),
(1025.6,963.2,cs),
(1072,1224,o),
(884.8,1320,o),
(657.6,1320,cs),
(212.8,1320,l)
);
},
{
closed = 1;
nodes = (
(376,544,l),
(480,544,ls),
(622.4,544,o),
(683.2,512,o),
(665.6,400,cs),
(648,286.4,o),
(548.8,232,o),
(406.4,232,cs),
(321.6,232,l)
);
},
{
closed = 1;
nodes = (
(472,1088,l),
(566.4,1088,ls),
(710.4,1088,o),
(745.6,1040,o),
(731.2,955.2,cs),
(708.8,835.2,o),
(627.2,803.2,o),
(497.6,803.2,cs),
(422.4,803.2,l)
);
}
);
width = 1066;
}
);
leftKerningGroup = N;
unicode = 66;
},
{
color = 1;
glyphname = C;
leftMetricsKey = O;
layers = (
{
anchors = (
{
name = bottom;
position = "{514, 0}";
},
{
name = top;
position = "{746, 1320}";
}
);
guides = (
{
angle = 80;
position = "{994, 790}";
}
);
layerId = "C4E47923-0598-4673-A08C-5FB6011F6DED";
shapes = (
{
closed = 1;
nodes = (
(470,345.6,o),
(497.2,592,o),
(510,700.8,cs),
(522.8,817.6,o),
(567.6,976,o),
(847.6,976,cs),
(1052.4,976,o),
(1204.4,900.8,o),
(1191.6,910.4,c),
(1257.2,1286.4,l),
(1178.8,1313.6,o),
(1062,1344,o),
(879.6,1339.2,cs),
(377.2,1328,o),
(132.4,998.4,o),
(92.4,686.4,cs),
(49.2,353.6,o),
(217.2,-24,o),
(734,-24,cs),
(852.4,-24,o),
(962.8,-1.6,o),
(1046,25.6,c),
(1110,406.4,l),
(1132.4,417.6,o),
(977.2,345.6,o),
(815.6,345.6,cs)
);
}
);
width = 1174;
},
{
anchors = (
{
name = bottom;
position = "{412, 0}";
},
{
name = top;
position = "{644, 1320}";
}
);
guides = (
{
angle = 80;
position = "{995, 790}";
}
);
layerId = "2CB18861-F91E-4469-AD22-4F8C4E906F22";
shapes = (
{
closed = 1;
nodes = (
(342.4,43.2,o),
(78.4,217.6,o),
(153.6,649.6,cs),
(228.8,1080,o),
(556.8,1281.6,o),
(788.8,1281.6,cs),
(950.4,1281.6,o),
(1014.4,1236.8,o),
(1048,1211.2,c),
(1062.4,1284.8,l),
(1014.4,1321.6,o),
(945.6,1344,o),
(812.8,1344,cs),
(436.8,1347.2,o),
(156.8,1054.4,o),
(83.2,656,cs),
(11.2,262.4,o),
(188.8,-24,o),
(569.6,-24,cs),
(699.2,-24,o),
(804.8,9.6,o),
(854.4,41.6,c),
(868.8,124.8,l),
(822.4,94.4,o),
(736,43.2,o),
(572.8,43.2,cs)
);
}
);
width = 966;
}
);
leftKerningGroup = O;
unicode = 67;
},
{
glyphname = D;
leftMetricsKey = H;
rightMetricsKey = O;
layers = (
{
anchors = (
{
name = bottom;
position = "{565, 0}";
},
{
name = center;
position = "{682, 661}";
},
{
name = top;
position = "{797, 1320}";
}
);
layerId = "C4E47923-0598-4673-A08C-5FB6011F6DED";
shapes = (
{
closed = 1;
nodes = (
(56,0,l),
(529.6,0,ls),
(870.4,0,o),
(1196.8,259.2,o),
(1267.2,630.4,cs),
(1340.8,1028.8,o),
(1084.8,1320,o),
(747.2,1320,cs),
(300.8,1320,l)
);
},
{
closed = 1;
nodes = (
(676.8,969.6,ls),
(825.6,969.6,o),
(884.8,835.2,o),
(862.4,689.6,cs),
(835.2,516.8,o),
(689.6,345.6,o),
(529.6,345.6,cs),
(512,345.6,l),
(630.4,969.6,l)
);
}
);
width = 1270;
},
{
anchors = (
{
name = bottom;
position = "{423, 0}";
},
{
name = center;
position = "{539, 661}";
},
{
name = top;
position = "{655, 1320}";
}
);
layerId = "2CB18861-F91E-4469-AD22-4F8C4E906F22";
shapes = (
{
closed = 1;
nodes = (
(44.8,0,l),
(284.8,0,ls),
(705.6,0,o),
(934.4,278.4,o),
(993.6,665.6,cs),
(1052.8,1048,o),
(913.6,1320,o),
(492.8,1320,cs),
(249.6,1320,l)
);
},
{
closed = 1;
nodes = (
(444.8,1259.2,ls),
(860.8,1259.2,o),
(988.8,1035.2,o),
(924.8,654.4,cs),
(862.4,278.4,o),
(643.2,72,o),
(264,72,cs),
(120,72,l),
(305.6,1259.2,l)
);
}
);
width = 988;
}
);
leftKerningGroup = N;
rightKerningGroup = O;
unicode = 68;
},
{
glyphname = Eth;
layers = (
{
layerId = "C4E47923-0598-4673-A08C-5FB6011F6DED";
shapes = (
{
closed = 1;
nodes = (
(233.6,1320,l),
(144,820.8,l),
(52.8,820.8,l),
(-1.6,499.2,l),
(89.6,499.2,l),
(0,0,l),
(448,0,ls),
(785.6,0,o),
(1172.8,257.6,o),
(1241.6,632,cs),
(1310.4,1030.4,o),
(998.4,1320,o),
(657.6,1320,cs)
);
},
{
closed = 1;
nodes = (
(454.4,345.6,l),
(483.2,499.2,l),
(628.8,499.2,l),
(681.6,820.8,l),
(537.6,820.8,l),
(564.8,974.4,l),
(585.6,974.4,ls),
(745.6,974.4,o),
(843.2,833.6,o),
(820.8,688,cs),
(792,516.8,o),
(612.8,345.6,o),
(449.6,345.6,c)
);
}
);
width = 1283;
},
{
layerId = "2CB18861-F91E-4469-AD22-4F8C4E906F22";
shapes = (
{
closed = 1;
nodes = (
(376,1320,l),
(264,684.8,l),
(30.4,684.8,l),
(20.8,635.2,l),
(254.4,635.2,l),
(142.4,0,l),
(390.4,0,ls),
(812.8,0,o),
(1032,273.6,o),
(1099.2,656,cs),
(1168,1043.2,o),
(1036.8,1320,o),
(617.6,1320,cs)
);
},
{
closed = 1;
nodes = (
(219.2,72,l),
(318.4,635.2,l),
(568,635.2,l),
(577.6,684.8,l),
(329.6,684.8,l),
(428.8,1248,l),
(574.4,1248,ls),
(956.8,1248,o),
(1110.4,1038.4,o),
(1041.6,664,cs),
(972.8,281.6,o),
(742.4,72,o),
(363.2,72,cs)
);
}
);
width = 1138;
}
);
rightKerningGroup = O;
unicode = 208;
},
{
glyphname = Dcroat;
layers = (
{
layerId = "C4E47923-0598-4673-A08C-5FB6011F6DED";
shapes = (
{
closed = 1;
nodes = (
(448,0,ls),
(788.8,0,o),
(1174.4,260.8,o),
(1241.6,633.6,cs),
(1310.4,1030.4,o),
(996.8,1320,o),
(657.6,1320,cs),
(233.6,1320,l),
(144,820.8,l),
(52.8,820.8,l),
(-1.6,499.2,l),
(89.6,499.2,l),
(0,0,l)
);
},
{
closed = 1;
nodes = (
(483.2,499.2,l),
(628.8,499.2,l),
(681.6,820.8,l),
(537.6,820.8,l),
(564.8,974.4,l),
(585.6,974.4,ls),
(747.2,974.4,o),
(844.8,833.6,o),
(820.8,686.4,cs),
(790.4,515.2,o),
(611.2,345.6,o),
(449.6,345.6,c),
(454.4,345.6,l)
);
}
);
width = 1283;
},
{
layerId = "2CB18861-F91E-4469-AD22-4F8C4E906F22";
shapes = (
{
closed = 1;
nodes = (
(390.4,0,ls),
(812.8,0,o),
(1032,273.6,o),
(1099.2,656,cs),
(1168,1043.2,o),
(1036.8,1320,o),
(617.6,1320,cs),
(376,1320,l),
(264,684.8,l),
(30.4,684.8,l),
(20.8,635.2,l),
(254.4,635.2,l),
(142.4,0,l)
);
},
{
closed = 1;
nodes = (
(318.4,635.2,l),
(568,635.2,l),
(577.6,684.8,l),
(329.6,684.8,l),
(428.8,1248,l),
(574.4,1248,ls),
(955.2,1248,o),
(1110.4,1038.4,o),
(1041.6,664,cs),
(972.8,283.2,o),
(742.4,72,o),
(363.2,72,cs),
(219.2,72,l)
);
}
);
width = 1138;
}
);
rightKerningGroup = O;
unicode = 272;
},
{
color = 1;
glyphname = E;
leftMetricsKey = H;
layers = (
{
anchors = (
{
name = bottom;
position = "{457, 0}";
},
{
name = ogonek;
position = "{893, 16}";
},
{
name = top;
position = "{689, 1320}";
},
{
name = topleft;
position = "{181, 1320}";
}
);
layerId = "C4E47923-0598-4673-A08C-5FB6011F6DED";
shapes = (
{
closed = 1;
nodes = (
(56.2,0,l),
(896.2,0,l),
(957,340.8,l),
(509,340.8,l),
(537.8,491.2,l),
(966.6,491.2,l),
(1025.8,832,l),
(597,832,l),
(622.6,979.2,l),
(1070.6,979.2,l),
(1129.8,1320,l),
(289.8,1320,l)
);
}
);
width = 1071;
},
{
anchors = (
{
name = bottom;
position = "{333, 0}";
},
{
name = ogonek;
position = "{659, 16}";
},
{
name = top;
position = "{565, 1320}";
},
{
name = topleft;
position = "{191, 1320}";
}
);
layerId = "2CB18861-F91E-4469-AD22-4F8C4E906F22";
shapes = (
{
closed = 1;
nodes = (
(16.6,0,l),
(666.2,0,l),
(679,67.2,l),
(95,67.2,l),
(191,627.2,l),
(757.4,627.2,l),
(770.2,696,l),
(205.4,696,l),
(301.4,1252.8,l),
(887,1252.8,l),
(899.8,1320,l),
(250.2,1320,l)
);
}
);
width = 810;
}
);
leftKerningGroup = N;
rightKerningGroup = E;
unicode = 69;
},
{
color = 1;
glyphname = F;
leftMetricsKey = H;
layers = (
{
anchors = (
{
name = bottom;
position = "{427, 0}";
},
{
name = top;
position = "{659, 1320}";
}
);
layerId = "C4E47923-0598-4673-A08C-5FB6011F6DED";
shapes = (
{
closed = 1;
nodes = (
(56,0,l),
(449.6,0,l),
(542.4,491.2,l),
(931.2,491.2,l),
(992,832,l),
(603.2,832,l),
(633.6,979.2,l),
(1057.6,979.2,l),
(1118.4,1320,l),
(300.8,1320,l)
);
}
);
width = 996;
},
{
anchors = (
{
name = bottom;
position = "{311, 0}";
},
{
name = top;
position = "{543, 1320}";
}
);
layerId = "2CB18861-F91E-4469-AD22-4F8C4E906F22";
shapes = (
{
closed = 1;
nodes = (
(43.2,0,l),
(108.8,0,l),
(206.4,627.2,l),
(731.2,627.2,l),
(740.8,696,l),
(216,696,l),
(302.4,1252.8,l),
(864,1252.8,l),
(875.2,1320,l),
(249.6,1320,l)
);
}
);
width = 764;
}
);
leftKerningGroup = N;
rightKerningGroup = F;
unicode = 70;
},
{
glyphname = G;
leftMetricsKey = O;
rightMetricsKey = O;
layers = (
{
anchors = (
{
name = bottom;
position = "{626, 0}";
},
{
name = top;
position = "{858, 1320}";
}
);
layerId = "C4E47923-0598-4673-A08C-5FB6011F6DED";
shapes = (
{
closed = 1;
nodes = (
(717.4,460.8,l),
(968.6,465.6,l),
(952.6,382.4,o),
(840.6,316.8,o),
(706.2,331.2,cs),
(583,345.6,o),
(475.8,513.6,o),
(506.2,668.8,cs),
(541.4,857.6,o),
(626.2,992,o),
(784.6,992,cs),
(839,992,o),
(1013.4,987.2,o),
(1077.4,825.6,c),
(1360.6,1097.6,l),
(1231,1297.6,o),
(1019.8,1345.6,o),
(869.4,1345.6,cs),
(410.2,1345.6,o),
(157.4,1036.8,o),
(98.2,721.6,cs),
(34.2,385.6,o),
(189.4,-24,o),
(653.4,-24,cs),
(1221.4,-24,o),
(1354.2,403.2,o),
(1362.2,457.6,cs),
(1410.2,755.2,l),
(770.2,755.2,l)
);
}
);
width = 1395;
},
{
anchors = (
{
name = bottom;
position = "{537, 0}";
},
{
name = top;
position = "{769, 1320}";
}
);
layerId = "2CB18861-F91E-4469-AD22-4F8C4E906F22";
shapes = (
{
closed = 1;
nodes = (
(661.4,625.6,l),
(1139.8,624,l),
(1083.8,262.4,o),
(867.8,49.6,o),
(570.2,46.4,cs),
(258.2,44.8,o),
(95,294.4,o),
(154.2,657.6,cs),
(210.2,1022.4,o),
(490.2,1276.8,o),
(771.8,1276.8,cs),
(1019.8,1276.8,o),
(1088.6,1158.4,o),
(1123.8,1134.4,c),
(1191,1182.4,l),
(1151,1217.6,o),
(1058.2,1344,o),
(776.6,1344,cs),
(437.4,1344,o),
(141.4,1038.4,o),
(82.2,649.6,cs),
(23,265.6,o),
(200.6,-24,o),
(557.4,-24,cs),
(1114.2,-24,o),
(1211.8,584,o),
(1219.8,638.4,cs),
(1229.4,699.2,l),
(672.6,699.2,l)
);
}
);
width = 1219;
}
);
leftKerningGroup = O;
rightKerningGroup = d;
unicode = 71;
},
{
glyphname = Gcommaaccent;
layers = (
{
anchors = (
{
name = bottom;
position = "{627, 0}";
},
{
name = top;
position = "{859, 1320}";
}
);
layerId = "C4E47923-0598-4673-A08C-5FB6011F6DED";
shapes = (
{
closed = 1;
nodes = (
(560,-48,o),
(505.6,-108.8,o),
(497.6,-166.4,cs),
(488,-228.8,o),
(536,-286.4,o),
(611.2,-294.4,c),
(596.8,-321.6,o),
(577.6,-331.2,o),
(489.6,-377.6,c),
(553.6,-462.4,l),
(662.4,-436.8,o),
(811.2,-331.2,o),
(825.6,-235.2,cs),
(844.8,-121.6,o),
(785.6,-48,o),
(673.6,-48,cs)
);
},
{
alignment = -1;
ref = G;
}
);
width = 1403;
},
{
anchors = (
{
name = bottom;
position = "{538, 0}";
},
{
name = top;
position = "{770, 1320}";
}
);
layerId = "2CB18861-F91E-4469-AD22-4F8C4E906F22";
shapes = (
{
closed = 1;
nodes = (
(515.2,-83.2,o),
(465.6,-128,o),
(452.8,-182.4,cs),
(441.6,-236.8,o),
(497.6,-284.8,o),
(561.6,-267.2,c),
(512,-334.4,o),
(408,-392,o),
(420.8,-385.6,c),
(467.2,-417.6,l),
(531.2,-379.2,o),
(628.8,-300.8,o),
(648,-190.4,cs),
(659.2,-132.8,o),
(619.2,-83.2,o),
(561.6,-83.2,cs)
);
},
{
alignment = -1;
ref = G;
}
);
width = 1203;
}
);
leftKerningGroup = O;
rightKerningGroup = d;
unicode = 290;
},
{
color = 1;
glyphname = H;
layers = (
{
anchors = (
{
name = bottom;
position = "{620, 0}";
},
{
name = center;
position = "{737, 661}";
},
{
name = top;
position = "{852, 1320}";
},
{
name = topleft;
position = "{192, 1320}";
}
);
layerId = "C4E47923-0598-4673-A08C-5FB6011F6DED";
shapes = (
{
closed = 1;
nodes = (
(776,0,l),
(1168,0,l),
(1412.8,1320,l),
(1019.2,1320,l),
(929.6,832,l),
(603.2,832,l),
(694.4,1320,l),
(300.8,1320,l),
(56,0,l),
(449.6,0,l),
(542.4,491.2,l),
(868.8,491.2,l)
);
}
);
width = 1381;
},
{
anchors = (
{
name = bottom;
position = "{437, 0}";
},
{
name = center;
position = "{554, 661}";
},
{
name = top;
position = "{669, 1320}";
},
{
name = topleft;
position = "{192, 1320}";
}
);
layerId = "2CB18861-F91E-4469-AD22-4F8C4E906F22";
shapes = (
{
closed = 1;
nodes = (
(788.8,0,l),
(854.4,0,l),
(1060.8,1320,l),
(995.2,1320,l),
(896,696,l),
(216,696,l),
(313.6,1320,l),
(249.6,1320,l),
(43.2,0,l),
(108.8,0,l),
(206.4,627.2,l),
(888,627.2,l)
);
}
);
width = 1015;
}
);
leftKerningGroup = N;
rightKerningGroup = N;
unicode = 72;
},
{
glyphname = Hbar;
layers = (
{
anchors = (
{
name = bottom;
position = "{620, 0}";
},
{
name = center;
position = "{737, 661}";
},
{
name = top;
position = "{852, 1320}";
},
{
name = topleft;
position = "{192, 1320}";
}
);
layerId = "C4E47923-0598-4673-A08C-5FB6011F6DED";
shapes = (
{
closed = 1;
nodes = (
(136,886.4,l),
(1432,886.4,l),
(1484.8,1179.2,l),
(188.8,1179.2,l)
);
},
{
alignment = -1;
ref = H;
}
);
width = 1304;
},
{
anchors = (
{
name = bottom;
position = "{437, 0}";
},
{
name = center;
position = "{554, 661}";
},
{
name = top;
position = "{669, 1320}";
},
{
name = topleft;
position = "{192, 1320}";
}
);
layerId = "2CB18861-F91E-4469-AD22-4F8C4E906F22";
shapes = (
{
closed = 1;
nodes = (
(89.6,1022.4,l),
(1112,1022.4,l),
(1121.6,1070.4,l),
(97.6,1070.4,l)
);
},
{
alignment = -1;
ref = H;
}
);
width = 1003;
}
);
unicode = 294;
},
{
color = 1;
glyphname = I;
layers = (
{
anchors = (
{
name = bottom;
position = "{253, 0}";
},
{
name = ogonek;
position = "{515, 16}";
},
{
name = top;
position = "{485, 1320}";
},
{
name = topleft;
position = "{192, 1320}";
}
);
layerId = "C4E47923-0598-4673-A08C-5FB6011F6DED";
shapes = (
{
closed = 1;
nodes = (
(49.6,0,l),
(441.6,0,l),
(686.4,1320,l),
(292.8,1320,l)
);
}
);
width = 647;
},
{
anchors = (
{
name = bottom;
position = "{83, 0}";
},
{
name = ogonek;
position = "{209, 16}";
},
{
name = top;
position = "{315, 1320}";
},
{
name = topleft;
position = "{192, 1320}";
}
);
layerId = "2CB18861-F91E-4469-AD22-4F8C4E906F22";
shapes = (
{
closed = 1;
nodes = (
(62.4,0,l),
(128,0,l),
(334.4,1320,l),
(268.8,1320,l)
);
}
);
width = 309;
}
);
leftKerningGroup = i;
rightKerningGroup = d;
unicode = 73;
},
{
color = 1;
glyphname = J;
rightMetricsKey = H;
layers = (
{
anchors = (
{
name = bottom;
position = "{371, 0}";
},
{
name = top;
position = "{603, 1320}";
}
);
layerId = "C4E47923-0598-4673-A08C-5FB6011F6DED";
shapes = (
{
closed = 1;
nodes = (
(910.4,1320,l),
(518.4,1320,l),
(366.4,496,ls),
(340.8,363.2,o),
(296,371.2,o),
(310.4,342.4,c),
(278.4,308.8,o),
(201.6,328,o),
(110.4,419.2,c),
(-64,104,l),
(-78.4,129.6,o),
(16,-24,o),
(235.2,-24,cs),
(486.4,-24,o),
(684.8,83.2,o),
(731.2,342.4,cs)
);
}
);
width = 878;
},
{
anchors = (
{
name = bottom;
position = "{282, 0}";
},
{
name = top;
position = "{514, 1320}";
}
);
layerId = "2CB18861-F91E-4469-AD22-4F8C4E906F22";
shapes = (
{
closed = 1;
nodes = (
(760,1320,l),
(696,1320,l),
(547.2,372.8,ls),
(526.4,240,o),
(488,25.6,o),
(241.6,30.4,cs),
(84.8,35.2,o),
(-3.2,128,o),
(-14.4,153.6,c),
(-52.8,96,l),
(-6.4,32,o),
(102.4,-24,o),
(246.4,-24,cs),
(508.8,-24,o),
(577.6,152,o),
(619.2,411.2,cs)
);
}
);
width = 707;
}
);
rightKerningGroup = d;
unicode = 74;
},
{
color = 1;
glyphname = K;
leftMetricsKey = H;
layers = (
{
anchors = (
{
name = bottom;
position = "{619, 0}";
},
{
name = top;
position = "{851, 1320}";
}
);
layerId = "C4E47923-0598-4673-A08C-5FB6011F6DED";
shapes = (
{
closed = 1;
nodes = (
(1529.6,1320,l),
(1049.6,1320,l),
(596.8,827.2,l),
(694.4,1320,l),
(300.8,1320,l),
(56,0,l),
(449.6,0,l),
(558.4,553.6,l),
(846.4,0,l),
(1336,0,l),
(929.6,710.4,l)
);
}
);
width = 1380;
},
{
anchors = (
{
name = bottom;
position = "{342, 0}";
},
{
name = top;
position = "{574, 1320}";
}
);
layerId = "2CB18861-F91E-4469-AD22-4F8C4E906F22";
shapes = (
{
closed = 1;
nodes = (
(928,1320,l),
(835.2,1320,l),
(211.2,662.4,l),
(313.6,1320,l),
(249.6,1320,l),
(43.2,0,l),
(108.8,0,l),
(208,635.2,l),
(665.6,0,l),
(750.4,0,l),
(283.2,654.4,l)
);
}
);
width = 828;
}
);
leftKerningGroup = N;
rightKerningGroup = X;
unicode = 75;
},
{
glyphname = Kcommaaccent;
layers = (
{
anchors = (
{
name = bottom;
position = "{619, 0}";
},
{
name = top;
position = "{851, 1320}";
}
);
layerId = "C4E47923-0598-4673-A08C-5FB6011F6DED";
shapes = (
{
closed = 1;
nodes = (
(515.2,-48,o),
(462.4,-108.8,o),
(452.8,-166.4,c),
(444.8,-228.8,o),
(492.8,-286.4,o),
(566.4,-294.4,c),
(553.6,-321.6,o),
(534.4,-331.2,o),
(446.4,-377.6,c),
(510.4,-462.4,l),
(619.2,-436.8,o),
(768,-331.2,o),
(782.4,-235.2,cs),
(801.6,-121.6,o),
(742.4,-48,o),
(630.4,-48,cs)
);
},
{
alignment = -1;
ref = K;
}
);
width = 1389;
},
{
anchors = (
{
name = bottom;
position = "{342, 0}";
},
{
name = top;
position = "{574, 1320}";
}
);
layerId = "2CB18861-F91E-4469-AD22-4F8C4E906F22";
shapes = (
{
closed = 1;
nodes = (
(291.2,-83.2,o),
(241.6,-128,o),
(228.8,-182.4,cs),
(217.6,-236.8,o),
(273.6,-284.8,o),
(337.6,-267.2,c),
(288,-334.4,o),
(184,-392,o),
(196.8,-385.6,c),
(243.2,-417.6,l),
(307.2,-379.2,o),
(404.8,-300.8,o),
(424,-190.4,cs),
(435.2,-132.8,o),
(395.2,-83.2,o),
(337.6,-83.2,cs)
);
},
{
alignment = -1;
ref = K;
}
);
width = 804;
}
);
leftKerningGroup = N;
rightKerningGroup = X;
unicode = 310;
},
{
color = 1;
glyphname = L;
leftMetricsKey = H;
layers = (
{
anchors = (
{
name = bottom;
position = "{401, 0}";
},
{
name = center;
position = "{518, 661}";
},
{
name = top;
position = "{633, 1320}";
},
{
name = topright;
position = "{1073, 1320}";
}
);
layerId = "C4E47923-0598-4673-A08C-5FB6011F6DED";
shapes = (
{
closed = 1;
nodes = (
(56,0,l),
(865.6,0,l),
(926.4,340.8,l),
(510.4,340.8,l),
(694.4,1320,l),
(300.8,1320,l)
);
}
);
width = 945;
},
{
anchors = (
{
name = bottom;
position = "{295, 0}";
},
{
name = center;
position = "{412, 661}";
},
{
name = top;
position = "{527, 1320}";
},
{
name = topright;
position = "{860, 1320}";
}
);
layerId = "2CB18861-F91E-4469-AD22-4F8C4E906F22";
shapes = (
{
closed = 1;
nodes = (
(43.2,0,l),
(660.8,0,l),
(672,67.2,l),
(118.4,67.2,l),
(313.6,1320,l),
(249.6,1320,l)
);
}
);
width = 732;
}
);
leftKerningGroup = N;
rightKerningGroup = L;
unicode = 76;
},
{
glyphname = Lcommaaccent;
layers = (
{
anchors = (
{
name = bottom;
position = "{401, 0}";
},
{
name = center;
position = "{518, 661}";
},
{
name = top;
position = "{633, 1320}";
},
{
name = topright;
position = "{1073, 1320}";
}
);
layerId = "C4E47923-0598-4673-A08C-5FB6011F6DED";
shapes = (
{
closed = 1;
nodes = (
(294.4,-48,o),
(240,-108.8,o),
(232,-166.4,cs),
(222.4,-228.8,o),
(270.4,-286.4,o),
(345.6,-294.4,c),
(331.2,-321.6,o),
(313.6,-331.2,o),
(225.6,-377.6,c),
(289.6,-462.4,l),
(396.8,-436.8,o),
(547.2,-331.2,o),
(561.6,-235.2,cs),
(579.2,-121.6,o),
(521.6,-48,o),
(408,-48,cs)
);
},
{
alignment = -1;
ref = L;
}
);
width = 930;
},
{
anchors = (
{
name = bottom;
position = "{295, 0}";
},
{
name = center;
position = "{412, 661}";
},
{
name = top;
position = "{527, 1320}";
},
{
name = topright;
position = "{860, 1320}";
}
);
layerId = "2CB18861-F91E-4469-AD22-4F8C4E906F22";
shapes = (
{
closed = 1;
nodes = (
(289.6,-83.2,o),
(238.4,-128,o),
(227.2,-182.4,cs),
(214.4,-236.8,o),
(268.8,-284.8,o),
(332.8,-267.2,c),
(284.8,-334.4,o),
(179.2,-392,o),
(192,-385.6,c),
(240,-417.6,l),
(304,-379.2,o),
(401.6,-300.8,o),
(420.8,-190.4,cs),
(432,-132.8,o),
(392,-83.2,o),
(334.4,-83.2,cs)
);
},
{
alignment = -1;
ref = L;
}
);
width = 771;
}
);
leftKerningGroup = N;
rightKerningGroup = L;
unicode = 315;
},
{
glyphname = Lslash;
layers = (
{
layerId = "C4E47923-0598-4673-A08C-5FB6011F6DED";
shapes = (
{
closed = 1;
nodes = (
(835.2,0,l),
(894.4,340.8,l),
(478.4,340.8,l),
(555.2,740.8,l),
(768,889.6,l),
(814.4,1188.8,l),
(598.4,1040,l),
(652.8,1320,l),
(259.2,1320,l),
(152,729.6,l),
(27.2,644.8,l),
(-19.2,345.6,l),
(105.6,432,l),
(25.6,0,l)
);
}
);
width = 1005;
},
{
layerId = "2CB18861-F91E-4469-AD22-4F8C4E906F22";
shapes = (
{
closed = 1;
nodes = (
(681.6,0,l),
(694.4,67.2,l),
(142.4,67.2,l),
(254.4,705.6,l),
(387.2,796.8,l),
(404.8,904,l),
(273.6,812.8,l),
(363.2,1320,l),
(297.6,1320,l),
(198.4,763.2,l),
(28.8,644.8,l),
(11.2,537.6,l),
(180.8,656,l),
(64,0,l)
);
}
);
width = 852;
}
);
leftKerningGroup = N;
rightKerningGroup = L;
unicode = 321;
},
{
glyphname = M;
layers = (
{
anchors = (
{
name = bottom;
position = "{776, 0}";
},
{
name = top;
position = "{1009, 1320}";
}
);
layerId = "C4E47923-0598-4673-A08C-5FB6011F6DED";
shapes = (
{
closed = 1;
nodes = (
(1223,1320,l),
(886,547,l),
(841,416,l),
(842,547,l),
(779,1320,l),
(225,1320,l),
(-8,0,l),
(379,0,l),
(495,656,l),
(527,928,l),
(532,611,l),
(601,128,l),
(980,128,l),
(1220,611,l),
(1337,928,l),
(1273,656,l),
(1157,0,l),
(1544,0,l),
(1777,1320,l)
);
}
);
width = 1760;
},
{
anchors = (
{
name = bottom;
position = "{574, 0}";
},
{
name = top;
position = "{807, 1320}";
}
);
layerId = "2CB18861-F91E-4469-AD22-4F8C4E906F22";
shapes = (
{
closed = 1;
nodes = (
(1249,1320,l),
(601,152,l),
(587,117,l),
(585,152,l),
(351,1320,l),
(287,1320,l),
(54,0,l),
(117,0,l),
(311,1101,l),
(321,1184,l),
(328,1101,l),
(542,48,l),
(606,48,l),
(1192,1101,l),
(1230,1184,l),
(1210,1101,l),
(1016,0,l),
(1078,0,l),
(1311,1320,l)
);
}
);
width = 1333;
}
);
leftKerningGroup = N;
rightKerningGroup = N;
unicode = 77;
},
{
glyphname = N;
leftMetricsKey = H;
rightMetricsKey = H;
layers = (
{
anchors = (
{
name = bottom;
position = "{712, 0}";
},
{
name = top;
position = "{945, 1320}";
}
);
layerId = "C4E47923-0598-4673-A08C-5FB6011F6DED";
shapes = (
{
closed = 1;
nodes = (
(842,0,l),
(1368,0,l),
(1600.752,1320,l),
(1213.752,1320,l),
(1043.42,354,l),
(1073.478,360,l),
(811.752,1320,l),
(288.752,1320,l),
(56,0,l),
(443,0,l),
(612.803,963,l),
(584.685,968,l)
);
}
);
width = 1568;
},
{
anchors = (
{
name = bottom;
position = "{543, 0}";
},
{
name = top;
position = "{776, 1320}";
}
);
layerId = "2CB18861-F91E-4469-AD22-4F8C4E906F22";
shapes = (
{
closed = 1;
nodes = (
(888,0,l),
(989,0,l),
(1222,1320,l),
(1160,1320,l),
(939,67,l),
(940,67,l),
(350,1320,l),
(249,1320,l),
(16,0,l),
(79,0,l),
(300,1253,l),
(298,1253,l)
);
}
);
width = 1150;
}
);
leftKerningGroup = N;
rightKerningGroup = N;
unicode = 78;
},
{
glyphname = Ncommaaccent;
layers = (
{
anchors = (
{
name = bottom;
position = "{674, 0}";
},
{
name = top;
position = "{906, 1320}";
}
);
layerId = "C4E47923-0598-4673-A08C-5FB6011F6DED";
shapes = (
{
closed = 1;
nodes = (
(548.8,-48,o),
(496,-108.8,o),
(486.4,-166.4,c),
(478.4,-228.8,o),
(524.8,-286.4,o),
(600,-294.4,c),
(585.6,-321.6,o),
(566.4,-331.2,o),
(478.4,-377.6,c),
(544,-462.4,l),
(652.8,-436.8,o),
(801.6,-331.2,o),
(816,-235.2,cs),
(833.6,-121.6,o),
(776,-48,o),
(662.4,-48,cs)
);
},
{
alignment = -1;
ref = N;
}
);
width = 1502;
},
{
anchors = (
{
name = bottom;
position = "{478, 0}";
},
{
name = top;
position = "{710, 1320}";
}
);
layerId = "2CB18861-F91E-4469-AD22-4F8C4E906F22";
shapes = (
{
closed = 1;
nodes = (
(424,-83.2,o),
(372.8,-128,o),
(361.6,-182.4,cs),
(348.8,-236.8,o),
(404.8,-284.8,o),
(468.8,-267.2,c),
(419.2,-334.4,o),
(315.2,-392,o),
(328,-385.6,c),
(374.4,-417.6,l),
(438.4,-379.2,o),
(536,-300.8,o),
(555.2,-190.4,cs),
(566.4,-132.8,o),
(526.4,-83.2,o),
(468.8,-83.2,cs)
);
},
{
alignment = -1;
ref = N;
}
);
width = 1073;
}
);
leftKerningGroup = N;
rightKerningGroup = N;
unicode = 325;
},
{
glyphname = Eng;
layers = (
{
anchors = (
{
name = bottom;
position = "{674, 0}";
},
{
name = top;
position = "{906, 1320}";
}
);
layerId = "C4E47923-0598-4673-A08C-5FB6011F6DED";
shapes = (
{
closed = 1;
nodes = (
(1347.2,-112,ls),
(1321.6,-249.6,o),
(1192,-440,o),
(902.4,-440,cs),
(756.8,-440,o),
(718.4,-411.2,o),
(665.6,-387.2,c),
(830.4,-86.4,l),
(843.2,-92.8,o),
(886.4,-108.8,o),
(918.4,-108.8,cs),
(939.2,-108.8,o),
(955.2,-112,o),
(958.4,-86.4,c),
(974.4,0,l),
(1368,0,l)
);
},
{
alignment = -1;
ref = N;
}
);
width = 1414;
},
{
anchors = (
{
name = bottom;
position = "{478, 0}";
},
{
name = top;
position = "{710, 1320}";
}
);
layerId = "2CB18861-F91E-4469-AD22-4F8C4E906F22";
shapes = (
{
closed = 1;
nodes = (
(968,-124.8,ls),
(940.8,-289.6,o),
(881.6,-440,o),
(723.2,-440,cs),
(652.8,-440,o),
(588.8,-409.6,o),
(593.6,-409.6,c),
(638.4,-347.2,l),
(657.6,-366.4,o),
(692.8,-376,o),
(729.6,-376,cs),
(856,-376,o),
(883.2,-243.2,o),
(912,-73.6,cs),
(924.8,0,l),
(988.8,0,l)
);
},
{
alignment = -1;
ref = N;
}
);
width = 1086;
}
);
leftKerningGroup = N;
rightKerningGroup = N;
unicode = 330;
},
{
color = 1;
glyphname = O;
layers = (
{
anchors = (
{
name = bottom;
position = "{659, 0}";
},
{
name = center;
position = "{776, 661}";
},
{
name = ogonek;
position = "{919, 16}";
},
{
name = top;
position = "{891, 1320}";
},
{
name = topleft;
position = "{192, 1320}";
},
{
name = topright;
position = "{1070, 1320}";
}
);
layerId = "C4E47923-0598-4673-A08C-5FB6011F6DED";
shapes = (
{
closed = 1;
nodes = (
(528,828.8,o),
(616,972.8,o),
(809.6,972.8,cs),
(987.2,972.8,o),
(1091.2,846.4,o),
(1054.4,662.4,cs),
(1017.6,478.4,o),
(921.6,350.4,o),
(726.4,350.4,cs),
(539.2,350.4,o),
(475.2,529.6,o),
(500.8,668.8,cs)
);
},
{
closed = 1;
nodes = (
(19.2,278.4,o),
(272,-24,o),
(684.8,-24,cs),
(1044.8,-24,o),
(1385.6,212.8,o),
(1460.8,638.4,cs),
(1529.6,1046.4,o),
(1273.6,1344,o),
(859.2,1344,cs),
(465.6,1344,o),
(163.2,1080,o),
(92.8,692.8,cs)
);
}
);
width = 1462;
},
{
anchors = (
{
name = bottom;
position = "{575, 0}";
},
{
name = center;
position = "{691, 661}";
},
{
name = ogonek;
position = "{743, 16}";
},
{
name = top;
position = "{807, 1320}";
},
{
name = topleft;
position = "{192, 1320}";
},
{
name = topright;
position = "{979, 1320}";
}
);
layerId = "2CB18861-F91E-4469-AD22-4F8C4E906F22";
shapes = (
{
closed = 1;
nodes = (
(208,987.2,o),
(462.4,1284.8,o),
(796.8,1284.8,cs),
(1116.8,1284.8,o),
(1280,1006.4,o),
(1225.6,670.4,cs),
(1172.8,336,o),
(929.6,35.2,o),
(585.6,35.2,cs),
(260.8,35.2,o),
(100.8,297.6,o),
(153.6,649.6,cs)
);
},
{
closed = 1;
nodes = (
(24,280,o),
(198.4,-24,o),
(587.2,-24,cs),
(964.8,-24,o),
(1235.2,281.6,o),
(1294.4,654.4,cs),
(1358.4,1022.4,o),
(1169.6,1344,o),
(796.8,1344,cs),
(441.6,1344,o),
(144,1044.8,o),
(84.8,665.6,cs)
);
}
);
width = 1291;
}
);
leftKerningGroup = O;
rightKerningGroup = O;
unicode = 79;
},
{
glyphname = Oslash;
layers = (
{
anchors = (
{
name = bottom;
position = "{653, 0}";
},
{
name = top;
position = "{885, 1320}";
}
);
layerId = "C4E47923-0598-4673-A08C-5FB6011F6DED";
shapes = (
{
closed = 1;
nodes = (
(320,46.4,l),
(403.2,4.8,o),
(505.6,-24,o),
(628.8,-24,cs),
(995.2,-24,o),
(1340.8,260.8,o),
(1408,633.6,cs),
(1438.4,812.8,o),
(1396.8,968,o),
(1318.4,1084.8,c),
(1435.2,1206.4,l),
(1227.2,1384,l),
(1118.4,1275.2,l),
(1033.6,1315.2,o),
(937.6,1344,o),
(822.4,1344,cs),
(472,1344,o),
(107.2,1060.8,o),
(40,688,cs),
(9.6,508.8,o),
(46.4,353.6,o),
(120,235.2,c),
(8,120,l),
(217.6,-57.6,l)
);
},
{
closed = 1;
nodes = (
(636.8,360,o),
(614.4,348.8,o),
(590.4,342.4,c),
(1014.4,776,l),
(1006.4,737.6,o),
(995.2,704,o),
(992,688,cs),
(966.4,532.8,o),
(862.4,360,o),
(648,360,cs)
);
},
{
closed = 1;
nodes = (
(427.2,548.8,l),
(441.6,587.2,o),
(452.8,617.6,o),
(457.6,633.6,c),
(484.8,788.8,o),
(596.8,961.6,o),
(803.2,961.6,cs),
(808,961.6,o),
(828.8,974.4,o),
(851.2,982.4,c)
);
}
);
width = 1449;
},
{
anchors = (
{
name = bottom;
position = "{571, 0}";
},
{
name = top;
position = "{803, 1320}";
}
);
layerId = "2CB18861-F91E-4469-AD22-4F8C4E906F22";
shapes = (
{
closed = 1;
nodes = (
(160,112,l),
(243.2,28.8,o),
(364.8,-24,o),
(528,-24,cs),
(904,-24,o),
(1180.8,273.6,o),
(1248,656,cs),
(1283.2,852.8,o),
(1251.2,1024,o),
(1164.8,1147.2,c),
(1299.2,1281.6,l),
(1257.6,1318.4,l),
(1134.4,1190.4,l),
(1049.6,1284.8,o),
(921.6,1344,o),
(760,1344,cs),
(398.4,1344,o),
(105.6,1048,o),
(38.4,665.6,cs),
(1.6,459.2,o),
(33.6,280,o),
(124.8,153.6,c),
(0,27.2,l),
(41.6,-8,l)
);
},
{
closed = 1;
nodes = (
(385.6,32,o),
(278.4,76.8,o),
(204.8,160,c),
(1121.6,1099.2,l),
(1188.8,982.4,o),
(1209.6,827.2,o),
(1180.8,665.6,cs),
(1120,328,o),
(867.2,32,o),
(528,32,cs)
);
},
{
closed = 1;
nodes = (
(172.8,203.2,l),
(94.4,321.6,o),
(76.8,486.4,o),
(105.6,656,cs),
(164.8,993.6,o),
(427.2,1289.6,o),
(758.4,1289.6,cs),
(904,1289.6,o),
(1014.4,1236.8,o),
(1091.2,1147.2,c)
);
}
);
width = 1285;
}
);
leftKerningGroup = O;
rightKerningGroup = O;
unicode = 216;
},
{
glyphname = OE;
layers = (
{
anchors = (
{
name = bottom;
position = "{771, 0}";
},
{
name = top;
position = "{1003, 1320}";
}
);
layerId = "C4E47923-0598-4673-A08C-5FB6011F6DED";
shapes = (
{
closed = 1;
nodes = (
(1492.8,0,l),
(1552,340.8,l),
(1152,340.8,l),
(1180.8,491.2,l),
(1561.6,491.2,l),
(1620.8,832,l),
(1240,832,l),
(1265.6,979.2,l),
(1667.2,979.2,l),
(1726.4,1320,l),
(830.4,1320,ls),
(467.2,1320,o),
(107.2,1059.2,o),
(40,684.8,cs),
(-28.8,288,o),
(270.4,0,o),
(620.8,0,cs)
);
},
{
closed = 1;
nodes = (
(710.4,350.4,ls),
(536,350.4,o),
(428.8,467.2,o),
(457.6,633.6,cs),
(489.6,822.4,o),
(662.4,968,o),
(844.8,968,cs),
(870.4,968,l),
(761.6,350.4,l)
);
}
);
width = 1686;
},
{
anchors = (
{
name = bottom;
position = "{648, 0}";
},
{
name = top;
position = "{880, 1320}";
}
);
layerId = "2CB18861-F91E-4469-AD22-4F8C4E906F22";
shapes = (
{
closed = 1;
nodes = (
(1243.2,0,l),
(1256,67.2,l),
(665.6,67.2,l),
(761.6,627.2,l),
(1334.4,627.2,l),
(1347.2,696,l),
(774.4,696,l),
(872,1252.8,l),
(1464,1252.8,l),
(1476.8,1320,l),
(756.8,1320,ls),
(393.6,1320,o),
(105.6,1048,o),
(38.4,665.6,cs),
(-30.4,276.8,o),
(134.4,0,o),
(529.6,0,cs)
);
},
{
closed = 1;
nodes = (
(528,60.8,ls),
(177.6,60.8,o),
(48,331.2,o),
(105.6,656,cs),
(164.8,988.8,o),
(411.2,1260.8,o),
(744,1260.8,cs),
(809.6,1260.8,l),
(596.8,60.8,l)
);
}
);
width = 1437;
}
);
leftKerningGroup = O;
rightKerningGroup = d;
unicode = 338;
},
{
color = 1;
glyphname = P;
leftMetricsKey = H;
layers = (
{
anchors = (
{
name = bottom;
position = "{511, 0}";
},
{
name = top;
position = "{743, 1320}";
}
);
layerId = "C4E47923-0598-4673-A08C-5FB6011F6DED";
shapes = (
{
closed = 1;
nodes = (
(56,0,l),
(449.6,0,l),
(536,467.2,l),
(713.6,467.2,ls),
(971.2,467.2,o),
(1188.8,616,o),
(1238.4,876.8,cs),
(1291.2,1168,o),
(1099.2,1320,o),
(848,1320,cs),
(300.8,1320,l)
);
},
{
closed = 1;
nodes = (
(638.4,1014.4,l),
(689.6,1014.4,ls),
(766.4,1014.4,o),
(843.2,1001.6,o),
(825.6,916.8,cs),
(806.4,822.4,o),
(697.6,771.2,o),
(603.2,771.2,cs),
(592,771.2,l)
);
}
);
width = 1167;
},
{
anchors = (
{
name = bottom;
position = "{361, 0}";
},
{
name = top;
position = "{593, 1320}";
}
);
layerId = "2CB18861-F91E-4469-AD22-4F8C4E906F22";
shapes = (
{
closed = 1;
nodes = (
(43.2,0,l),
(108.8,0,l),
(195.2,548.8,l),
(416,548.8,ls),
(673.6,548.8,o),
(864,665.6,o),
(904,934.4,cs),
(944,1198.4,o),
(806.4,1320,o),
(531.2,1320,cs),
(249.6,1320,l)
);
},
{
closed = 1;
nodes = (
(302.4,1246.4,l),
(508.8,1246.4,ls),
(732.8,1246.4,o),
(883.2,1177.6,o),
(849.6,947.2,cs),
(808,675.2,o),
(622.4,620.8,o),
(444.8,620.8,cs),
(204.8,620.8,l)
);
}
);
width = 866;
}
);
rightKerningGroup = P;
unicode = 80;
},
{
glyphname = Thorn;
layers = (
{
anchors = (
{
name = bottom;
position = "{503, 0}";
},
{
name = top;
position = "{735, 1320}";
}
);
layerId = "C4E47923-0598-4673-A08C-5FB6011F6DED";
shapes = (
{
closed = 1;
nodes = (
(-20.8,0,l),
(372.8,0,l),
(416,244.8,l),
(585.6,244.8,ls),
(843.2,244.8,o),
(1064,382.4,o),
(1110.4,641.6,cs),
(1160,928,o),
(966.4,1075.2,o),
(708.8,1075.2,cs),
(563.2,1075.2,l),
(606.4,1320,l),
(212.8,1320,l)
);
},
{
closed = 1;
nodes = (
(508.8,769.6,l),
(528,769.6,ls),
(616,769.6,o),
(699.2,764.8,o),
(684.8,681.6,cs),
(664,576,o),
(553.6,550.4,o),
(465.6,550.4,c),
(470.4,550.4,l)
);
}
);
width = 1151;
},
{
anchors = (
{
name = bottom;
position = "{353, 0}";
},
{
name = top;
position = "{585, 1320}";
}
);
layerId = "2CB18861-F91E-4469-AD22-4F8C4E906F22";
shapes = (
{
closed = 1;
nodes = (
(-20.8,0,l),
(44.8,0,l),
(88,244.8,l),
(331.2,244.8,ls),
(588.8,244.8,o),
(766.4,395.2,o),
(812.8,664,cs),
(862.4,940.8,o),
(728,1075.2,o),
(470.4,1075.2,cs),
(235.2,1075.2,l),
(278.4,1320,l),
(212.8,1320,l)
);
},
{
closed = 1;
nodes = (
(220.8,1001.6,l),
(505.6,1001.6,ls),
(702.4,1001.6,o),
(806.4,905.6,o),
(766.4,676.8,cs),
(724.8,441.6,o),
(576,318.4,o),
(379.2,318.4,cs),
(100.8,318.4,l)
);
}
);
width = 850;
}
);
rightKerningGroup = d;
unicode = 222;
},
{
glyphname = Q;
leftMetricsKey = O;
rightMetricsKey = O;
layers = (
{
anchors = (
{
name = bottom;
position = "{663, 0}";
},
{
name = top;
position = "{895, 1320}";
}
);
guides = (
{
angle = 80.153;
position = "{1234, 179}";
}
);
layerId = "C4E47923-0598-4673-A08C-5FB6011F6DED";
shapes = (
{
closed = 1;
nodes = (
(513.6,836.8,o),
(606.4,984,o),
(808,984,cs),
(972.8,984,o),
(1084.8,872,o),
(1060.8,672,cs),
(1035.2,475.2,o),
(918.4,324.8,o),
(718.4,324.8,cs),
(500.8,324.8,o),
(459.2,521.6,o),
(486.4,668.8,c)
);
},
{
closed = 1;
nodes = (
(1316.8,4.8,l),
(1248,-14.4,o),
(1172.8,-28.8,o),
(1094.4,-38.4,c),
(886.4,-52.8,o),
(724.8,-33.6,o),
(548.8,96,c),
(723.2,-6.4,o),
(948.8,8,o),
(1129.6,107.2,cs),
(1288,193.6,o),
(1422.4,395.2,o),
(1465.6,644.8,cs),
(1540.8,1065.6,o),
(1254.4,1344,o),
(862.4,1344,cs),
(438.4,1344,o),
(158.4,1040,o),
(92.8,692.8,cs),
(35.2,363.2,o),
(164.8,33.6,o),
(427.2,-169.6,cs),
(628.8,-326.4,o),
(908.8,-408,o),
(1252.8,-356.8,c)
);
}
);
width = 1465;
},
{
anchors = (
{
name = bottom;
position = "{572, 0}";
},
{
name = top;
position = "{804, 1320}";
}
);
guides = (
{
angle = 80.153;
position = "{1234, 179}";
}
);
layerId = "2CB18861-F91E-4469-AD22-4F8C4E906F22";
shapes = (
{
closed = 1;
nodes = (
(211.2,987.2,o),
(464,1289.6,o),
(796.8,1289.6,cs),
(1158.4,1289.6,o),
(1276.8,958.4,o),
(1219.2,644.8,cs),
(1164.8,339.2,o),
(937.6,32,o),
(587.2,32,cs),
(265.6,32,o),
(102.4,297.6,o),
(155.2,649.6,cs)
);
},
{
closed = 1;
nodes = (
(1123.2,-160,l),
(998.4,-196.8,o),
(867.2,-198.4,o),
(744,-174.4,c),
(584,-139.2,o),
(432,-57.6,o),
(340.8,33.6,c),
(518.4,-62.4,o),
(771.2,-38.4,o),
(937.6,72,cs),
(1129.6,198.4,o),
(1251.2,419.2,o),
(1288,636.8,cs),
(1347.2,974.4,o),
(1224,1344,o),
(796.8,1344,cs),
(446.4,1344,o),
(145.6,1051.2,o),
(84.8,665.6,cs),
(40,396.8,o),
(145.6,158.4,o),
(320,-11.2,cs),
(520,-203.2,o),
(822.4,-300.8,o),
(1110.4,-232,c)
);
}
);
width = 1287;
},
{
guides = (
{
angle = 80.;
position = "{1424, 993.6}";
},
{
angle = 323;
position = "{232, 91.2}";
}
);
layerId = "1726B15E-7FC4-497A-A54C-736A8F668412";
name = "BoldItalicItalic.Mar 3 18, 13:20";
shapes = (
{
closed = 1;
nodes = (
(377.6,878.4,o),
(515.2,1070.4,o),
(753.6,1070.4,cs),
(974.4,1070.4,o),
(1088,896,o),
(1054.4,664,cs),
(1020.8,436.8,o),
(872,241.6,o),
(630.4,241.6,cs),
(384,241.6,o),
(307.2,459.2,o),
(342.4,664,cs)
);
},
{
closed = 1;
nodes = (
(-60.8,105.6,o),
(449.6,-443.2,o),
(1161.6,-321.6,c),
(1211.2,-41.6,l),
(992,-102.4,o),
(667.2,-86.4,o),
(504,38.4,c),
(878.4,-81.6,o),
(1283.2,182.4,o),
(1364.8,643.2,cs),
(1435.2,1040,o),
(1195.2,1344,o),
(792,1344,cs),
(388.8,1344,o),
(104,1043.2,o),
(40,684.8,cs)
);
}
);
width = 1405;
},
{
guides = (
{
angle = 80;
position = "{1233.6, 179.2}";
}
);
layerId = "BA2B852E-2A24-45C6-BC43-E641B95E1E5D";
name = "LightItalicItalic.Mar 3 18, 13:27";
shapes = (
{
closed = 1;
nodes = (
(251.2,966.4,o),
(483.2,1249.6,o),
(798.4,1249.6,cs),
(1134.4,1249.6,o),
(1251.2,947.2,o),
(1198.4,648,cs),
(1147.2,356.8,o),
(934.4,70.4,o),
(604.8,70.4,cs),
(297.6,70.4,o),
(150.4,328,o),
(200,652.8,cs)
);
},
{
closed = 1;
nodes = (
(-9.6,96,o),
(545.6,-353.6,o),
(1134.4,-262.4,c),
(1153.6,-152,l),
(883.2,-192,o),
(593.6,-126.4,o),
(404.8,22.4,c),
(625.6,-52.8,o),
(814.4,-19.2,o),
(963.2,76.8,cs),
(1150.4,196.8,o),
(1273.6,416,o),
(1312,638.4,cs),
(1372.8,987.2,o),
(1228.8,1344,o),
(804.8,1344,cs),
(444.8,1344,o),
(147.2,1049.6,o),
(86.4,668.8,cs)
);
}
);
width = 1312;
}
);
leftKerningGroup = O;
rightKerningGroup = O;
unicode = 81;
},
{
glyphname = R;
layers = (
{
anchors = (
{
name = bottom;
position = "{509, 0}";
},
{
name = top;
position = "{742, 1320}";
}
);
layerId = "C4E47923-0598-4673-A08C-5FB6011F6DED";
shapes = (
{
closed = 1;
nodes = (
(-18,0,l),
(370,0,l),
(458.34,501,l),
(432.34,501,l),
(616,0,l),
(1050,0,l),
(827.63,531,l),
(959,558,o),
(1094.32,637,o),
(1141.4,904,cs),
(1182.307,1136,o),
(1021.752,1320,o),
(806.752,1320,cs),
(214.752,1320,l)
);
},
{
closed = 1;
nodes = (
(549.677,1019,l),
(616.677,1019,ls),
(678.677,1019,o),
(759.093,993,o),
(741.107,891,cs),
(722.417,785,o),
(645.537,763,o),
(568.537,763,cs),
(504.537,763,l)
);
}
);
width = 1234;
},
{
anchors = (
{
name = bottom;
position = "{408, 0}";
},
{
name = top;
position = "{641, 1320}";
}
);
layerId = "2CB18861-F91E-4469-AD22-4F8C4E906F22";
shapes = (
{
closed = 1;
nodes = (
(66,0,l),
(128,0,l),
(231,586,l),
(564,586,l),
(784,0,l),
(858,0,l),
(629,590,l),
(782,590,o),
(960,695,o),
(1006,954,cs),
(1047,1182,o),
(878,1320,o),
(695,1320,cs),
(299,1320,l)
);
},
{
closed = 1;
nodes = (
(349,1256,l),
(663,1256,ls),
(849,1256,o),
(977,1152,o),
(942,954,cs),
(902,728,o),
(779,646,o),
(556,646,cs),
(242,646,l)
);
}
);
width = 1046;
}
);
rightKerningGroup = R;
unicode = 82;
},
{
glyphname = Rcommaaccent;
layers = (
{
anchors = (
{
name = bottom;
position = "{547, 0}";
},
{
name = top;
position = "{779, 1320}";
}
);
layerId = "C4E47923-0598-4673-A08C-5FB6011F6DED";
shapes = (
{
closed = 1;
nodes = (
(421.4,-48,o),
(367,-108.8,o),
(359,-166.4,cs),
(349.4,-228.8,o),
(397.4,-286.4,o),
(472.6,-294.4,c),
(458.2,-321.6,o),
(439,-331.2,o),
(351,-377.6,c),
(415,-462.4,l),
(523.8,-436.8,o),
(672.6,-331.2,o),
(687,-235.2,cs),
(706.2,-121.6,o),
(647,-48,o),
(535,-48,cs)
);
},
{
alignment = -1;
pos = (-1,0);
ref = R;
}
);
width = 1234;
},
{
anchors = (
{
name = bottom;
position = "{370, 0}";
},
{
name = top;
position = "{602, 1320}";
}
);
layerId = "2CB18861-F91E-4469-AD22-4F8C4E906F22";
shapes = (
{
closed = 1;
nodes = (
(315.2,-83.2,o),
(264,-128,o),
(252.8,-182.4,cs),
(241.6,-236.8,o),
(297.6,-284.8,o),
(361.6,-267.2,c),
(312,-334.4,o),
(208,-392,o),
(220.8,-385.6,c),
(265.6,-417.6,l),
(331.2,-379.2,o),
(428.8,-300.8,o),
(448,-190.4,cs),
(457.6,-132.8,o),
(419.2,-83.2,o),
(360,-83.2,cs)
);
},
{
alignment = -1;
ref = R;
}
);
width = 1046;
}
);
rightKerningGroup = R;
unicode = 342;
},
{
glyphname = S;
layers = (
{
anchors = (
{
name = bottom;
position = "{474, 0}";
},
{
name = top;
position = "{707, 1320}";
}
);
layerId = "C4E47923-0598-4673-A08C-5FB6011F6DED";
shapes = (
{
closed = 1;
nodes = (
(492,1344,o),
(259.885,1213,o),
(214.392,955,cs),
(174.013,726,o),
(353.209,591,o),
(473.922,544,cs),
(629.342,484,o),
(675.466,445,o),
(667.531,400,cs),
(659.067,352,o),
(620,330,o),
(532.188,330,cs),
(407.188,330,o),
(233.821,430,o),
(210.052,454,c),
(-35.901,131,l),
(-9.544,99,o),
(174.768,-24,o),
(469.768,-24,cs),
(750,-24,o),
(1013.754,78,o),
(1067.357,382,cs),
(1103.504,587,o),
(956.658,741,o),
(790.709,798,cs),
(647.349,847,o),
(598.049,885,o),
(606.16,931,cs),
(614.624,979,o),
(666,995,o),
(740.445,995,cs),
(829.445,995,o),
(934.984,930,o),
(962.752,906,c),
(1200.414,1216,l),
(1175.293,1238,o),
(1014.983,1344,o),
(758.983,1344,cs)
);
}
);
width = 1163;
},
{
anchors = (
{
name = bottom;
position = "{410, 0}";
},
{
name = top;
position = "{643, 1320}";
}
);
layerId = "2CB18861-F91E-4469-AD22-4F8C4E906F22";
shapes = (
{
closed = 1;
nodes = (
(415,1344,o),
(261,1236,o),
(229,1053,cs),
(200,885,o),
(361,771,o),
(497,699,cs),
(497,699,o),
(838,516,o),
(804,326,cs),
(771,141,o),
(654,40,o),
(407,40,cs),
(204,40,o),
(98,131,o),
(68,158,c),
(12,99,l),
(21,90,o),
(174,-24,o),
(391,-24,cs),
(672,-24,o),
(834,103,o),
(873,322,cs),
(914,555,o),
(558,746,o),
(558,746,cs),
(435,809,o),
(272,911,o),
(297,1051,cs),
(325,1207,o),
(435,1280,o),
(642,1280,cs),
(818,1280,o),
(897,1200,o),
(922,1173,c),
(972,1229,l),
(962,1245,o),
(863,1344,o),
(650,1344,cs)
);
}
);
width = 1003;
}
);
leftKerningGroup = S;
rightKerningGroup = S;
unicode = 83;
},
{
color = 1;
glyphname = Germandbls;
leftMetricsKey = E;
layers = (
{
anchors = (
{
name = bottom;
position = "{578, 0}";
},
{
name = top;
position = "{810, 1320}";
}
);
layerId = "C4E47923-0598-4673-A08C-5FB6011F6DED";
shapes = (
{
closed = 1;
nodes = (
(496.4,-9.6,l),
(566.8,-24,o),
(643.6,-30.4,o),
(720.4,-30.4,cs),
(981.2,-30.4,o),
(1230.8,65.6,o),
(1280.4,344,cs),
(1339.6,665.6,o),
(1158.8,748.8,o),
(997.2,761.6,c),
(1230.8,992,l),
(1290,1297.6,l),
(1158.8,1337.6,o),
(1002,1350.4,o),
(894.8,1350.4,cs),
(536.4,1350.4,o),
(280.4,1222.4,o),
(227.6,939.2,cs),
(56.4,0,l),
(442,0,l),
(584.4,771.2,ls),
(613.2,920,o),
(656.4,1030.4,o),
(794,1030.4,cs),
(810,1030.4,o),
(829.2,1028.8,o),
(851.6,1027.2,c),
(650,782.4,l),
(608.4,513.6,l),
(802,529.6,o),
(904.4,475.2,o),
(893.2,382.4,cs),
(885.2,313.6,o),
(814.8,288,o),
(744.4,288,cs),
(690,288,o),
(624.4,299.2,o),
(550.8,313.6,c)
);
}
);
width = 1306;
},
{
anchors = (
{
name = bottom;
position = "{478, 0}";
},
{
name = top;
position = "{710, 1320}";
}
);
layerId = "2CB18861-F91E-4469-AD22-4F8C4E906F22";
shapes = (
{
closed = 1;
nodes = (
(320.6,25.6,l),
(400.6,-1.6,o),
(482.2,-17.6,o),
(560.6,-17.6,cs),
(789.4,-17.6,o),
(991,104,o),
(1040.6,374.4,cs),
(1095,676.8,o),
(861.4,764.8,o),
(645.4,739.2,c),
(1047,1243.2,l),
(1059.8,1308.8,l),
(931.8,1336,o),
(818.2,1352,o),
(714.2,1352,cs),
(416.6,1352,o),
(224.6,1220.8,o),
(171.8,881.6,cs),
(31,0,l),
(107.8,0,l),
(231,840,ls),
(283.8,1193.6,o),
(458.2,1296,o),
(725.4,1296,cs),
(802.2,1296,o),
(885.4,1284.8,o),
(975,1262.4,c),
(568.6,760,l),
(551,668.8,l),
(903,705.6,o),
(1010.2,606.4,o),
(970.2,380.8,cs),
(936.6,190.4,o),
(800.6,52.8,o),
(560.6,52.8,cs),
(491.8,52.8,o),
(413.4,64,o),
(327,92.8,c)
);
}
);
width = 1101;
},
{
guides = (
{
position = "{0, 531.2}";
},
{
position = "{0, 800}";
}
);
layerId = "E4F548A5-E445-4193-B71E-1E894005086A";
name = "BoldItalicItalic.Mar 3 18, 12:14";
shapes = (
{
closed = 1;
nodes = (
(377.6,0,l),
(451.2,-17.6,o),
(529.6,-27.2,o),
(606.4,-27.2,cs),
(857.6,-27.2,o),
(1096,76.8,o),
(1145.6,352,cs),
(1203.2,668.8,o),
(1020.8,764.8,o),
(843.2,771.2,c),
(1105.6,1057.6,l),
(1156.8,1300.8,l),
(1025.6,1337.6,o),
(881.6,1350.4,o),
(774.4,1350.4,cs),
(433.6,1350.4,o),
(195.2,1222.4,o),
(142.4,923.2,cs),
(-20.8,0,l),
(276.8,0,l),
(416,790.4,ls),
(452.8,996.8,o),
(524.8,1096,o),
(680,1096,cs),
(715.2,1096,o),
(756.8,1094.4,o),
(796.8,1086.4,c),
(558.4,776,l),
(520,539.2,l),
(758.4,561.6,o),
(857.6,504,o),
(838.4,374.4,cs),
(822.4,270.4,o),
(744,228.8,o),
(625.6,228.8,cs),
(566.4,228.8,o),
(497.6,240,o),
(420.8,257.6,c)
);
}
);
width = 1179;
}
);
leftKerningGroup = N;
rightKerningGroup = d;
unicode = 7838;
},
{
color = 1;
glyphname = T;
layers = (
{
anchors = (
{
name = bottom;
position = "{415, 0}";
},
{
name = center;
position = "{532, 661}";
},
{
name = top;
position = "{647, 1320}";
}
);
layerId = "C4E47923-0598-4673-A08C-5FB6011F6DED";
shapes = (
{
closed = 1;
nodes = (
(204.8,0,l),
(598.4,0,l),
(782.4,979.2,l),
(1065.6,979.2,l),
(1126.4,1320,l),
(166.4,1320,l),
(107.2,979.2,l),
(390.4,979.2,l)
);
}
);
width = 974;
},
{
anchors = (
{
name = bottom;
position = "{352, 0}";
},
{
name = center;
position = "{469, 661}";
},
{
name = top;
position = "{584, 1320}";
}
);
layerId = "2CB18861-F91E-4469-AD22-4F8C4E906F22";
shapes = (
{
closed = 1;
nodes = (
(345.6,0,l),
(409.6,0,l),
(604.8,1252.8,l),
(996.8,1252.8,l),
(1008,1320,l),
(158.4,1320,l),
(147.2,1252.8,l),
(540.8,1252.8,l)
);
}
);
width = 847;
}
);
leftKerningGroup = T;
rightKerningGroup = T;
unicode = 84;
},
{
glyphname = Tbar;
layers = (
{
anchors = (
{
name = bottom;
position = "{414, 0}";
},
{
name = center;
position = "{531, 661}";
},
{
name = top;
position = "{646, 1320}";
}
);
layerId = "C4E47923-0598-4673-A08C-5FB6011F6DED";
shapes = (
{
closed = 1;
nodes = (
(115.2,515.2,l),
(894.4,515.2,l),
(939.2,764.8,l),
(160,764.8,l)
);
},
{
alignment = -1;
pos = (-1,0);
ref = T;
}
);
width = 984;
},
{
anchors = (
{
name = bottom;
position = "{354, 0}";
},
{
name = center;
position = "{471, 661}";
},
{
name = top;
position = "{586, 1320}";
}
);
layerId = "2CB18861-F91E-4469-AD22-4F8C4E906F22";
shapes = (
{
closed = 1;
nodes = (
(139.2,649.6,l),
(814.4,649.6,l),
(824,715.2,l),
(148.8,715.2,l)
);
},
{
alignment = -1;
pos = (2,0);
ref = T;
}
);
width = 877;
}
);
leftKerningGroup = T;
rightKerningGroup = T;
unicode = 358;
},
{
glyphname = U;
layers = (
{
anchors = (
{
name = bottom;
position = "{644, 0}";
},
{
name = ogonek;
position = "{1218, 16}";
},
{
name = top;
position = "{876, 1320}";
},
{
name = topright;
position = "{1437, 1320}";
}
);
layerId = "C4E47923-0598-4673-A08C-5FB6011F6DED";
shapes = (
{
closed = 1;
nodes = (
(923.2,705.6,ls),
(872,428.8,o),
(816,329.6,o),
(696,329.6,cs),
(564.8,329.6,o),
(548.8,446.4,o),
(598.4,675.2,c),
(718.4,1320,l),
(300.8,1320,l),
(160,563.2,ls),
(99.2,232,o),
(286.4,-24,o),
(654.4,-24,cs),
(1000,-24,o),
(1251.2,206.4,o),
(1310.4,532.8,cs),
(1456,1320,l),
(1038.4,1320,l)
);
}
);
width = 1429;
},
{
anchors = (
{
name = bottom;
position = "{439, 0}";
},
{
name = ogonek;
position = "{850, 16}";
},
{
name = top;
position = "{671, 1320}";
},
{
name = topright;
position = "{1059, 1320}";
}
);
layerId = "2CB18861-F91E-4469-AD22-4F8C4E906F22";
shapes = (
{
closed = 1;
nodes = (
(876.8,444.8,ls),
(848,251.2,o),
(704,41.6,o),
(456,41.6,cs),
(240,41.6,o),
(139.2,208,o),
(172.8,443.2,cs),
(310.4,1320,l),
(249.6,1320,l),
(121.6,494.4,ls),
(72,180.8,o),
(166.4,-24,o),
(457.6,-24,cs),
(732.8,-24,o),
(894.4,166.4,o),
(947.2,492.8,cs),
(1075.2,1320,l),
(1014.4,1320,l)
);
}
);
width = 1021;
}
);
rightKerningGroup = d;
unicode = 85;
},
{
color = 1;
glyphname = V;
layers = (
{
anchors = (
{
name = bottom;
position = "{588, 0}";
},
{
name = top;
position = "{820, 1320}";
}
);
layerId = "C4E47923-0598-4673-A08C-5FB6011F6DED";
shapes = (
{
closed = 1;
nodes = (
(1499.2,1320,l),
(1046.4,1320,l),
(678.4,646.4,l),
(576,1320,l),
(140.8,1320,l),
(420.8,0,l),
(729.6,0,l)
);
}
);
width = 1320;
},
{
anchors = (
{
name = bottom;
position = "{470, 0}";
},
{
name = top;
position = "{702, 1320}";
}
);
layerId = "2CB18861-F91E-4469-AD22-4F8C4E906F22";
shapes = (
{
closed = 1;
nodes = (
(1243.2,1320,l),
(1169.6,1320,l),
(507.2,72,l),
(235.2,1320,l),
(163.2,1320,l),
(454.4,0,l),
(544,0,l)
);
}
);
width = 1086;
}
);
leftKerningGroup = V;
rightKerningGroup = V;
unicode = 86;
},
{
color = 1;
glyphname = W;
layers = (
{
anchors = (
{
name = bottom;
position = "{932, 0}";
},
{
name = top;
position = "{1164, 1320}";
}
);
layerId = "C4E47923-0598-4673-A08C-5FB6011F6DED";
shapes = (
{
closed = 1;
nodes = (
(2180.8,1320,l),
(1737.6,1320,l),
(1363.2,518.4,l),
(1356.8,518.4,l),
(1297.6,1320,l),
(1022.4,1320,l),
(659.2,518.4,l),
(651.2,518.4,l),
(579.2,1320,l),
(147.2,1320,l),
(321.6,0,l),
(756.8,0,l),
(1033.6,548.8,l),
(1086.4,0,l),
(1520,0,l)
);
}
);
width = 2007;
},
{
anchors = (
{
name = bottom;
position = "{626, 0}";
},
{
name = top;
position = "{858, 1320}";
}
);
layerId = "2CB18861-F91E-4469-AD22-4F8C4E906F22";
shapes = (
{
closed = 1;
nodes = (
(1534.4,1320,l),
(1464,1320,l),
(1054.4,147.2,l),
(1044.8,147.2,l),
(904,1320,l),
(803.2,1320,l),
(313.6,147.2,l),
(304,147.2,l),
(251.2,1320,l),
(180.8,1320,l),
(246.4,0,l),
(324.8,0,l),
(841.6,1232,l),
(982.4,0,l),
(1060.8,0,l)
);
}
);
width = 1396;
}
);
leftKerningGroup = V;
rightKerningGroup = V;
unicode = 87;
},
{
color = 1;
glyphname = X;
layers = (
{
anchors = (
{
name = bottom;
position = "{638, 0}";
},
{
name = top;
position = "{870, 1320}";
}
);
layerId = "C4E47923-0598-4673-A08C-5FB6011F6DED";
shapes = (
{
closed = 1;
nodes = (
(1552,1320,l),
(1051.2,1320,l),
(811.2,1044.8,l),
(688,1320,l),
(227.2,1320,l),
(520,710.4,l),
(-100.8,0,l),
(398.4,0,l),
(708.8,364.8,l),
(867.2,0,l),
(1374.4,0,l),
(990.4,694.4,l)
);
}
);
width = 1418;
},
{
anchors = (
{
name = bottom;
position = "{453, 0}";
},
{
name = top;
position = "{685, 1320}";
}
);
layerId = "2CB18861-F91E-4469-AD22-4F8C4E906F22";
shapes = (
{
closed = 1;
nodes = (
(1136,1320,l),
(1062.4,1320,l),
(571.2,744,l),
(262.4,1320,l),
(188.8,1320,l),
(528,710.4,l),
(-67.2,0,l),
(4.8,0,l),
(563.2,665.6,l),
(912,0,l),
(976,0,l),
(609.6,713.6,l)
);
}
);
width = 1052;
}
);
leftKerningGroup = X;
rightKerningGroup = X;
unicode = 88;
},
{
color = 1;
glyphname = Y;
layers = (
{
anchors = (
{
name = bottom;
position = "{561, 0}";
},
{
name = top;
position = "{793, 1320}";
},
{
name = topleft;
position = "{192, 1320}";
}
);
layerId = "C4E47923-0598-4673-A08C-5FB6011F6DED";
shapes = (
{
closed = 1;
nodes = (
(355.2,0,l),
(748.8,0,l),
(870.4,630.4,l),
(1459.2,1320,l),
(974.4,1320,l),
(731.2,1033.6,l),
(611.2,1320,l),
(142.4,1320,l),
(476.8,630.4,l)
);
}
);
width = 1267;
},
{
anchors = (
{
name = bottom;
position = "{381, 0}";
},
{
name = top;
position = "{613, 1320}";
},
{
name = topleft;
position = "{192, 1320}";
}
);
layerId = "2CB18861-F91E-4469-AD22-4F8C4E906F22";
shapes = (
{
closed = 1;
nodes = (
(353.6,0,l),
(417.6,0,l),
(496,494.4,l),
(1060.8,1320,l),
(990.4,1320,l),
(468.8,550.4,l),
(190.4,1320,l),
(126.4,1320,l),
(432,494.4,l)
);
}
);
width = 906;
}
);
leftKerningGroup = Y;
rightKerningGroup = Y;
unicode = 89;
},
{
color = 1;
glyphname = Z;
layers = (
{
anchors = (
{
name = bottom;
position = "{553, 0}";
},
{
name = top;
position = "{785, 1320}";
}
);
layerId = "C4E47923-0598-4673-A08C-5FB6011F6DED";
shapes = (
{
closed = 1;
nodes = (
(198.4,974.4,l),
(681.6,974.4,l),
(-81.6,0,l),
(1104,0,l),
(1163.2,344,l),
(625.6,344,l),
(1400,1320,l),
(259.2,1320,l)
);
}
);
width = 1250;
},
{
anchors = (
{
name = bottom;
position = "{386, 0}";
},
{
name = top;
position = "{618, 1320}";
}
);
layerId = "2CB18861-F91E-4469-AD22-4F8C4E906F22";
shapes = (
{
closed = 1;
nodes = (
(220.8,1264,l),
(958.4,1264,l),
(-70.4,0,l),
(838.4,0,l),
(849.6,62.4,l),
(68.8,62.4,l),
(1075.2,1320,l),
(228.8,1320,l)
);
}
);
width = 913;
}
);
leftKerningGroup = Z;
unicode = 90;
},
{
glyphname = Q.ss01;
leftMetricsKey = O;
rightMetricsKey = O;
layers = (
{
anchors = (
{
name = bottom;
position = "{659, 0}";
},
{
name = top;
position = "{891, 1320}";
}
);
layerId = "C4E47923-0598-4673-A08C-5FB6011F6DED";
shapes = (
{
closed = 1;
nodes = (
(893.4,-166.4,l),
(1306.2,-166.4,l),
(1055,460.8,l),
(642.2,460.8,l)
);
},
{
alignment = -1;
ref = O;
}
);
width = 1462;
},
{
anchors = (
{
name = bottom;
position = "{574, 0}";
},
{
name = top;
position = "{806, 1320}";
}
);
layerId = "2CB18861-F91E-4469-AD22-4F8C4E906F22";
shapes = (
{
closed = 1;
nodes = (
(936.6,-166.4,l),
(1026.2,-166.4,l),
(755.8,460.8,l),
(666.2,460.8,l)
);
},
{
alignment = -1;
ref = O;
}
);
width = 1291;
}
);
leftKerningGroup = O;
rightKerningGroup = O;
},
{
color = 5;
glyphname = a;
leftMetricsKey = o;
rightMetricsKey = n;
layers = (
{
anchors = (
{
name = bottom;
position = "{487, 0}";
},
{
name = ogonek;
position = "{937, 16}";
},
{
name = top;
position = "{631, 821}";
}
);
layerId = "C4E47923-0598-4673-A08C-5FB6011F6DED";
shapes = (
{
closed = 1;
nodes = (
(1096.6,820.8,l),
(968.6,833.6,o),
(847,843.2,o),
(731.8,843.2,cs),
(359,843.2,o),
(93.4,750.4,o),
(35.8,422.4,cs),
(-7.4,180.8,o),
(112.6,-12.8,o),
(359,-12.8,cs),
(463,-12.8,o),
(557.4,43.2,o),
(629.4,214.4,c),
(592.6,0,l),
(959,0,l)
);
},
{
closed = 1;
nodes = (
(397.4,305.6,o),
(379.8,380.8,o),
(389.4,430.4,c),
(405.4,528,o),
(501.4,571.2,o),
(607,571.2,cs),
(631,571.2,o),
(655,568,o),
(682.2,563.2,c),
(674.2,539.2,l),
(653.4,436.8,o),
(584.6,305.6,o),
(472.6,305.6,cs)
);
}
);
width = 1117;
},
{
anchors = (
{
name = bottom;
position = "{356, 0}";
},
{
name = ogonek;
position = "{703, 16}";
},
{
name = top;
position = "{500, 821}";
}
);
layerId = "2CB18861-F91E-4469-AD22-4F8C4E906F22";
shapes = (
{
closed = 1;
nodes = (
(843.2,820.8,l),
(766.4,835.2,o),
(681.6,841.6,o),
(598.4,841.6,cs),
(304,841.6,o),
(89.6,689.6,o),
(36.8,403.2,cs),
(-6.4,161.6,o),
(89.6,-24,o),
(315.2,-24,cs),
(513.6,-24,o),
(630.4,123.2,o),
(680,248,c),
(628.8,0,l),
(697.6,0,l)
);
},
{
closed = 1;
nodes = (
(153.6,43.2,o),
(72,180.8,o),
(105.6,379.2,cs),
(150.4,632,o),
(331.2,779.2,o),
(596.8,779.2,cs),
(648,779.2,o),
(705.6,779.2,o),
(764.8,768,c),
(731.2,555.2,ls),
(684.8,260.8,o),
(512,43.2,o),
(318.4,43.2,cs)
);
}
);
width = 859;
}
);
leftKerningGroup = o;
rightKerningGroup = i;
unicode = 97;
},
{
color = 1;
glyphname = ae;
leftMetricsKey = a;
rightMetricsKey = e;
layers = (
{
anchors = (
{
name = bottom;
position = "{688, 0}";
},
{
name = top;
position = "{832, 821}";
}
);
layerId = "C4E47923-0598-4673-A08C-5FB6011F6DED";
shapes = (
{
closed = 1;
nodes = (
(139.2,515.2,l),
(230.4,547.2,o),
(318.4,564.8,o),
(398.4,564.8,cs),
(468.8,564.8,o),
(601.6,558.4,o),
(596.8,537.6,cs),
(595.2,529.6,l),
(316.8,537.6,o),
(59.2,536,o),
(11.2,283.2,cs),
(-4.8,195.2,o),
(27.2,-25.6,o),
(304,-25.6,cs),
(635.2,-25.6,o),
(712,139.2,o),
(708.8,121.6,c),
(787.2,22.4,o),
(918.4,-28.8,o),
(1068.8,-28.8,cs),
(1156.8,-28.8,o),
(1254.4,-11.2,o),
(1358.4,14.4,c),
(1409.6,302.4,l),
(1336,280,o),
(1222.4,265.6,o),
(1163.2,265.6,cs),
(1072,265.6,o),
(955.2,268.8,o),
(940.8,331.2,c),
(1451.2,331.2,l),
(1544,630.4,o),
(1422.4,848,o),
(1137.6,848,cs),
(1000,848,o),
(886.4,841.6,o),
(800,748.8,c),
(747.2,844.8,o),
(587.2,848,o),
(475.2,848,cs),
(401.6,848,o),
(262.4,830.4,o),
(172.8,806.4,c)
);
},
{
closed = 1;
nodes = (
(337.6,304,o),
(342.4,329.6,o),
(563.2,331.2,c),
(561.6,323.2,l),
(544,283.2,o),
(436.8,259.2,o),
(395.2,259.2,cs),
(352,259.2,o),
(334.4,270.4,o),
(334.4,280,c)
);
},
{
closed = 1;
nodes = (
(969.6,532.8,l),
(980.8,566.4,o),
(1032,619.2,o),
(1080,619.2,c),
(1102.4,620.8,o),
(1158.4,625.6,o),
(1152,540.8,c)
);
}
);
width = 1516;
},
{
anchors = (
{
name = bottom;
position = "{653, 0}";
},
{
name = top;
position = "{797, 821}";
}
);
layerId = "2CB18861-F91E-4469-AD22-4F8C4E906F22";
shapes = (
{
closed = 1;
nodes = (
(122.2,704,l),
(213.4,747.2,o),
(328.6,771.2,o),
(421.4,771.2,cs),
(615,771.2,o),
(651.8,683.2,o),
(629.4,524.8,cs),
(621.4,473.6,l),
(456.6,475.2,o),
(59.8,516.8,o),
(10.2,256,cs),
(-33,24,o),
(130.2,-24,o),
(279,-24,cs),
(440.6,-24,o),
(579.8,67.2,o),
(632.6,187.2,c),
(674.2,24,o),
(832.6,-20.8,o),
(995.8,-20.8,cs),
(1098.2,-20.8,o),
(1215,1.6,o),
(1301.4,41.6,c),
(1311,120,l),
(1219.8,72,o),
(1120.6,44.8,o),
(965.4,44.8,cs),
(765.4,44.8,o),
(640.6,195.2,o),
(679,406.4,c),
(1349.4,411.2,l),
(1423,721.6,o),
(1309.4,849.6,o),
(1021.4,843.2,cs),
(880.6,838.4,o),
(735,740.8,o),
(691.8,630.4,c),
(688.6,744,o),
(648.6,835.2,o),
(451.8,836.8,cs),
(288.6,838.4,o),
(210.2,808,o),
(131.8,776,c)
);
},
{
closed = 1;
nodes = (
(109.4,385.6,o),
(319,427.2,o),
(618.2,403.2,c),
(607,331.2,ls),
(581.4,148.8,o),
(458.2,38.4,o),
(264.6,38.4,cs),
(168.6,38.4,o),
(56.6,89.6,o),
(83.8,241.6,cs)
);
},
{
closed = 1;
nodes = (
(706.2,483.2,l),
(741.4,662.4,o),
(872.6,774.4,o),
(1048.6,772.8,cs),
(1277.4,771.2,o),
(1312.6,627.2,o),
(1282.2,484.8,c)
);
}
);
width = 1450;
}
);
leftKerningGroup = o;
rightKerningGroup = c;
unicode = 230;
},
{
color = 5;
glyphname = b;
leftMetricsKey = l;
rightMetricsKey = o;
layers = (
{
anchors = (
{
name = bottom;
position = "{493, 0}";
},
{
name = top;
position = "{746, 1440}";
}
);
guides = (
{
position = "{0, -26}";
}
);
layerId = "C4E47923-0598-4673-A08C-5FB6011F6DED";
shapes = (
{
closed = 1;
nodes = (
(169.6,820.8,l),
(531.2,782.4,l),
(640,1377.6,l),
(268.8,1377.6,l)
);
},
{
alignment = -1;
angle = -180;
pos = (1145,821);
ref = a;
}
);
width = 1145;
},
{
anchors = (
{
name = bottom;
position = "{361, 0}";
},
{
name = top;
position = "{614, 1440}";
}
);
guides = (
{
position = "{0, -26}";
}
);
layerId = "2CB18861-F91E-4469-AD22-4F8C4E906F22";
shapes = (
{
closed = 1;
nodes = (
(168,822.4,l),
(238.4,828.8,l),
(334.4,1376,l),
(268.8,1376,l)
);
},
{
alignment = -1;
angle = -180;
pos = (878,822);
ref = a;
}
);
width = 880;
}
);
leftKerningGroup = l;
rightKerningGroup = o;
unicode = 98;
},
{
color = 5;
glyphname = c;
leftMetricsKey = o;
rightMetricsKey = "=e-7";
layers = (
{
anchors = (
{
name = bottom;
position = "{304, 0}";
},
{
name = top;
position = "{448, 821}";
}
);
layerId = "C4E47923-0598-4673-A08C-5FB6011F6DED";
shapes = (
{
closed = 1;
nodes = (
(688.6,321.6,l),
(623,302.4,o),
(573.4,294.4,o),
(530.2,294.4,cs),
(443.8,294.4,o),
(378.2,339.2,o),
(392.6,424,cs),
(407,508.8,o),
(456.6,534.4,o),
(557.4,534.4,cs),
(591,534.4,o),
(632.6,532.8,o),
(720.6,492.8,c),
(779.8,816,l),
(712.6,841.6,o),
(664.6,844.8,o),
(579.8,844.8,cs),
(291.8,844.8,o),
(88.6,691.2,o),
(39,438.4,cs),
(-12.2,174.4,o),
(155.8,-4.8,o),
(439,-12.8,cs),
(538.2,-14.4,o),
(584.6,-1.6,o),
(642.2,17.6,c)
);
}
);
width = 750;
},
{
anchors = (
{
name = bottom;
position = "{317, 0}";
},
{
name = top;
position = "{461, 821}";
}
);
layerId = "2CB18861-F91E-4469-AD22-4F8C4E906F22";
shapes = (
{
closed = 1;
nodes = (
(644.8,110.4,l),
(579.2,70.4,o),
(478.4,43.2,o),
(388.8,43.2,cs),
(177.6,43.2,o),
(70.4,196.8,o),
(112,424,cs),
(153.6,664,o),
(326.4,777.6,o),
(489.6,777.6,cs),
(600,777.6,o),
(707.2,729.6,o),
(716.8,716.8,c),
(729.6,788.8,l),
(712,808,o),
(619.2,844.8,o),
(507.2,844.8,cs),
(259.2,844.8,o),
(84.8,668.8,o),
(40,422.4,cs),
(-3.2,174.4,o),
(129.6,-27.2,o),
(390.4,-25.6,cs),
(476.8,-25.6,o),
(566.4,-3.2,o),
(632,33.6,c)
);
}
);
width = 775;
}
);
leftKerningGroup = o;
rightKerningGroup = c;
unicode = 99;
},
{
color = 5;
glyphname = d;
leftMetricsKey = o;
rightMetricsKey = l;
layers = (
{
anchors = (
{
name = bottom;
position = "{458, 0}";
},
{
name = center;
position = "{530, 411}";
},
{
name = top;
position = "{602, 821}";
},
{
name = topright;
position = "{1129, 821}";
}
);
guides = (
{
position = "{0, -26}";
}
);
layerId = "C4E47923-0598-4673-A08C-5FB6011F6DED";
shapes = (
{
closed = 1;
nodes = (
(1181.2,1376,l),
(818,1376,l),
(755.6,1001.6,l),
(730,801.6,l),
(1082,808,l)
);
},
{
alignment = -1;
ref = a;
}
);
width = 1134;
},
{
anchors = (
{
name = bottom;
position = "{412, 0}";
},
{
name = center;
position = "{484, 411}";
},
{
name = top;
position = "{556, 821}";
},
{
name = topright;
position = "{985, 821}";
}
);
guides = (
{
position = "{0, -26}";
}
);
layerId = "2CB18861-F91E-4469-AD22-4F8C4E906F22";
shapes = (
{
closed = 1;
nodes = (
(932,1376,l),
(864.8,1376,l),
(791.2,982.4,l),
(762.4,788.8,l),
(823.2,784,l)
);
},
{
alignment = -1;
ref = a;
}
);
width = 860;
}
);
leftKerningGroup = o;
rightKerningGroup = i;
unicode = 100;
},
{
color = 1;
glyphname = eth;
layers = (
{
layerId = "C4E47923-0598-4673-A08C-5FB6011F6DED";
shapes = (
{
closed = 1;
nodes = (
(96,184,o),
(230.4,-24,o),
(537.6,-24,cs),
(872,-24,o),
(1056,160,o),
(1116.8,459.2,cs),
(1171.2,718.4,o),
(1088,1022.4,o),
(888,1195.2,c),
(971.2,1270.4,l),
(848,1420.8,l),
(718.4,1316.8,l),
(518.4,1425.6,o),
(392,1443.2,o),
(424,1432,c),
(292.8,1139.2,l),
(297.6,1139.2,o),
(358.4,1128,o),
(456,1083.2,c),
(345.6,993.6,l),
(473.6,844.8,l),
(654.4,992,l),
(694.4,956.8,o),
(819.2,830.4,o),
(816,771.2,c),
(790.4,827.2,o),
(739.2,846.4,o),
(662.4,846.4,cs),
(452.8,846.4,o),
(184,691.2,o),
(139.2,435.2,cs)
);
},
{
closed = 1;
nodes = (
(483.2,457.6,o),
(545.6,547.2,o),
(630.4,547.2,cs),
(697.6,547.2,o),
(745.6,491.2,o),
(745.6,436.8,c),
(742.4,347.2,o),
(680,273.6,o),
(600,273.6,cs),
(524.8,273.6,o),
(486.4,331.2,o),
(484.8,385.6,cs)
);
}
);
width = 1174;
},
{
layerId = "2CB18861-F91E-4469-AD22-4F8C4E906F22";
shapes = (
{
closed = 1;
nodes = (
(-12.8,176,o),
(105.6,-24,o),
(356.8,-24,cs),
(628.8,-24,o),
(793.6,172.8,o),
(838.4,420.8,cs),
(883.2,678.4,o),
(832,960,o),
(542.4,1161.6,c),
(705.6,1286.4,l),
(643.2,1345.6,l),
(468.8,1187.2,l),
(456,1209.6,o),
(353.6,1254.4,o),
(268.8,1281.6,c),
(230.4,1214.4,l),
(232,1214.4,o),
(334.4,1193.6,o),
(417.6,1139.2,c),
(254.4,998.4,l),
(307.2,942.4,l),
(494.4,1112,l),
(648,1032,o),
(763.2,832,o),
(780.8,684.8,c),
(716.8,780.8,o),
(585.6,841.6,o),
(473.6,841.6,cs),
(270.4,841.6,o),
(75.2,672,o),
(30.4,419.2,cs)
);
},
{
closed = 1;
nodes = (
(147.2,657.6,o),
(321.6,782.4,o),
(494.4,782.4,cs),
(657.6,782.4,o),
(808,657.6,o),
(768,409.6,cs),
(729.6,188.8,o),
(579.2,38.4,o),
(371.2,38.4,cs),
(185.6,38.4,o),
(65.6,184,o),
(104,409.6,cs)
);
}
);
width = 890;
}
);
leftKerningGroup = o;
rightKerningGroup = o;
unicode = 240;
},
{
color = 1;
glyphname = dcroat;
layers = (
{
anchors = (
{
name = bottom;
position = "{452, 0}";
},
{
name = center;
position = "{524, 411}";
},
{
name = top;
position = "{596, 821}";
},
{
name = topright;
position = "{1123, 821}";
}
);
layerId = "C4E47923-0598-4673-A08C-5FB6011F6DED";
shapes = (
{
closed = 1;
nodes = (
(1278.4,988.8,l),
(1318.4,1217.6,l),
(678.4,1217.6,l),
(638.4,988.8,l)
);
},
{
alignment = -1;
pos = (-6,0);
ref = d;
}
);
width = 1179;
},
{
anchors = (
{
name = bottom;
position = "{427, 0}";
},
{
name = center;
position = "{499, 411}";
},
{
name = top;
position = "{571, 821}";
},
{
name = topright;
position = "{1000, 821}";
}
);
layerId = "2CB18861-F91E-4469-AD22-4F8C4E906F22";
shapes = (
{
closed = 1;
nodes = (
(1022.4,1044.8,l),
(1033.6,1108.8,l),
(612.8,1108.8,l),
(600,1044.8,l)
);
},
{
alignment = -1;
pos = (16,0);
ref = d;
}
);
width = 875;
}
);
leftKerningGroup = o;
rightKerningGroup = i;
unicode = 273;
},
{
color = 1;
glyphname = e;
leftMetricsKey = o;
layers = (
{
anchors = (
{
name = bottom;
position = "{407, 0}";
},
{
name = ogonek;
position = "{795, 16}";
},
{
name = top;
position = "{551, 821}";
}
);
layerId = "C4E47923-0598-4673-A08C-5FB6011F6DED";
shapes = (
{
closed = 1;
nodes = (
(893.4,326.4,l),
(978.2,619.2,o),
(867.8,844.8,o),
(547.8,844.8,cs),
(277.4,844.8,o),
(80.6,678.4,o),
(39,440,cs),
(-17,123.2,o),
(202.2,-27.2,o),
(496.6,-27.2,cs),
(583,-27.2,o),
(690.2,-22.4,o),
(803.8,6.4,c),
(853.4,302.4,l),
(784.6,275.2,o),
(680.6,260.8,o),
(592.6,260.8,cs),
(503,260.8,o),
(392.6,272,o),
(383,326.4,c)
);
},
{
closed = 1;
nodes = (
(416.6,521.6,l),
(434.2,593.6,o),
(485.4,598.4,o),
(530.2,598.4,cs),
(570.2,598.4,o),
(595.8,537.6,o),
(589.4,523.2,c)
);
}
);
width = 958;
},
{
anchors = (
{
name = bottom;
position = "{364, 0}";
},
{
name = ogonek;
position = "{716, 16}";
},
{
name = top;
position = "{508, 821}";
}
);
layerId = "2CB18861-F91E-4469-AD22-4F8C4E906F22";
shapes = (
{
closed = 1;
nodes = (
(772.2,412.8,l),
(844.2,684.8,o),
(749.8,844.8,o),
(487.4,844.8,cs),
(255.4,844.8,o),
(82.6,662.4,o),
(41,427.2,cs),
(-7,153.6,o),
(129,-19.2,o),
(412.2,-19.2,cs),
(524.2,-19.2,o),
(641,8,o),
(725.8,52.8,c),
(735.4,126.4,l),
(641,81.6,o),
(524.2,49.6,o),
(418.6,49.6,cs),
(185,49.6,o),
(58.6,187.2,o),
(108.2,411.2,c)
);
},
{
closed = 1;
nodes = (
(129,483.2,l),
(143.4,555.2,o),
(237.8,776,o),
(481,776,cs),
(653.8,776,o),
(743.4,684.8,o),
(711.4,489.6,c)
);
}
);
width = 872;
},
{
anchors = (
{
name = bottom;
position = "{395, 0}";
},
{
name = ogonek;
position = "{773, 16}";
},
{
name = top;
position = "{539, 821}";
}
);
layerId = "0634A7EB-A080-4970-A7DF-64B2082363A4";
name = "BoldItalicItalic.Jun 30 18, 13:38";
shapes = (
{
closed = 1;
nodes = (
(859.2,350.4,l),
(940.8,638.4,o),
(835.2,844.8,o),
(531.2,844.8,cs),
(272,844.8,o),
(81.6,673.6,o),
(40,436.8,cs),
(-14.4,131.2,o),
(182.4,-25.6,o),
(473.6,-25.6,cs),
(566.4,-25.6,o),
(676.8,-14.4,o),
(782.4,19.2,c),
(816,254.4,l),
(739.2,222.4,o),
(636.8,201.6,o),
(544,201.6,cs),
(414.4,201.6,o),
(299.2,248,o),
(305.6,350.4,c)
);
},
{
closed = 1;
nodes = (
(336,526.4,l),
(352,598.4,o),
(416,664,o),
(516.8,664,cs),
(593.6,664,o),
(638.4,595.2,o),
(624,529.6,c)
);
}
);
width = 934;
}
);
leftKerningGroup = o;
rightKerningGroup = c;
unicode = 101;
},
{
glyphname = eogonek;
layers = (
{
anchors = (
{
name = top;
position = "{562, 821}";
}
);
layerId = "C4E47923-0598-4673-A08C-5FB6011F6DED";
shapes = (
{
closed = 1;
nodes = (
(724.8,-244.8,l),
(624,-278.4,o),
(584,-251.2,o),
(576,-204.8,c),
(569.6,-126.4,o),
(657.6,-12.8,o),
(804.8,1.6,c),
(752,48,l),
(438.4,-14.4,o),
(316.8,-161.6,o),
(326.4,-288,cs),
(337.6,-424,o),
(507.2,-520,o),
(747.2,-387.2,c)
);
},
{
alignment = -1;
pos = (17,0);
ref = e;
}
);
width = 981;
},
{
anchors = (
{
name = top;
position = "{480, 821}";
}
);
layerId = "2CB18861-F91E-4469-AD22-4F8C4E906F22";
shapes = (
{
closed = 1;
nodes = (
(659.2,-316.8,l),
(499.2,-382.4,o),
(430.4,-313.6,o),
(451.2,-220.8,c),
(465.6,-142.4,o),
(585.6,-11.2,o),
(724.8,51.2,c),
(644.8,35.2,l),
(496,-22.4,o),
(396.8,-134.4,o),
(372.8,-238.4,cs),
(342.4,-372.8,o),
(441.6,-475.2,o),
(667.2,-379.2,c)
);
},
{
alignment = -1;
pos = (12,0);
ref = e;
}
);
width = 815;
}
);
leftKerningGroup = o;
rightKerningGroup = c;
unicode = 281;
},
{
color = 1;
glyphname = f;
layers = (
{
anchors = (
{
name = bottom;
position = "{238, 0}";
},
{
name = top;
position = "{491, 1440}";
}
);
layerId = "C4E47923-0598-4673-A08C-5FB6011F6DED";
shapes = (
{
closed = 1;
nodes = (
(36.8,544,l),
(152,544,l),
(-17.6,-416,l),
(340.8,-416,l),
(510.4,544,l),
(651.2,544,l),
(697.6,820.8,l),
(556.8,820.8,l),
(590.4,1004.8,ls),
(600,1051.2,o),
(617.6,1075.2,o),
(641.6,1083.2,c),
(662.4,1092.8,o),
(700.8,1097.6,o),
(755.2,1078.4,c),
(809.6,1392,l),
(686.4,1408,o),
(572.8,1404.8,o),
(464,1350.4,cs),
(347.2,1291.2,o),
(268.8,1180.8,o),
(243.2,1032,cs),
(206.4,820.8,l),
(84.8,820.8,l)
);
}
);
width = 617;
},
{
anchors = (
{
name = bottom;
position = "{188, 0}";
},
{
name = top;
position = "{441, 1440}";
}
);
layerId = "2CB18861-F91E-4469-AD22-4F8C4E906F22";
shapes = (
{
closed = 1;
nodes = (
(60.8,758.4,l),
(252.8,758.4,l),
(48,-416,l),
(116.8,-416,l),
(321.6,758.4,l),
(579.2,758.4,l),
(590.4,820.8,l),
(332.8,820.8,l),
(361.6,980.8,ls),
(384,1116.8,o),
(420.8,1230.4,o),
(488,1291.2,c),
(550.4,1344,o),
(609.6,1340.8,o),
(699.2,1329.6,c),
(712,1392,l),
(630.4,1408,o),
(534.4,1400,o),
(462.4,1345.6,cs),
(377.6,1280,o),
(324.8,1164.8,o),
(300.8,1030.4,cs),
(264,820.8,l),
(72,820.8,l)
);
}
);
width = 520;
}
);
leftKerningGroup = f;
rightKerningGroup = f;
unicode = 102;
},
{
color = 1;
glyphname = g;
leftMetricsKey = o;
layers = (
{
anchors = (
{
name = bottom;
position = "{389, -560}";
},
{
name = top;
position = "{632, 821}";
}
);
guides = (
{
angle = 84;
position = "{793, -66}";
}
);
layerId = "C4E47923-0598-4673-A08C-5FB6011F6DED";
shapes = (
{
closed = 1;
nodes = (
(579.6,0,l),
(555.6,-115.2,o),
(429.2,-158.4,o),
(331.6,-145.6,c),
(186,-137.6,o),
(86.8,-96,o),
(32.4,-56,c),
(-14,-364.8,l),
(24.4,-390.4,o),
(80.4,-432,o),
(269.2,-459.2,c),
(635.6,-484.8,o),
(888.4,-332.8,o),
(946,0,c)
);
},
{
alignment = -1;
ref = a;
}
);
width = 1135;
},
{
anchors = (
{
name = bottom;
position = "{243, -560}";
},
{
name = top;
position = "{486, 821}";
}
);
guides = (
{
angle = 84;
position = "{794, -66}";
}
);
layerId = "2CB18861-F91E-4469-AD22-4F8C4E906F22";
shapes = (
{
closed = 1;
nodes = (
(616.8,0,l),
(588,-161.6,o),
(535.2,-273.6,o),
(399.2,-334.4,c),
(288.8,-387.2,o),
(108,-377.6,o),
(-28,-312,c),
(-39.2,-388.8,l),
(124,-456,o),
(320.8,-459.2,o),
(460,-393.6,c),
(576.8,-324.8,o),
(652,-192,o),
(685.6,0,c)
);
},
{
alignment = -1;
ref = a;
}
);
width = 842;
}
);
leftKerningGroup = o;
rightKerningGroup = j;
unicode = 103;
},
{
color = 5;
glyphname = h;
leftMetricsKey = l;
rightMetricsKey = n;
layers = (
{
anchors = (
{
name = bottom;
position = "{505, 0}";
},
{
name = center;
position = "{632, 720}";
},
{
name = top;
position = "{758, 1440}";
}
);
layerId = "C4E47923-0598-4673-A08C-5FB6011F6DED";
shapes = (
{
closed = 1;
nodes = (
(523.2,820.8,l),
(620.8,1376,l),
(267.2,1376,l),
(171.2,825.6,l)
);
},
{
alignment = -1;
pos = (-1,0);
ref = n;
}
);
width = 1153;
},
{
anchors = (
{
name = bottom;
position = "{353, 0}";
},
{
name = center;
position = "{479, 720}";
},
{
name = top;
position = "{606, 1440}";
}
);
layerId = "2CB18861-F91E-4469-AD22-4F8C4E906F22";
shapes = (
{
closed = 1;
nodes = (
(238.4,820.8,l),
(339.2,1376,l),
(265.6,1376,l),
(166.4,809.6,l)
);
},
{
alignment = -1;
pos = (-9,0);
ref = n;
}
);
width = 847;
}
);
leftKerningGroup = l;
rightKerningGroup = b;
unicode = 104;
},
{
color = 1;
glyphname = hbar;
layers = (
{
anchors = (
{
name = bottom;
position = "{514, 0}";
},
{
name = center;
position = "{641, 720}";
},
{
name = top;
position = "{767, 1440}";
}
);
layerId = "C4E47923-0598-4673-A08C-5FB6011F6DED";
shapes = (
{
closed = 1;
nodes = (
(764.8,988.8,l),
(803.2,1217.6,l),
(163.2,1217.6,l),
(123.2,988.8,l)
);
},
{
alignment = -1;
pos = (9,0);
ref = h;
}
);
width = 1142;
},
{
anchors = (
{
name = bottom;
position = "{329, 0}";
},
{
name = center;
position = "{455, 720}";
},
{
name = top;
position = "{582, 1440}";
}
);
layerId = "2CB18861-F91E-4469-AD22-4F8C4E906F22";
shapes = (
{
closed = 1;
nodes = (
(492.8,1044.8,l),
(505.6,1108.8,l),
(83.2,1108.8,l),
(72,1044.8,l)
);
},
{
alignment = -1;
pos = (-23,0);
ref = h;
}
);
width = 843;
}
);
leftKerningGroup = l;
unicode = 295;
},
{
color = 1;
glyphname = i;
layers = (
{
anchors = (
{
name = bottom;
position = "{215, 0}";
}
);
layerId = "C4E47923-0598-4673-A08C-5FB6011F6DED";
shapes = (
{
closed = 1;
nodes = (
(396.8,0,l),
(540.8,820.8,l),
(172.8,820.8,l),
(28.8,0,l)
);
},
{
closed = 1;
nodes = (
(504,913.6,o),
(595.2,987.2,o),
(619.2,1086.4,c),
(648,1216,o),
(556.8,1328,o),
(428.8,1328,cs),
(328,1328,o),
(235.2,1254.4,o),
(212.8,1155.2,c),
(187.2,1025.6,o),
(275.2,913.6,o),
(404.8,913.6,cs)
);
}
);
width = 572;
},
{
anchors = (
{
name = bottom;
position = "{59, 0}";
}
);
layerId = "2CB18861-F91E-4469-AD22-4F8C4E906F22";
shapes = (
{
closed = 1;
nodes = (
(94.4,0,l),
(238.4,820.8,l),
(171.2,820.8,l),
(27.2,0,l)
);
},
{
closed = 1;
nodes = (
(315.2,1192,o),
(355.2,1230.4,o),
(352,1272,c),
(347.2,1307.2,o),
(321.6,1328,o),
(288,1328,cs),
(246.4,1328,o),
(208,1289.6,o),
(211.2,1248,cs),
(214.4,1214.4,o),
(240,1192,o),
(273.6,1192,cs)
);
}
);
width = 263;
}
);
leftKerningGroup = i;
rightKerningGroup = i;
unicode = 105;
},
{
color = 1;
glyphname = idotless;
layers = (
{
anchors = (
{
name = bottom;
position = "{176, 0}";
},
{
name = ogonek;
position = "{376, 16}";
},
{
name = top;
position = "{320, 821}";
}
);
layerId = "C4E47923-0598-4673-A08C-5FB6011F6DED";
shapes = (
{
closed = 1;
nodes = (
(360,0,l),
(504,820.8,l),
(136,820.8,l),
(-8,0,l)
);
}
);
width = 495;
},
{
anchors = (
{
name = bottom;
position = "{62, 0}";
},
{
name = ogonek;
position = "{171, 16}";
},
{
name = top;
position = "{206, 821}";
}
);
layerId = "2CB18861-F91E-4469-AD22-4F8C4E906F22";
shapes = (
{
closed = 1;
nodes = (
(94.4,0,l),
(238.4,820.8,l),
(171.2,820.8,l),
(27.2,0,l)
);
}
);
width = 266;
}
);
leftKerningGroup = i;
rightKerningGroup = i;
unicode = 305;
},
{
color = 1;
glyphname = j;
layers = (
{
layerId = "C4E47923-0598-4673-A08C-5FB6011F6DED";
shapes = (
{
closed = 1;
nodes = (
(366.4,-116.8,ls),
(345.6,-235.2,o),
(225.6,-419.2,o),
(-19.2,-433.6,cs),
(-108.8,-438.4,o),
(-187.2,-430.4,o),
(-217.6,-430.4,c),
(-169.6,-142.4,l),
(-145.6,-139.2,o),
(-92.8,-140.8,o),
(-48,-136,c),
(-41.6,-131.2,o),
(-1.6,-116.8,o),
(1.6,-96,cs),
(163.2,820.8,l),
(531.2,820.8,l)
);
},
{
closed = 1;
nodes = (
(328,1328,o),
(224,1244.8,o),
(198.4,1137.6,cs),
(171.2,1016,o),
(254.4,913.6,o),
(374.4,913.6,cs),
(486.4,913.6,o),
(587.2,996.8,o),
(611.2,1105.6,c),
(635.2,1225.6,o),
(556.8,1328,o),
(433.6,1328,cs)
);
}
);
width = 555;
},
{
layerId = "2CB18861-F91E-4469-AD22-4F8C4E906F22";
shapes = (
{
closed = 1;
nodes = (
(92.8,-118.4,ls),
(56,-331.2,o),
(-6.4,-443.2,o),
(-195.2,-441.6,c),
(-216,-440,o),
(-220.8,-441.6,o),
(-262.4,-432,c),
(-244.8,-366.4,l),
(-201.6,-374.4,o),
(-193.6,-372.8,o),
(-166.4,-374.4,c),
(-28.8,-374.4,o),
(-3.2,-292.8,o),
(35.2,-72,cs),
(190.4,820.8,l),
(259.2,820.8,l)
);
},
{
closed = 1;
nodes = (
(265.6,1328,o),
(228.8,1289.6,o),
(233.6,1246.4,cs),
(236.8,1212.8,o),
(265.6,1192,o),
(299.2,1192,cs),
(340.8,1192,o),
(376,1232,o),
(372.8,1272,cs),
(369.6,1305.6,o),
(342.4,1328,o),
(308.8,1328,cs)
);
}
);
width = 295;
},
{
layerId = "9322A849-DE0B-4D00-981D-157EE215E94E";
name = "LightItalicItalic.Mar 3 18, 14:17";
shapes = (
{
closed = 1;
nodes = (
(110.4,-118.4,ls),
(67.2,-366.4,o),
(-115.2,-489.6,o),
(-275.2,-432,c),
(-257.6,-344,l),
(-112,-377.6,o),
(-22.4,-270.4,o),
(11.2,-75.2,cs),
(168,820.8,l),
(276.8,820.8,l)
);
},
{
closed = 1;
nodes = (
(254.4,1328,o),
(209.6,1283.2,o),
(209.6,1232,cs),
(209.6,1187.2,o),
(244.8,1155.2,o),
(289.6,1155.2,cs),
(340.8,1155.2,o),
(385.6,1200,o),
(385.6,1249.6,cs),
(385.6,1294.4,o),
(352,1328,o),
(305.6,1328,cs)
);
}
);
width = 301;
}
);
rightKerningGroup = j;
unicode = 106;
},
{
color = 1;
glyphname = k;
leftMetricsKey = l;
layers = (
{
anchors = (
{
name = bottom;
position = "{468, 0}";
},
{
name = top;
position = "{721, 1440}";
}
);
layerId = "C4E47923-0598-4673-A08C-5FB6011F6DED";
shapes = (
{
closed = 1;
nodes = (
(392,0,l),
(438.4,246.4,l),
(515.2,257.6,l),
(609.6,0,l),
(1036.8,0,l),
(819.2,377.6,l),
(888,408,o),
(952,464,o),
(1000,550.4,c),
(1035.2,617.6,o),
(1065.6,702.4,o),
(1083.2,820.8,c),
(726.4,816,l),
(718.4,752,o),
(689.6,686.4,o),
(657.6,638.4,c),
(609.6,580.8,o),
(548.8,542.4,o),
(475.2,544,c),
(625.6,1376,l),
(267.2,1376,l),
(25.6,0,l)
);
}
);
width = 1081;
},
{
anchors = (
{
name = bottom;
position = "{304, 0}";
},
{
name = top;
position = "{557, 1440}";
}
);
layerId = "2CB18861-F91E-4469-AD22-4F8C4E906F22";
shapes = (
{
closed = 1;
nodes = (
(94.4,0,l),
(142.4,281.6,l),
(390.4,366.4,l),
(593.6,0,l),
(686.4,0,l),
(438.4,408,l),
(529.6,452.8,o),
(601.6,508.8,o),
(652.8,574.4,cs),
(710.4,648,o),
(748.8,732.8,o),
(763.2,820.8,c),
(692.8,820.8,l),
(668.8,691.2,o),
(604.8,590.4,o),
(492.8,513.6,cs),
(404.8,451.2,o),
(288,401.6,o),
(163.2,358.4,c),
(336,1376,l),
(265.6,1376,l),
(25.6,0,l)
);
}
);
width = 753;
}
);
leftKerningGroup = l;
rightKerningGroup = c;
unicode = 107;
},
{
color = 1;
glyphname = kcommaaccent;
layers = (
{
anchors = (
{
name = bottom;
position = "{459, 0}";
},
{
name = top;
position = "{712, 1440}";
}
);
layerId = "C4E47923-0598-4673-A08C-5FB6011F6DED";
shapes = (
{
closed = 1;
nodes = (
(368,-48,o),
(315.2,-108.8,o),
(305.6,-166.4,c),
(297.6,-228.8,o),
(345.6,-286.4,o),
(419.2,-294.4,c),
(404.8,-321.6,o),
(387.2,-331.2,o),
(299.2,-377.6,c),
(363.2,-462.4,l),
(470.4,-436.8,o),
(620.8,-331.2,o),
(635.2,-235.2,cs),
(652.8,-121.6,o),
(595.2,-48,o),
(481.6,-48,cs)
);
},
{
alignment = -1;
pos = (-9,0);
ref = k;
}
);
width = 1106;
},
{
anchors = (
{
name = bottom;
position = "{296, 0}";
},
{
name = top;
position = "{549, 1440}";
}
);
layerId = "2CB18861-F91E-4469-AD22-4F8C4E906F22";
shapes = (
{
closed = 1;
nodes = (
(225.6,-83.2,o),
(174.4,-128,o),
(163.2,-182.4,cs),
(152,-236.8,o),
(204.8,-284.8,o),
(268.8,-267.2,c),
(222.4,-334.4,o),
(115.2,-392,o),
(129.6,-385.6,c),
(177.6,-417.6,l),
(241.6,-379.2,o),
(339.2,-300.8,o),
(358.4,-190.4,cs),
(368,-132.8,o),
(329.6,-83.2,o),
(270.4,-83.2,cs)
);
},
{
alignment = -1;
pos = (-8,0);
ref = k;
}
);
width = 691;
}
);
leftKerningGroup = l;
rightKerningGroup = c;
unicode = 311;
},
{
color = 1;
glyphname = l;
layers = (
{
anchors = (
{
name = bottom;
position = "{215, 0}";
},
{
name = center;
position = "{341, 720}";
},
{
name = top;
position = "{466, 1440}";
},
{
name = topright;
position = "{719, 1440}";
}
);
layerId = "C4E47923-0598-4673-A08C-5FB6011F6DED";
shapes = (
{
closed = 1;
nodes = (
(635.2,1376,l),
(267.2,1376,l),
(27.2,0,l),
(395.2,0,l)
);
}
);
width = 571;
},
{
anchors = (
{
name = bottom;
position = "{56, 0}";
},
{
name = center;
position = "{182, 720}";
},
{
name = top;
position = "{309, 1440}";
},
{
name = topright;
position = "{404, 1440}";
}
);
layerId = "2CB18861-F91E-4469-AD22-4F8C4E906F22";
shapes = (
{
closed = 1;
nodes = (
(334.4,1376,l),
(265.6,1376,l),
(25.6,0,l),
(94.4,0,l)
);
}
);
width = 256;
}
);
leftKerningGroup = l;
rightKerningGroup = i;
unicode = 108;
},
{
color = 1;
glyphname = lcommaaccent;
layers = (
{
anchors = (
{
name = bottom;
position = "{215, 0}";
},
{
name = center;
position = "{341, 720}";
},
{
name = top;
position = "{466, 1440}";
},
{
name = topright;
position = "{719, 1440}";
}
);
layerId = "C4E47923-0598-4673-A08C-5FB6011F6DED";
shapes = (
{
closed = 1;
nodes = (
(83.2,-48,o),
(28.8,-108.8,o),
(20.8,-166.4,cs),
(11.2,-228.8,o),
(59.2,-286.4,o),
(134.4,-294.4,c),
(120,-321.6,o),
(102.4,-331.2,o),
(14.4,-377.6,c),
(78.4,-462.4,l),
(185.6,-436.8,o),
(334.4,-331.2,o),
(348.8,-235.2,cs),
(368,-121.6,o),
(310.4,-48,o),
(196.8,-48,cs)
);
},
{
alignment = -1;
ref = l;
}
);
width = 571;
},
{
anchors = (
{
name = bottom;
position = "{56, 0}";
},
{
name = center;
position = "{182, 720}";
},
{
name = top;
position = "{309, 1440}";
},
{
name = topright;
position = "{404, 1440}";
}
);
layerId = "2CB18861-F91E-4469-AD22-4F8C4E906F22";
shapes = (
{
closed = 1;
nodes = (
(-8,-83.2,o),
(-57.6,-128,o),
(-70.4,-182.4,cs),
(-81.6,-236.8,o),
(-27.2,-284.8,o),
(36.8,-267.2,c),
(-11.2,-334.4,o),
(-116.8,-392,o),
(-104,-385.6,c),
(-56,-417.6,l),
(8,-379.2,o),
(105.6,-300.8,o),
(124.8,-190.4,cs),
(136,-132.8,o),
(96,-83.2,o),
(38.4,-83.2,cs)
);
},
{
alignment = -1;
ref = l;
}
);
width = 256;
}
);
leftKerningGroup = l;
rightKerningGroup = i;
unicode = 316;
},
{
color = 1;
glyphname = lslash;
layers = (
{
layerId = "C4E47923-0598-4673-A08C-5FB6011F6DED";
shapes = (
{
closed = 1;
nodes = (
(464,0,l),
(598.4,740.8,l),
(737.6,838.4,l),
(785.6,1137.6,l),
(643.2,1038.4,l),
(705.6,1376,l),
(339.2,1376,l),
(227.2,750.4,l),
(72,644.8,l),
(28.8,347.2,l),
(179.2,452.8,l),
(97.6,0,l)
);
}
);
width = 706;
},
{
layerId = "2CB18861-F91E-4469-AD22-4F8C4E906F22";
shapes = (
{
closed = 1;
nodes = (
(112,0,l),
(228.8,660.8,l),
(361.6,752,l),
(377.6,860.8,l),
(246.4,771.2,l),
(353.6,1376,l),
(283.2,1376,l),
(166.4,715.2,l),
(64,644.8,l),
(48,536,l),
(148.8,606.4,l),
(41.6,0,l)
);
}
);
width = 295;
}
);
leftKerningGroup = l;
rightKerningGroup = i;
unicode = 322;
},
{
color = 5;
glyphname = m;
leftMetricsKey = "=i+19";
rightMetricsKey = n;
layers = (
{
anchors = (
{
name = bottom;
position = "{762, 0}";
},
{
name = top;
position = "{906, 821}";
}
);
guides = (
{
position = "{0, 363}";
}
);
layerId = "C4E47923-0598-4673-A08C-5FB6011F6DED";
shapes = (
{
closed = 1;
nodes = (
(28.8,0,l),
(398.4,0,l),
(427.2,166.4,ls),
(459.2,358.4,o),
(508.8,516.8,o),
(630.4,516.8,cs),
(681.6,516.8,o),
(686.4,465.6,o),
(673.6,400,cs),
(603.2,0,l),
(945.6,0,l),
(976,166.4,ls),
(1022.4,425.6,o),
(1080,518.4,o),
(1176,516.8,c),
(1246.4,518.4,o),
(1225.6,433.6,o),
(1206.4,323.2,cs),
(1153.6,0,l),
(1520,0,l),
(1612.8,508.8,ls),
(1659.2,776,o),
(1531.2,838.4,o),
(1369.6,840,cs),
(1227.2,843.2,o),
(1123.2,780.8,o),
(1028.8,596.8,c),
(1030.4,779.2,o),
(980.8,843.2,o),
(822.4,840,cs),
(700.8,838.4,o),
(616,800,o),
(497.6,608,c),
(526.4,820.8,l),
(172.8,820.8,l)
);
}
);
width = 1682;
},
{
anchors = (
{
name = bottom;
position = "{582, 0}";
},
{
name = top;
position = "{726, 821}";
}
);
guides = (
{
position = "{0, 363}";
}
);
layerId = "2CB18861-F91E-4469-AD22-4F8C4E906F22";
shapes = (
{
closed = 1;
nodes = (
(8.8,0,l),
(77.6,0,l),
(146.4,380.8,ls),
(191.2,624,o),
(378.4,782.4,o),
(514.4,782.4,cs),
(623.2,782.4,o),
(668,715.2,o),
(647.2,593.6,cs),
(544.8,0,l),
(618.4,0,l),
(684,377.6,ls),
(725.6,611.2,o),
(917.6,780.8,o),
(1055.2,782.4,c),
(1168.8,780.8,o),
(1213.6,715.2,o),
(1194.4,604.8,cs),
(1085.6,0,l),
(1154.4,0,l),
(1255.2,577.6,ls),
(1280.8,737.6,o),
(1234.4,846.4,o),
(1050.4,844.8,cs),
(925.6,844.8,o),
(781.6,747.2,o),
(709.6,595.2,c),
(752.8,734.4,o),
(679.2,844.8,o),
(512.8,844.8,cs),
(381.6,846.4,o),
(239.2,755.2,o),
(165.6,568,c),
(224.8,820.8,l),
(152.8,820.8,l)
);
}
);
width = 1315;
},
{
anchors = (
{
name = bottom;
position = "{582, 0}";
},
{
name = top;
position = "{726, 821}";
}
);
guides = (
{
position = "{0, 363}";
}
);
layerId = "6E1C3280-EF69-4FA0-83CE-080706AA3756";
name = "#instance";
shapes = (
{
closed = 1;
nodes = (
(8.8,0,l),
(77.6,0,l),
(146.4,380.8,ls),
(191.2,624,o),
(378.4,782.4,o),
(514.4,782.4,cs),
(623.2,782.4,o),
(668,715.2,o),
(647.2,593.6,cs),
(544.8,0,l),
(618.4,0,l),
(684,377.6,ls),
(725.6,611.2,o),
(917.6,780.8,o),
(1055.2,782.4,c),
(1168.8,780.8,o),
(1213.6,715.2,o),
(1194.4,604.8,cs),
(1085.6,0,l),
(1154.4,0,l),
(1255.2,577.6,l),
(1280.8,737.6,o),
(1234.4,846.4,o),
(1050.4,844.8,cs),
(925.6,844.8,o),
(781.6,747.2,o),
(709.6,595.2,c),
(752.8,734.4,o),
(679.2,844.8,o),
(512.8,844.8,cs),
(381.6,846.4,o),
(239.2,755.2,o),
(165.6,568,c),
(224.8,820.8,l),
(152.8,820.8,l)
);
}
);
width = 1314;
}
);
leftKerningGroup = i;
rightKerningGroup = n;
unicode = 109;
},
{
color = 1;
glyphname = n;
layers = (
{
anchors = (
{
name = bottom;
position = "{506, 0}";
},
{
name = top;
position = "{650, 821}";
}
);
layerId = "C4E47923-0598-4673-A08C-5FB6011F6DED";
shapes = (
{
closed = 1;
nodes = (
(396.8,0,l),
(425.6,164.8,ls),
(462.4,387.2,o),
(515.2,516.8,o),
(628.8,516.8,cs),
(712,516.8,o),
(700.8,446.4,o),
(683.2,342.4,cs),
(624,0,l),
(993.6,0,l),
(1091.2,542.4,ls),
(1134.4,785.6,o),
(971.2,838.4,o),
(849.6,840,cs),
(700.8,843.2,o),
(598.4,827.2,o),
(491.2,598.4,c),
(524.8,820.8,l),
(171.2,820.8,l),
(27.2,0,l)
);
}
);
width = 1154;
},
{
anchors = (
{
name = bottom;
position = "{356, 0}";
},
{
name = top;
position = "{500, 821}";
}
);
layerId = "2CB18861-F91E-4469-AD22-4F8C4E906F22";
shapes = (
{
closed = 1;
nodes = (
(100.8,0,l),
(171.2,388.8,ls),
(200,552,o),
(379.2,784,o),
(595.2,784,cs),
(736,784,o),
(750.4,686.4,o),
(728,558.4,cs),
(628.8,0,l),
(696,0,l),
(782.4,491.2,ls),
(822.4,713.6,o),
(804.8,846.4,o),
(576,844.8,cs),
(456,844.8,o),
(302.4,800,o),
(201.6,590.4,c),
(248,820.8,l),
(176,820.8,l),
(32,0,l)
);
}
);
width = 856;
}
);
leftKerningGroup = n;
rightKerningGroup = n;
unicode = 110;
},
{
color = 1;
glyphname = ncommaaccent;
layers = (
{
anchors = (
{
name = bottom;
position = "{506, 0}";
},
{
name = top;
position = "{650, 821}";
}
);
layerId = "C4E47923-0598-4673-A08C-5FB6011F6DED";
shapes = (
{
closed = 1;
nodes = (
(372.8,-48,o),
(318.4,-108.8,o),
(310.4,-166.4,cs),
(302.4,-228.8,o),
(348.8,-286.4,o),
(424,-294.4,c),
(411.2,-321.6,o),
(392,-331.2,o),
(304,-377.6,c),
(368,-462.4,l),
(475.2,-436.8,o),
(625.6,-331.2,o),
(640,-235.2,cs),
(657.6,-121.6,o),
(600,-48,o),
(486.4,-48,cs)
);
},
{
alignment = -1;
ref = n;
}
);
width = 1161;
},
{
anchors = (
{
name = bottom;
position = "{356, 0}";
},
{
name = top;
position = "{500, 821}";
}
);
layerId = "2CB18861-F91E-4469-AD22-4F8C4E906F22";
shapes = (
{
closed = 1;
nodes = (
(292.8,-83.2,o),
(243.2,-128,o),
(228.8,-182.4,cs),
(216,-236.8,o),
(273.6,-284.8,o),
(337.6,-267.2,c),
(288,-334.4,o),
(184,-392,o),
(196.8,-385.6,c),
(244.8,-417.6,l),
(308.8,-379.2,o),
(406.4,-300.8,o),
(425.6,-190.4,cs),
(436.8,-132.8,o),
(396.8,-83.2,o),
(339.2,-83.2,cs)
);
},
{
alignment = -1;
ref = n;
}
);
width = 839;
}
);
leftKerningGroup = i;
rightKerningGroup = n;
unicode = 326;
},
{
color = 1;
glyphname = eng;
layers = (
{
anchors = (
{
name = bottom;
position = "{506, 0}";
},
{
name = top;
position = "{650, 821}";
}
);
layerId = "C4E47923-0598-4673-A08C-5FB6011F6DED";
shapes = (
{
closed = 1;
nodes = (
(979.2,-112,ls),
(955.2,-249.6,o),
(825.6,-440,o),
(561.6,-440,cs),
(416,-440,o),
(376,-411.2,o),
(323.2,-387.2,c),
(488,-86.4,l),
(475.2,-78.4,o),
(532.8,-108.8,o),
(580.8,-108.8,cs),
(584,-108.8,o),
(609.6,-128,o),
(616,-86.4,c),
(632,0,l),
(1000,0,l)
);
},
{
alignment = -1;
ref = n;
}
);
width = 1143;
},
{
anchors = (
{
name = bottom;
position = "{356, 0}";
},
{
name = top;
position = "{500, 821}";
}
);
layerId = "2CB18861-F91E-4469-AD22-4F8C4E906F22";
shapes = (
{
closed = 1;
nodes = (
(654.4,-124.8,ls),
(624,-289.6,o),
(563.2,-440,o),
(401.6,-440,cs),
(329.6,-440,o),
(267.2,-409.6,o),
(272,-409.6,c),
(318.4,-347.2,l),
(340.8,-368,o),
(374.4,-376,o),
(409.6,-376,cs),
(537.6,-376,o),
(569.6,-240,o),
(596.8,-73.6,cs),
(609.6,0,l),
(676.8,0,l)
);
},
{
alignment = -1;
ref = n;
}
);
width = 842;
}
);
leftKerningGroup = i;
rightKerningGroup = n;
unicode = 331;
},
{
color = 1;
glyphname = o;
layers = (
{
anchors = (
{
name = bottom;
position = "{444, 0}";
},
{
name = center;
position = "{516, 411}";
},
{
name = ogonek;
position = "{671, 16}";
},
{
name = top;
position = "{588, 821}";
},
{
name = topright;
position = "{753, 821}";
}
);
guides = (
{
angle = 80.012;
position = "{48, 299}";
},
{
angle = 80.083;
position = "{461, 507}";
}
);
layerId = "C4E47923-0598-4673-A08C-5FB6011F6DED";
shapes = (
{
closed = 1;
nodes = (
(747.2,-25.6,o),
(963.2,160,o),
(1000,420.8,cs),
(1038.4,680,o),
(860.8,844.8,o),
(590.4,844.8,cs),
(344,844.8,o),
(76.8,708.8,o),
(33.6,406.4,cs),
(-4.8,145.6,o),
(166.4,-25.6,o),
(454.4,-25.6,cs)
);
},
{
closed = 1;
nodes = (
(412.8,272,o),
(371.2,336,o),
(384,408,cs),
(398.4,494.4,o),
(470.4,544,o),
(539.2,544,cs),
(606.4,544,o),
(646.4,481.6,o),
(638.4,411.2,cs),
(630.4,332.8,o),
(571.2,272,o),
(494.4,272,cs)
);
}
);
width = 1033;
},
{
anchors = (
{
name = bottom;
position = "{372, 0}";
},
{
name = center;
position = "{444, 411}";
},
{
name = ogonek;
position = "{519, 16}";
},
{
name = top;
position = "{516, 821}";
},
{
name = topright;
position = "{658, 821}";
}
);
guides = (
{
angle = 80.012;
position = "{48, 299}";
},
{
angle = 80.083;
position = "{461, 507}";
}
);
layerId = "2CB18861-F91E-4469-AD22-4F8C4E906F22";
shapes = (
{
closed = 1;
nodes = (
(628.8,-24,o),
(804.8,160,o),
(844.8,393.6,cs),
(891.2,656,o),
(756.8,844.8,o),
(508.8,844.8,cs),
(262.4,844.8,o),
(81.6,659.2,o),
(41.6,428.8,cs),
(-4.8,172.8,o),
(121.6,-24,o),
(369.6,-24,cs)
);
},
{
closed = 1;
nodes = (
(196.8,40,o),
(81.6,190.4,o),
(116.8,412.8,cs),
(147.2,612.8,o),
(292.8,782.4,o),
(494.4,782.4,cs),
(715.2,782.4,o),
(812.8,612.8,o),
(774.4,400,cs),
(739.2,198.4,o),
(587.2,40,o),
(385.6,40,cs)
);
}
);
width = 888;
}
);
leftKerningGroup = o;
rightKerningGroup = o;
unicode = 111;
},
{
color = 1;
glyphname = oslash;
layers = (
{
anchors = (
{
name = top;
position = "{625, 821}";
}
);
layerId = "C4E47923-0598-4673-A08C-5FB6011F6DED";
shapes = (
{
closed = 1;
nodes = (
(1180.8,758.4,l),
(1116.8,844.8,l),
(-36.8,68.8,l),
(27.2,-17.6,l)
);
},
{
alignment = -1;
pos = (37,0);
ref = o;
}
);
width = 1103;
},
{
anchors = (
{
name = top;
position = "{544, 821}";
}
);
layerId = "2CB18861-F91E-4469-AD22-4F8C4E906F22";
shapes = (
{
closed = 1;
nodes = (
(942.4,804.8,l),
(905.6,849.6,l),
(-24,19.2,l),
(12.8,-25.6,l)
);
},
{
alignment = -1;
pos = (37,0);
ref = o;
}
);
width = 944;
}
);
leftKerningGroup = o;
rightKerningGroup = o;
unicode = 248;
},
{
color = 5;
glyphname = p;
leftMetricsKey = n;
rightMetricsKey = o;
layers = (
{
anchors = (
{
name = bottom;
position = "{494, 0}";
},
{
name = top;
position = "{638, 821}";
}
);
guides = (
{
position = "{0, -26}";
}
);
layerId = "C4E47923-0598-4673-A08C-5FB6011F6DED";
shapes = (
{
closed = 1;
nodes = (
(379.2,-153.6,l),
(398.4,-3.2,l),
(56,123.2,l),
(-38.4,-416,l),
(329.6,-416,l)
);
},
{
closed = 1;
nodes = (
(57.6,136,l),
(136,70.4,o),
(416,-38.4,o),
(624,-12.8,c),
(878.4,33.6,o),
(1049.6,140.8,o),
(1094.4,396.8,cs),
(1137.6,638.4,o),
(1017.6,833.6,o),
(772.8,833.6,cs),
(667.2,833.6,o),
(572.8,776,o),
(500.8,604.8,c),
(539.2,820.8,l),
(171.2,820.8,l)
);
},
{
closed = 1;
nodes = (
(732.8,513.6,o),
(750.4,438.4,o),
(740.8,388.8,cs),
(724.8,292.8,o),
(628.8,248,o),
(523.2,248,cs),
(499.2,248,o),
(475.2,252.8,o),
(449.6,257.6,c),
(456,280,l),
(478.4,384,o),
(545.6,513.6,o),
(657.6,513.6,cs)
);
}
);
width = 1131;
},
{
anchors = (
{
name = bottom;
position = "{367, 0}";
},
{
name = top;
position = "{511, 821}";
}
);
guides = (
{
position = "{0, -26}";
}
);
layerId = "2CB18861-F91E-4469-AD22-4F8C4E906F22";
shapes = (
{
closed = 1;
nodes = (
(68.2,-177.6,l),
(97,35.2,l),
(34.6,16,l),
(-39,-416,l),
(29.8,-416,l)
);
},
{
closed = 1;
nodes = (
(28.2,-19.2,l),
(113,-25.6,o),
(173.8,-16,o),
(242.6,-20.8,c),
(554.6,-27.2,o),
(785,121.6,o),
(839.4,419.2,cs),
(882.6,660.8,o),
(786.6,846.4,o),
(559.4,846.4,cs),
(362.6,846.4,o),
(245.8,700.8,o),
(196.2,574.4,c),
(247.4,822.4,l),
(177,822.4,l)
);
},
{
closed = 1;
nodes = (
(722.6,779.2,o),
(802.6,641.6,o),
(769,444.8,cs),
(725.8,192,o),
(545,43.2,o),
(279.4,43.2,cs),
(226.6,43.2,o),
(170.6,44.8,o),
(111.4,54.4,c),
(145,267.2,ls),
(191.4,561.6,o),
(364.2,779.2,o),
(557.8,779.2,cs)
);
}
);
width = 878;
}
);
leftKerningGroup = r;
rightKerningGroup = o;
unicode = 112;
},
{
color = 1;
glyphname = thorn;
layers = (
{
anchors = (
{
name = bottom;
position = "{518, 0}";
},
{
name = top;
position = "{662, 821}";
}
);
layerId = "C4E47923-0598-4673-A08C-5FB6011F6DED";
shapes = (
{
closed = 1;
nodes = (
(272,1376,l),
(172.8,820.8,l),
(539.2,820.8,l),
(640,1376,l)
);
},
{
alignment = -1;
pos = (1,0);
ref = p;
}
);
width = 1179;
},
{
anchors = (
{
name = bottom;
position = "{366, 0}";
},
{
name = top;
position = "{510, 821}";
}
);
layerId = "2CB18861-F91E-4469-AD22-4F8C4E906F22";
shapes = (
{
closed = 1;
nodes = (
(273.6,1374.4,l),
(174.4,822.4,l),
(243.2,822.4,l),
(339.2,1374.4,l)
);
},
{
alignment = -1;
pos = (-2,0);
ref = p;
}
);
width = 875;
}
);
leftKerningGroup = l;
rightKerningGroup = o;
unicode = 254;
},
{
color = 5;
glyphname = q;
leftMetricsKey = o;
rightMetricsKey = n;
layers = (
{
anchors = (
{
name = bottom;
position = "{473, 0}";
},
{
name = top;
position = "{617, 821}";
}
);
layerId = "C4E47923-0598-4673-A08C-5FB6011F6DED";
shapes = (
{
closed = 1;
nodes = (
(578,0,l),
(506,-416,l),
(870.8,-416,l),
(922,-137.6,l)
);
},
{
alignment = -1;
ref = a;
}
);
width = 1117;
},
{
anchors = (
{
name = bottom;
position = "{347, 0}";
},
{
name = top;
position = "{491, 821}";
}
);
layerId = "2CB18861-F91E-4469-AD22-4F8C4E906F22";
shapes = (
{
closed = 1;
nodes = (
(616.6,1.6,l),
(539.8,-416,l),
(615,-416,l),
(746.2,348.8,l)
);
},
{
alignment = -1;
ref = a;
}
);
width = 859;
}
);
leftKerningGroup = o;
rightKerningGroup = j;
unicode = 113;
},
{
color = 1;
glyphname = r;
leftMetricsKey = n;
layers = (
{
anchors = (
{
name = bottom;
position = "{343, 0}";
},
{
name = top;
position = "{487, 821}";
}
);
layerId = "C4E47923-0598-4673-A08C-5FB6011F6DED";
shapes = (
{
closed = 1;
nodes = (
(27.2,0,l),
(395.2,0,l),
(435.2,244.8,ls),
(448,323.2,o),
(484.8,377.6,o),
(537.6,419.2,c),
(601.6,465.6,o),
(694.4,483.2,o),
(835.2,468.8,c),
(892.8,833.6,l),
(804.8,849.6,o),
(731.2,846.4,o),
(657.6,801.6,c),
(547.2,728,o),
(505.6,595.2,o),
(507.2,611.2,c),
(539.2,820.8,l),
(171.2,820.8,l)
);
}
);
width = 833;
},
{
anchors = (
{
name = bottom;
position = "{169, 0}";
},
{
name = top;
position = "{313, 821}";
}
);
layerId = "2CB18861-F91E-4469-AD22-4F8C4E906F22";
shapes = (
{
closed = 1;
nodes = (
(32,0,l),
(102.4,0,l),
(163.2,340.8,ls),
(182.4,438.4,o),
(211.2,547.2,o),
(281.6,624,c),
(350.4,704,o),
(451.2,760,o),
(534.4,747.2,c),
(552,825.6,l),
(499.2,838.4,o),
(400,811.2,o),
(334.4,755.2,cs),
(275.2,705.6,o),
(216,641.6,o),
(182.4,550.4,c),
(246.4,820.8,l),
(176,820.8,l)
);
}
);
width = 479;
}
);
leftKerningGroup = n;
rightKerningGroup = r;
unicode = 114;
},
{
color = 1;
glyphname = rcommaaccent;
layers = (
{
anchors = (
{
name = bottom;
position = "{343, 0}";
},
{
name = top;
position = "{487, 821}";
}
);
layerId = "C4E47923-0598-4673-A08C-5FB6011F6DED";
shapes = (
{
closed = 1;
nodes = (
(88,-48,o),
(33.6,-108.8,o),
(25.6,-166.4,cs),
(16,-228.8,o),
(64,-286.4,o),
(139.2,-294.4,c),
(124.8,-321.6,o),
(105.6,-331.2,o),
(17.6,-377.6,c),
(81.6,-462.4,l),
(190.4,-436.8,o),
(339.2,-331.2,o),
(353.6,-235.2,cs),
(372.8,-121.6,o),
(315.2,-48,o),
(201.6,-48,cs)
);
},
{
alignment = -1;
ref = r;
}
);
width = 819;
},
{
anchors = (
{
name = bottom;
position = "{169, 0}";
},
{
name = top;
position = "{313, 821}";
}
);
layerId = "2CB18861-F91E-4469-AD22-4F8C4E906F22";
shapes = (
{
closed = 1;
nodes = (
(8,-83.2,o),
(-41.6,-128,o),
(-54.4,-182.4,cs),
(-65.6,-236.8,o),
(-9.6,-284.8,o),
(54.4,-267.2,c),
(4.8,-334.4,o),
(-99.2,-392,o),
(-86.4,-385.6,c),
(-38.4,-417.6,l),
(24,-379.2,o),
(123.2,-300.8,o),
(142.4,-190.4,cs),
(153.6,-132.8,o),
(112,-83.2,o),
(56,-83.2,cs)
);
},
{
alignment = -1;
ref = r;
}
);
width = 513;
}
);
leftKerningGroup = i;
rightKerningGroup = r;
unicode = 343;
},
{
color = 1;
glyphname = s;
layers = (
{
anchors = (
{
name = bottom;
position = "{328, 0}";
},
{
name = top;
position = "{472, 821}";
}
);
layerId = "C4E47923-0598-4673-A08C-5FB6011F6DED";
shapes = (
{
closed = 1;
nodes = (
(275.2,844.8,o),
(126.4,748.8,o),
(97.6,571.2,cs),
(62.4,364.8,o),
(206.4,316.8,o),
(291.2,292.8,cs),
(336,280,o),
(379.2,267.2,o),
(376,240,cs),
(374.4,227.2,o),
(345.6,246.4,o),
(339.2,246.4,cs),
(278.4,246.4,o),
(174.4,264,o),
(72,304,c),
(27.2,25.6,l),
(113.6,-1.6,o),
(230.4,-22.4,o),
(334.4,-22.4,cs),
(508.8,-22.4,o),
(699.2,33.6,o),
(736,270.4,cs),
(761.6,441.6,o),
(612.8,500.8,o),
(523.2,528,c),
(459.2,545.6,o),
(433.6,560,o),
(435.2,580.8,c),
(435.2,584,o),
(465.6,584,o),
(502.4,584,cs),
(576,584,o),
(678.4,568,o),
(723.2,552,c),
(772.8,824,l),
(680,841.6,o),
(604.8,844.8,o),
(497.6,844.8,cs)
);
}
);
width = 798;
},
{
anchors = (
{
name = bottom;
position = "{254, 0}";
},
{
name = top;
position = "{398, 821}";
}
);
layerId = "2CB18861-F91E-4469-AD22-4F8C4E906F22";
shapes = (
{
closed = 1;
nodes = (
(240,844.8,o),
(107.2,768,o),
(84.8,632,cs),
(62.4,499.2,o),
(168,451.2,o),
(315.2,396.8,cs),
(432,352,o),
(508.8,318.4,o),
(491.2,217.6,cs),
(475.2,134.4,o),
(401.6,49.6,o),
(214.4,49.6,cs),
(107.2,49.6,o),
(20.8,83.2,o),
(0,110.4,c),
(-12.8,27.2,l),
(-9.6,9.6,o),
(76.8,-24,o),
(193.6,-24,cs),
(368,-24,o),
(529.6,52.8,o),
(560,220.8,cs),
(590.4,376,o),
(483.2,416,o),
(331.2,467.2,cs),
(256,494.4,o),
(140.8,536,o),
(156.8,630.4,cs),
(172.8,729.6,o),
(260.8,769.6,o),
(382.4,769.6,cs),
(468.8,769.6,o),
(537.6,753.6,o),
(593.6,729.6,c),
(608,811.2,l),
(584,825.6,o),
(508.8,844.8,o),
(424,844.8,cs)
);
}
);
width = 653;
},
{
layerId = "721F323E-501D-4410-9D56-518F23DD7EF6";
name = "BoldItalicItalic.Dec 9 17, 17:10";
shapes = (
{
closed = 1;
nodes = (
(232,844.8,o),
(88,753.6,o),
(60.8,588.8,cs),
(30.4,403.2,o),
(161.6,353.6,o),
(264,321.6,cs),
(329.6,300.8,o),
(414.4,281.6,o),
(406.4,233.6,cs),
(401.6,201.6,o),
(360,190.4,o),
(302.4,190.4,cs),
(228.8,190.4,o),
(97.6,212.8,o),
(17.6,249.6,c),
(-17.6,25.6,l),
(44.8,1.6,o),
(185.6,-22.4,o),
(292.8,-22.4,cs),
(467.2,-22.4,o),
(649.6,38.4,o),
(684.8,256,cs),
(712,422.4,o),
(574.4,476.8,o),
(467.2,510.4,cs),
(400,531.2,o),
(316.8,553.6,o),
(323.2,595.2,cs),
(328,625.6,o),
(406.4,636.8,o),
(467.2,636.8,cs),
(544,636.8,o),
(636.8,620.8,o),
(684.8,601.6,c),
(724.8,820.8,l),
(651.2,836.8,o),
(576,844.8,o),
(475.2,844.8,cs)
);
}
);
width = 742;
}
);
leftKerningGroup = s;
rightKerningGroup = s;
unicode = 115;
},
{
color = 1;
glyphname = germandbls;
leftMetricsKey = l;
rightMetricsKey = s;
layers = (
{
anchors = (
{
name = bottom;
position = "{549, 0}";
},
{
name = top;
position = "{693, 821}";
}
);
layerId = "C4E47923-0598-4673-A08C-5FB6011F6DED";
shapes = (
{
closed = 1;
nodes = (
(498.2,1408,o),
(263,1316.8,o),
(211.8,1032,cs),
(-49,-416,l),
(311,-416,l),
(559,1014.4,l),
(559,1014.4,o),
(623,1121.6,o),
(722.2,1121.6,cs),
(842.2,1121.6,o),
(874.2,1080,o),
(861.4,1020.8,cs),
(851.8,976,o),
(802.2,932.8,o),
(733.4,873.6,cs),
(650.2,800,o),
(562.2,713.6,o),
(544.6,617.6,cs),
(477.4,244.8,o),
(829.4,302.4,o),
(819.8,244.8,cs),
(816.6,225.6,o),
(755.8,246.4,o),
(747.8,246.4,cs),
(690.2,246.4,o),
(608.6,264,o),
(504.6,304,c),
(461.4,25.6,l),
(547.8,-1.6,o),
(640.6,-22.4,o),
(744.6,-22.4,cs),
(919,-22.4,o),
(1138.2,16,o),
(1179.8,260.8,cs),
(1226.2,536,o),
(920.6,497.6,o),
(877.4,577.6,c),
(859.8,616,o),
(949.4,672,o),
(1047,758.4,cs),
(1125.4,830.4,o),
(1199,910.4,o),
(1221.4,1032,cs),
(1267.8,1273.6,o),
(1087,1408,o),
(783,1408,cs)
);
}
);
width = 1243;
},
{
anchors = (
{
name = bottom;
position = "{429, 0}";
},
{
name = top;
position = "{573, 821}";
}
);
layerId = "2CB18861-F91E-4469-AD22-4F8C4E906F22";
shapes = (
{
closed = 1;
nodes = (
(390.2,1408,o),
(254.2,1315.2,o),
(204.6,1030.4,cs),
(-49.8,-416,l),
(19,-416,l),
(265.4,979.2,ls),
(323,1307.2,o),
(438.2,1350.4,o),
(607.8,1350.4,cs),
(806.2,1350.4,o),
(878.2,1283.2,o),
(860.6,1140.8,cs),
(844.6,1025.6,o),
(750.2,952,o),
(663.8,886.4,cs),
(563,812.8,o),
(447.8,747.2,o),
(430.2,644.8,cs),
(385.4,387.2,o),
(879.8,473.6,o),
(836.6,217.6,cs),
(822.2,134.4,o),
(751.8,49.6,o),
(569.4,49.6,cs),
(455.8,49.6,o),
(369.4,83.2,o),
(348.6,110.4,c),
(334.2,27.2,l),
(337.4,9.6,o),
(428.6,-24,o),
(545.4,-24,cs),
(718.2,-24,o),
(879.8,54.4,o),
(907,222.4,cs),
(958.2,537.6,o),
(459,462.4,o),
(500.6,646.4,cs),
(516.6,712,o),
(603,758.4,o),
(684.6,816,cs),
(782.2,886.4,o),
(897.4,979.2,o),
(919.8,1118.4,cs),
(948.6,1308.8,o),
(863.8,1408,o),
(609.4,1408,cs)
);
}
);
width = 999;
}
);
leftKerningGroup = i;
rightKerningGroup = s;
unicode = 223;
},
{
color = 1;
glyphname = t;
layers = (
{
anchors = (
{
name = bottom;
position = "{279, 0}";
},
{
name = center;
position = "{351, 411}";
},
{
name = top;
position = "{423, 821}";
},
{
name = topright;
position = "{741, 821}";
}
);
guides = (
{
position = "{0, 144}";
},
{
position = "{0, -22}";
}
);
layerId = "C4E47923-0598-4673-A08C-5FB6011F6DED";
shapes = (
{
closed = 1;
nodes = (
(36.8,544,l),
(145.6,544,l),
(105.6,356.8,ls),
(76.8,209.6,o),
(49.6,-14.4,o),
(332.8,-14.4,cs),
(432,-14.4,o),
(508.8,1.6,o),
(579.2,16,c),
(617.6,305.6,l),
(553.6,289.6,o),
(510.4,283.2,o),
(491.2,283.2,c),
(462.4,286.4,o),
(449.6,310.4,o),
(460.8,360,c),
(497.6,544,l),
(646.4,544,l),
(692.8,820.8,l),
(542.4,820.8,l),
(598.4,1126.4,l),
(259.2,1126.4,l),
(206.4,820.8,l),
(86.4,820.8,l)
);
}
);
width = 701;
},
{
anchors = (
{
name = bottom;
position = "{175, 0}";
},
{
name = center;
position = "{247, 411}";
},
{
name = top;
position = "{319, 821}";
},
{
name = topright;
position = "{532, 821}";
}
);
guides = (
{
position = "{0, 144}";
},
{
position = "{0, -22}";
}
);
layerId = "2CB18861-F91E-4469-AD22-4F8C4E906F22";
shapes = (
{
closed = 1;
nodes = (
(76.8,758.4,l),
(219.2,758.4,l),
(121.6,179.2,ls),
(99.2,38.4,o),
(161.6,-12.8,o),
(259.2,-12.8,cs),
(300.8,-12.8,o),
(353.6,1.6,o),
(382.4,27.2,c),
(393.6,91.2,l),
(318.4,57.6,o),
(256,32,o),
(206.4,68.8,c),
(185.6,86.4,o),
(184,128,o),
(195.2,193.6,cs),
(289.6,758.4,l),
(521.6,758.4,l),
(532.8,820.8,l),
(302.4,820.8,l),
(355.2,1126.4,l),
(289.6,1126.4,l),
(236.8,820.8,l),
(88,820.8,l)
);
}
);
width = 492;
}
);
leftKerningGroup = f;
rightKerningGroup = t;
unicode = 116;
},
{
color = 1;
glyphname = tbar;
layers = (
{
anchors = (
{
name = bottom;
position = "{280, 0}";
},
{
name = center;
position = "{352, 411}";
},
{
name = top;
position = "{424, 821}";
},
{
name = topright;
position = "{742, 821}";
}
);
layerId = "C4E47923-0598-4673-A08C-5FB6011F6DED";
shapes = (
{
closed = 1;
nodes = (
(-6.4,275.2,l),
(612.8,275.2,l),
(644.8,513.6,l),
(27.2,513.6,l)
);
},
{
alignment = -1;
pos = (1,0);
ref = t;
}
);
width = 689;
},
{
anchors = (
{
name = bottom;
position = "{173, 0}";
},
{
name = center;
position = "{245, 411}";
},
{
name = top;
position = "{317, 821}";
},
{
name = topright;
position = "{530, 821}";
}
);
layerId = "2CB18861-F91E-4469-AD22-4F8C4E906F22";
shapes = (
{
closed = 1;
nodes = (
(27.2,478.4,l),
(459.2,478.4,l),
(473.6,547.2,l),
(40,547.2,l)
);
},
{
alignment = -1;
pos = (-2,0);
ref = t;
}
);
width = 516;
}
);
leftKerningGroup = f;
rightKerningGroup = t;
unicode = 359;
},
{
color = 1;
glyphname = u;
layers = (
{
anchors = (
{
name = bottom;
position = "{458, 0}";
},
{
name = ogonek;
position = "{884, 16}";
},
{
name = top;
position = "{602, 821}";
},
{
name = topright;
position = "{1048, 821}";
}
);
guides = (
{
angle = 79.859;
position = "{414, 296}";
}
);
layerId = "C4E47923-0598-4673-A08C-5FB6011F6DED";
shapes = (
{
closed = 1;
nodes = (
(497.6,820.8,l),
(131.2,820.8,l),
(64,440,ls),
(12.8,161.6,o),
(140.8,-24,o),
(460.8,-24,cs),
(753.6,-24,o),
(945.6,129.6,o),
(995.2,411.2,cs),
(1068.8,820.8,l),
(697.6,820.8,l),
(628.8,451.2,ls),
(606.4,336,o),
(576,270.4,o),
(513.6,270.4,cs),
(468.8,270.4,o),
(406.4,294.4,o),
(428.8,419.2,cs)
);
}
);
width = 1058;
},
{
anchors = (
{
name = bottom;
position = "{354, 0}";
},
{
name = ogonek;
position = "{698, 16}";
},
{
name = top;
position = "{498, 821}";
},
{
name = topright;
position = "{813, 821}";
}
);
guides = (
{
angle = 79.859;
position = "{414, 296}";
}
);
layerId = "2CB18861-F91E-4469-AD22-4F8C4E906F22";
shapes = (
{
closed = 1;
nodes = (
(236.8,820.8,l),
(169.6,820.8,l),
(99.2,427.2,ls),
(51.2,161.6,o),
(96,-24,o),
(348.8,-24,cs),
(600,-24,o),
(713.6,163.2,o),
(756.8,424,cs),
(825.6,820.8,l),
(758.4,820.8,l),
(702.4,475.2,ls),
(656,195.2,o),
(556.8,43.2,o),
(355.2,43.2,cs),
(121.6,43.2,o),
(128,219.2,o),
(174.4,476.8,cs)
);
}
);
width = 853;
},
{
layerId = "CD5A6C06-AC7A-45DB-B036-21C29CC29E26";
name = "BoldItalicItalic.Nov 18 17, 17:54";
width = 1051;
},
{
guides = (
{
angle = 80;
position = "{382.4, 296}";
}
);
layerId = "B11922F9-C0B7-4C15-AA27-29D9E96294CE";
name = "LightItalicItalic.Nov 18 17, 17:54";
width = 874;
}
);
leftKerningGroup = u;
rightKerningGroup = u;
unicode = 117;
},
{
color = 1;
glyphname = v;
layers = (
{
anchors = (
{
name = bottom;
position = "{470, 0}";
},
{
name = top;
position = "{614, 821}";
}
);
guides = (
{
angle = 80.071;
position = "{397, 312}";
}
);
layerId = "C4E47923-0598-4673-A08C-5FB6011F6DED";
shapes = (
{
closed = 1;
nodes = (
(238.4,542.4,l),
(136,462.4,o),
(107.2,403.2,o),
(91.2,324.8,cs),
(56,129.6,o),
(168,-20.8,o),
(478.4,-20.8,cs),
(854.4,-20.8,o),
(985.6,204.8,o),
(1036.8,507.2,cs),
(1052.8,604.8,o),
(1060.8,708.8,o),
(1052.8,820.8,c),
(692.8,820.8,l),
(699.2,716.8,o),
(694.4,592,o),
(678.4,492.8,cs),
(659.2,369.6,o),
(622.4,264,o),
(524.8,264,cs),
(433.6,264,o),
(416,329.6,o),
(476.8,481.6,c),
(630.4,820.8,l),
(91.2,820.8,l),
(46.4,542.4,l)
);
}
);
width = 1082;
},
{
anchors = (
{
name = bottom;
position = "{343, 0}";
},
{
name = top;
position = "{487, 821}";
}
);
guides = (
{
angle = 80.071;
position = "{397, 312}";
}
);
layerId = "2CB18861-F91E-4469-AD22-4F8C4E906F22";
shapes = (
{
closed = 1;
nodes = (
(310.4,761.6,l),
(217.6,628.8,o),
(108.8,459.2,o),
(83.2,308.8,cs),
(54.4,131.2,o),
(123.2,-25.6,o),
(337.6,-25.6,cs),
(577.6,-25.6,o),
(724.8,169.6,o),
(771.2,435.2,cs),
(790.4,548.8,o),
(793.6,684.8,o),
(780.8,820.8,c),
(708.8,820.8,l),
(729.6,694.4,o),
(728,568,o),
(705.6,452.8,cs),
(664,227.2,o),
(542.4,40,o),
(347.2,40,cs),
(75.2,40,o),
(107.2,334.4,o),
(299.2,628.8,c),
(430.4,820.8,l),
(107.2,820.8,l),
(96,761.6,l)
);
}
);
width = 831;
},
{
guides = (
{
angle = 80;
position = "{358.4, 312}";
}
);
layerId = "B67D6050-80EA-4AD2-9054-9E8F846F422E";
name = "LightItalicItalic.Mar 3 18, 14:13";
shapes = (
{
closed = 1;
nodes = (
(275.2,732.8,l),
(160,606.4,o),
(65.6,451.2,o),
(41.6,310.4,cs),
(11.2,131.2,o),
(86.4,-24,o),
(318.4,-24,cs),
(576,-24,o),
(721.6,174.4,o),
(768,444.8,cs),
(787.2,556.8,o),
(790.4,688,o),
(779.2,820.8,c),
(668.8,820.8,l),
(686.4,697.6,o),
(684.8,571.2,o),
(664,457.6,cs),
(625.6,246.4,o),
(515.2,72,o),
(332.8,72,cs),
(84.8,72,o),
(110.4,334.4,o),
(284.8,609.6,cs),
(419.2,820.8,l),
(67.2,820.8,l),
(51.2,732.8,l)
);
}
);
width = 818;
}
);
leftKerningGroup = v;
rightKerningGroup = v;
unicode = 118;
},
{
color = 5;
glyphname = w;
leftMetricsKey = v;
rightMetricsKey = v;
layers = (
{
anchors = (
{
name = bottom;
position = "{730, 0}";
},
{
name = top;
position = "{874, 821}";
}
);
guides = (
{
angle = 79.954;
position = "{619, 510}";
}
);
layerId = "C4E47923-0598-4673-A08C-5FB6011F6DED";
shapes = (
{
closed = 1;
nodes = (
(238.4,542.4,l),
(166.4,497.6,o),
(108.8,420.8,o),
(94.4,331.2,c),
(51.2,115.2,o),
(204.8,-16,o),
(460.8,-16,cs),
(590.4,-16,o),
(664,19.2,o),
(739.2,81.6,c),
(761.6,44.8,o),
(891.2,-16,o),
(1048,-16,cs),
(1355.2,-16,o),
(1507.2,224,o),
(1552,483.2,cs),
(1569.6,582.4,o),
(1576,702.4,o),
(1568,820.8,c),
(1211.2,820.8,l),
(1212.8,723.2,o),
(1209.6,595.2,o),
(1193.6,486.4,cs),
(1171.2,337.6,o),
(1126.4,268.8,o),
(1057.6,268.8,cs),
(971.2,268.8,o),
(990.4,350.4,o),
(1011.2,483.2,cs),
(1064,820.8,l),
(712,820.8,l),
(654.4,494.4,ls),
(628.8,336,o),
(614.4,270.4,o),
(531.2,270.4,cs),
(387.2,270.4,o),
(480,457.6,o),
(520,571.2,c),
(630.4,820.8,l),
(91.2,820.8,l),
(46.4,542.4,l)
);
}
);
width = 1601;
},
{
anchors = (
{
name = bottom;
position = "{559, 0}";
},
{
name = top;
position = "{703, 821}";
}
);
guides = (
{
angle = 79.954;
position = "{619, 510}";
}
);
layerId = "2CB18861-F91E-4469-AD22-4F8C4E906F22";
shapes = (
{
closed = 1;
nodes = (
(310.4,761.6,l),
(200,604.8,o),
(108.8,451.2,o),
(83.2,307.2,cs),
(51.2,123.2,o),
(120,-20.8,o),
(307.2,-20.8,cs),
(481.6,-20.8,o),
(603.2,92.8,o),
(630.4,228.8,c),
(608,72,o),
(680,-24,o),
(828.8,-24,cs),
(998.4,-24,o),
(1145.6,108.8,o),
(1204.8,443.2,cs),
(1228.8,574.4,o),
(1230.4,691.2,o),
(1216,820.8,c),
(1145.6,820.8,l),
(1166.4,704,o),
(1164.8,571.2,o),
(1144,448,cs),
(1108.8,241.6,o),
(1014.4,44.8,o),
(836.8,44.8,cs),
(708.8,44.8,o),
(649.6,145.6,o),
(680,337.6,cs),
(761.6,820.8,l),
(689.6,820.8,l),
(608,339.2,ls),
(579.2,171.2,o),
(464,41.6,o),
(315.2,41.6,cs),
(89.6,41.6,o),
(97.6,316.8,o),
(292.8,616,cs),
(430.4,820.8,l),
(107.2,820.8,l),
(96,761.6,l)
);
}
);
width = 1263;
},
{
guides = (
{
angle = 80;
position = "{580.8, 510.4}";
}
);
layerId = "B67D6050-80EA-4AD2-9054-9E8F846F422E";
name = "LightItalicItalic.Mar 3 18, 14:13";
shapes = (
{
closed = 1;
nodes = (
(275.2,732.8,l),
(148.8,590.4,o),
(65.6,446.4,o),
(41.6,310.4,cs),
(8,121.6,o),
(88,-20.8,o),
(289.6,-20.8,cs),
(457.6,-20.8,o),
(572.8,83.2,o),
(606.4,209.6,c),
(590.4,68.8,o),
(670.4,-22.4,o),
(819.2,-22.4,cs),
(1008,-22.4,o),
(1155.2,124.8,o),
(1212.8,448,cs),
(1235.2,576,o),
(1238.4,692.8,o),
(1224,820.8,c),
(1115.2,820.8,l),
(1134.4,707.2,o),
(1132.8,574.4,o),
(1112,452.8,cs),
(1078.4,254.4,o),
(990.4,72,o),
(827.2,72,cs),
(705.6,72,o),
(656,172.8,o),
(686.4,356.8,cs),
(763.2,820.8,l),
(654.4,820.8,l),
(576,360,ls),
(547.2,193.6,o),
(446.4,72,o),
(305.6,72,cs),
(91.2,72,o),
(110.4,336,o),
(284.8,609.6,cs),
(419.2,820.8,l),
(67.2,820.8,l),
(51.2,732.8,l)
);
}
);
width = 1262;
}
);
leftKerningGroup = v;
rightKerningGroup = v;
unicode = 119;
},
{
color = 1;
glyphname = x;
layers = (
{
anchors = (
{
name = bottom;
position = "{419, 0}";
},
{
name = top;
position = "{563, 821}";
}
);
layerId = "C4E47923-0598-4673-A08C-5FB6011F6DED";
shapes = (
{
closed = 1;
nodes = (
(1059.2,820.8,l),
(644.8,820.8,l),
(528,659.2,l),
(452.8,820.8,l),
(64,820.8,l),
(291.2,428.8,l),
(-116.8,0,l),
(332.8,0,l),
(468.8,166.4,l),
(555.2,0,l),
(955.2,0,l),
(699.2,422.4,l)
);
}
);
width = 982;
},
{
anchors = (
{
name = bottom;
position = "{335, 0}";
},
{
name = top;
position = "{479, 821}";
}
);
layerId = "2CB18861-F91E-4469-AD22-4F8C4E906F22";
shapes = (
{
closed = 1;
nodes = (
(830.4,820.8,l),
(740.8,820.8,l),
(419.2,488,l),
(220.8,820.8,l),
(129.6,820.8,l),
(363.2,428.8,l),
(-67.2,0,l),
(30.4,0,l),
(403.2,380.8,l),
(635.2,0,l),
(736,0,l),
(459.2,430.4,l)
);
}
);
width = 812;
}
);
leftKerningGroup = z;
rightKerningGroup = c;
unicode = 120;
},
{
color = 5;
glyphname = y;
leftMetricsKey = v;
rightMetricsKey = g;
layers = (
{
anchors = (
{
name = bottom;
position = "{1003, -140}";
},
{
name = top;
position = "{637, 821}";
}
);
guides = (
{
angle = 80.095;
position = "{829, 86}";
}
);
layerId = "C4E47923-0598-4673-A08C-5FB6011F6DED";
shapes = (
{
closed = 1;
nodes = (
(46.4,542.4,l),
(238.4,542.4,l),
(137.6,465.6,o),
(104,398.4,o),
(89.6,312,cs),
(49.6,76.8,o),
(238.4,-32,o),
(372.8,-20.8,cs),
(452.8,-12.8,o),
(544,0,o),
(614.4,180.8,c),
(600,73.6,ls),
(572.8,-116.8,o),
(467.2,-156.8,o),
(323.2,-147.2,c),
(257.6,-132.8,o),
(112,-113.6,o),
(30.4,-56,c),
(-20.8,-364.8,l),
(11.2,-395.2,o),
(97.6,-432,o),
(273.6,-459.2,c),
(566.4,-488,o),
(881.6,-352,o),
(942.4,8,cs),
(1078.4,820.8,l),
(723.2,820.8,l),
(675.2,560,ls),
(643.2,377.6,o),
(564.8,270.4,o),
(507.2,270.4,cs),
(436.8,270.4,o),
(438.4,363.2,o),
(481.6,491.2,c),
(630.4,820.8,l),
(91.2,820.8,l)
);
}
);
width = 1118;
},
{
anchors = (
{
name = bottom;
position = "{361, 0}";
},
{
name = top;
position = "{505, 821}";
}
);
guides = (
{
angle = 80.095;
position = "{829, 86}";
}
);
layerId = "2CB18861-F91E-4469-AD22-4F8C4E906F22";
shapes = (
{
closed = 1;
nodes = (
(96,761.6,l),
(313.6,761.6,l),
(206.4,619.2,o),
(105.6,460.8,o),
(78.4,310.4,cs),
(48,145.6,o),
(102.4,-20.8,o),
(353.6,-22.4,cs),
(532.8,-24,o),
(624,80,o),
(686.4,214.4,c),
(638.4,-17.6,ls),
(606.4,-166.4,o),
(553.6,-272,o),
(427.2,-332.8,cs),
(302.4,-393.6,o),
(145.6,-374.4,o),
(19.2,-312,c),
(6.4,-388.8,l),
(171.2,-456,o),
(342.4,-459.2,o),
(484.8,-393.6,c),
(611.2,-318.4,o),
(676.8,-192,o),
(710.4,-3.2,cs),
(857.6,820.8,l),
(779.2,820.8,l),
(724.8,510.4,ls),
(683.2,268.8,o),
(545.6,41.6,o),
(353.6,41.6,cs),
(67.2,41.6,o),
(107.2,339.2,o),
(299.2,627.2,cs),
(430.4,820.8,l),
(107.2,820.8,l)
);
}
);
width = 856;
},
{
guides = (
{
angle = 80;
position = "{790.4, 86.4}";
}
);
layerId = "EEFD244E-C356-4B37-B4EE-5DB7A0C08CC7";
name = "LightItalicItalic.Mar 3 18, 14:14";
shapes = (
{
closed = 1;
nodes = (
(51.2,732.8,l),
(275.2,732.8,l),
(153.6,596.8,o),
(67.2,452.8,o),
(41.6,310.4,cs),
(9.6,136,o),
(81.6,-22.4,o),
(318.4,-22.4,cs),
(483.2,-22.4,o),
(574.4,68.8,o),
(638.4,209.6,c),
(595.2,-4.8,ls),
(563.2,-160,o),
(504,-256,o),
(374.4,-308.8,cs),
(257.6,-358.4,o),
(102.4,-339.2,o),
(-17.6,-278.4,c),
(-35.2,-385.6,l),
(112,-448,o),
(272,-456,o),
(417.6,-401.6,c),
(566.4,-340.8,o),
(665.6,-212.8,o),
(702.4,-1.6,cs),
(848,820.8,l),
(732.8,820.8,l),
(680,516.8,ls),
(640,283.2,o),
(510.4,72,o),
(336,72,cs),
(78.4,72,o),
(113.6,342.4,o),
(284.8,609.6,cs),
(419.2,820.8,l),
(67.2,820.8,l)
);
}
);
width = 869;
}
);
leftKerningGroup = v;
rightKerningGroup = j;
unicode = 121;
},
{
color = 1;
glyphname = z;
layers = (
{
anchors = (
{
name = bottom;
position = "{415, 0}";
},
{
name = top;
position = "{559, 821}";
}
);
layerId = "C4E47923-0598-4673-A08C-5FB6011F6DED";
shapes = (
{
closed = 1;
nodes = (
(131.2,820.8,l),
(83.2,545.6,l),
(355.2,545.6,l),
(-46.4,163.2,l),
(148.8,-27.2,l),
(273.6,56,l),
(448,-6.4,l),
(499.2,-22.4,o),
(585.6,-36.8,o),
(656,-27.2,cs),
(800,-11.2,o),
(873.6,28.8,o),
(918.4,166.4,c),
(929.6,224,o),
(932.8,288,o),
(945.6,358.4,c),
(633.6,356.8,l),
(625.6,315.2,o),
(620.8,283.2,o),
(612.8,265.6,c),
(603.2,251.2,o),
(593.6,243.2,o),
(596.8,240,c),
(480,270.4,l),
(1003.2,820.8,l)
);
}
);
width = 974;
},
{
anchors = (
{
name = bottom;
position = "{312, 0}";
},
{
name = top;
position = "{456, 821}";
}
);
layerId = "2CB18861-F91E-4469-AD22-4F8C4E906F22";
shapes = (
{
closed = 1;
nodes = (
(136,820.8,l),
(128,756.8,l),
(651.2,756.8,l),
(-19.2,44.8,l),
(17.6,-3.2,l),
(123.2,96,l),
(248,49.6,ls),
(384,-3.2,o),
(432,-14.4,o),
(489.6,-16,c),
(534.4,-19.2,o),
(585.6,-4.8,o),
(622.4,16,c),
(667.2,52.8,o),
(692.8,107.2,o),
(696,177.6,c),
(628.8,180.8,l),
(620.8,91.2,o),
(580.8,54.4,o),
(508.8,57.6,cs),
(467.2,59.2,o),
(404.8,72,o),
(280,115.2,cs),
(174.4,152,l),
(776,820.8,l)
);
}
);
width = 776;
}
);
leftKerningGroup = z;
rightKerningGroup = c;
unicode = 122;
},
{
glyphname = v.ss01;
layers = (
{
anchors = (
{
name = bottom;
position = "{443, 0}";
},
{
name = top;
position = "{587, 821}";
}
);
layerId = "C4E47923-0598-4673-A08C-5FB6011F6DED";
shapes = (
{
closed = 1;
nodes = (
(312,0,l),
(550.4,0,l),
(1164.8,820.8,l),
(729.6,820.8,l),
(516.8,491.2,l),
(427.2,820.8,l),
(-14.4,820.8,l)
);
}
);
width = 1027;
},
{
anchors = (
{
name = bottom;
position = "{336, 0}";
},
{
name = top;
position = "{480, 821}";
}
);
layerId = "2CB18861-F91E-4469-AD22-4F8C4E906F22";
shapes = (
{
closed = 1;
nodes = (
(284.8,0,l),
(358.4,0,l),
(864,820.8,l),
(780.8,820.8,l),
(334.4,75.2,l),
(134.4,820.8,l),
(67.2,820.8,l)
);
}
);
width = 817;
}
);
leftKerningGroup = v1;
rightKerningGroup = v1;
},
{
glyphname = w.ss01;
layers = (
{
anchors = (
{
name = bottom;
position = "{684, 0}";
},
{
name = top;
position = "{828, 821}";
}
);
layerId = "C4E47923-0598-4673-A08C-5FB6011F6DED";
shapes = (
{
closed = 1;
nodes = (
(899.2,0,l),
(1140.8,0,l),
(1649.6,820.8,l),
(1244.8,820.8,l),
(1062.4,454.4,l),
(939.2,820.8,l),
(692.8,820.8,l),
(470.4,454.4,l),
(388.8,820.8,l),
(-16,820.8,l),
(204.8,0,l),
(443.2,0,l),
(737.6,323.2,l)
);
}
);
width = 1511;
},
{
anchors = (
{
name = bottom;
position = "{449, 0}";
},
{
name = top;
position = "{593, 821}";
}
);
layerId = "2CB18861-F91E-4469-AD22-4F8C4E906F22";
shapes = (
{
closed = 1;
nodes = (
(636.8,0,l),
(704,0,l),
(1083.2,820.8,l),
(1009.6,820.8,l),
(686.4,115.2,l),
(600,820.8,l),
(532.8,820.8,l),
(208,115.2,l),
(137.6,820.8,l),
(68.8,820.8,l),
(160,0,l),
(235.2,0,l),
(544,680,l)
);
}
);
width = 1039;
}
);
leftKerningGroup = v1;
rightKerningGroup = v1;
},
{
glyphname = y.ss01;
layers = (
{
anchors = (
{
name = bottom;
position = "{808, 0}";
},
{
name = top;
position = "{552, 821}";
}
);
layerId = "C4E47923-0598-4673-A08C-5FB6011F6DED";
shapes = (
{
closed = 1;
nodes = (
(379.2,820.8,l),
(-11.2,820.8,l),
(254.4,-11.2,l),
(195.2,-126.4,o),
(81.6,-129.6,o),
(-88,-96,c),
(-147.2,-409.6,l),
(270.4,-491.2,o),
(443.2,-387.2,o),
(750.4,176,cs),
(1094.4,820.8,l),
(683.2,820.8,l),
(488,358.4,l)
);
}
);
width = 959;
},
{
anchors = (
{
name = bottom;
position = "{536, 0}";
},
{
name = top;
position = "{460, 821}";
}
);
layerId = "2CB18861-F91E-4469-AD22-4F8C4E906F22";
shapes = (
{
closed = 1;
nodes = (
(134.4,820.8,l),
(57.6,820.8,l),
(273.6,-3.2,l),
(171.2,-201.6,o),
(48,-364.8,o),
(-88,-352,c),
(-97.6,-422.4,l),
(88,-441.6,o),
(240,-187.2,o),
(353.6,4.8,cs),
(828.8,820.8,l),
(744,820.8,l),
(316.8,68.8,l)
);
}
);
width = 773;
},
{
layerId = "562A1FEE-5EF5-442F-9E81-DEB64D842D06";
name = "LightItalicItalic.Mar 3 18, 14:05";
shapes = (
{
closed = 1;
nodes = (
(166.4,820.8,l),
(48,820.8,l),
(270.4,-4.8,l),
(174.4,-192,o),
(52.8,-332.8,o),
(-88,-318.4,c),
(-104,-420.8,l),
(112,-448,o),
(267.2,-214.4,o),
(406.4,27.2,cs),
(864,820.8,l),
(736,820.8,l),
(339.2,107.2,l)
);
}
);
width = 784;
}
);
leftKerningGroup = v1;
rightKerningGroup = v1;
},
{
glyphname = ordfeminine;
layers = (
{
layerId = "C4E47923-0598-4673-A08C-5FB6011F6DED";
shapes = (
{
closed = 1;
nodes = (
(284.8,952,o),
(368,806.4,o),
(534.4,806.4,cs),
(576,806.4,o),
(632,811.2,o),
(694.4,860.8,c),
(684.8,870.4,l),
(681.6,820.8,l),
(891.2,820.8,l),
(980.8,1328,l),
(766.4,1328,l),
(750.4,1283.2,l),
(697.6,1326.4,o),
(646.4,1344,o),
(580.8,1344,cs),
(438.4,1344,o),
(334.4,1227.2,o),
(310.4,1099.2,cs)
);
},
{
closed = 1;
nodes = (
(548.8,1107.2,o),
(606.4,1161.6,o),
(675.2,1161.6,cs),
(713.6,1161.6,o),
(737.6,1140.8,o),
(729.6,1099.2,c),
(720,1036.8,o),
(662.4,987.2,o),
(598.4,987.2,cs),
(545.6,987.2,o),
(529.6,1012.8,o),
(537.6,1046.4,c)
);
}
);
width = 854;
},
{
layerId = "2CB18861-F91E-4469-AD22-4F8C4E906F22";
shapes = (
{
closed = 1;
nodes = (
(3.2,900.8,o),
(107.2,804.8,o),
(246.4,804.8,cs),
(352,804.8,o),
(428.8,872,o),
(432,896,c),
(435.2,897.6,l),
(420.8,820.8,l),
(492.8,820.8,l),
(582.4,1328,l),
(510.4,1329.6,l),
(496,1249.6,l),
(500.8,1280,o),
(441.6,1344,o),
(331.2,1344,cs),
(198.4,1344,o),
(62.4,1251.2,o),
(33.6,1080,cs)
);
},
{
closed = 1;
nodes = (
(118.4,1200,o),
(224,1273.6,o),
(316.8,1273.6,cs),
(417.6,1273.6,o),
(488,1192,o),
(468.8,1080,cs),
(448,961.6,o),
(345.6,875.2,o),
(236.8,875.2,cs),
(148.8,875.2,o),
(75.2,947.2,o),
(96,1070.4,cs)
);
}
);
width = 729;
}
);
rightKerningGroup = d;
unicode = 170;
},
{
glyphname = ordmasculine;
layers = (
{
layerId = "C4E47923-0598-4673-A08C-5FB6011F6DED";
shapes = (
{
closed = 1;
nodes = (
(281.6,936,o),
(393.6,806.4,o),
(604.8,806.4,cs),
(782.4,806.4,o),
(916.8,904,o),
(942.4,1046.4,cs),
(971.2,1217.6,o),
(848,1344,o),
(651.2,1344,cs),
(486.4,1344,o),
(337.6,1249.6,o),
(310.4,1102.4,cs)
);
},
{
closed = 1;
nodes = (
(545.6,1108.8,o),
(614.4,1158.4,o),
(672,1158.4,cs),
(710.4,1158.4,o),
(729.6,1142.4,o),
(721.6,1104,c),
(712,1043.2,o),
(652.8,990.4,o),
(587.2,990.4,cs),
(537.6,990.4,o),
(526.4,1009.6,o),
(534.4,1046.4,c)
);
}
);
width = 865;
},
{
layerId = "2CB18861-F91E-4469-AD22-4F8C4E906F22";
shapes = (
{
closed = 1;
nodes = (
(4.8,913.6,o),
(112,806.4,o),
(257.6,806.4,cs),
(390.4,806.4,o),
(534.4,916.8,o),
(561.6,1068.8,cs),
(590.4,1230.4,o),
(473.6,1344,o),
(342.4,1344,cs),
(193.6,1344,o),
(60.8,1227.2,o),
(33.6,1072,cs)
);
},
{
closed = 1;
nodes = (
(126.4,1193.6,o),
(206.4,1281.6,o),
(324.8,1281.6,cs),
(428.8,1281.6,o),
(510.4,1187.2,o),
(489.6,1068.8,cs),
(467.2,945.6,o),
(368,867.2,o),
(264,867.2,cs),
(163.2,867.2,o),
(83.2,952,o),
(104,1068.8,cs)
);
}
);
width = 755;
}
);
rightKerningGroup = d;
unicode = 186;
},
{
glyphname = zero;
layers = (
{
layerId = "C4E47923-0598-4673-A08C-5FB6011F6DED";
shapes = (
{
closed = 1;
nodes = (
(-12,186,o),
(242,-24,o),
(584,-24,cs),
(872,-24,o),
(1101,125,o),
(1179,561,cs),
(1271,1081,o),
(1030,1344,o),
(696,1344,cs),
(408,1344,o),
(157,1148,o),
(79,702,cs)
);
},
{
closed = 1;
nodes = (
(498,885,o),
(566,1006,o),
(686,1006,cs),
(817,1006,o),
(845,864,o),
(803,626,cs),
(765,408,o),
(704,314,o),
(585,314,cs),
(453,314,o),
(417,428,o),
(459,667,cs)
);
}
);
width = 1203;
},
{
layerId = "2CB18861-F91E-4469-AD22-4F8C4E906F22";
shapes = (
{
closed = 1;
nodes = (
(51,214,o),
(281,-24,o),
(524,-24,cs),
(736,-24,o),
(972,158,o),
(1050,604,cs),
(1140,1114,o),
(913,1344,o),
(669,1344,cs),
(457,1344,o),
(221,1170,o),
(142,726,cs)
);
},
{
closed = 1;
nodes = (
(277,1105,o),
(474,1280,o),
(671,1280,cs),
(893,1280,o),
(1064,1059,o),
(985,613,cs),
(915,218,o),
(718,40,o),
(521,40,cs),
(300,40,o),
(128,265,o),
(207,711,cs)
);
}
);
width = 1142;
}
);
unicode = 48;
},
{
glyphname = one;
layers = (
{
layerId = "C4E47923-0598-4673-A08C-5FB6011F6DED";
shapes = (
{
closed = 1;
nodes = (
(133,0,l),
(520,0,l),
(753,1320,l),
(582,1320,l),
(129,1094,l),
(65,730,l),
(279,826,l)
);
}
);
width = 686;
},
{
layerId = "2CB18861-F91E-4469-AD22-4F8C4E906F22";
shapes = (
{
closed = 1;
nodes = (
(240,0,l),
(304,0,l),
(537,1320,l),
(476,1320,l),
(201,1170,l),
(189,1101,l),
(460,1248,l)
);
}
);
width = 574;
}
);
unicode = 49;
},
{
glyphname = two;
layers = (
{
layerId = "C4E47923-0598-4673-A08C-5FB6011F6DED";
shapes = (
{
closed = 1;
nodes = (
(761,1019,o),
(807,982,o),
(793,904,cs),
(756,691,o),
(74,312,o),
(59,304,c),
(5,0,l),
(1011,0,l),
(1070,334,l),
(641,334,l),
(653,336,o),
(1119,550,o),
(1180,898,cs),
(1205,1038,o),
(1166,1344,o),
(739,1344,cs),
(298,1344,o),
(126,1006,o),
(110,957,c),
(411,805,l),
(419,822,o),
(535,1019,o),
(682,1019,cs)
);
}
);
width = 1174;
},
{
layerId = "2CB18861-F91E-4469-AD22-4F8C4E906F22";
shapes = (
{
closed = 1;
nodes = (
(849,1280,o),
(956,1186,o),
(916,962,cs),
(862,658,o),
(225,202,o),
(23,59,c),
(13,0,l),
(802,0,l),
(813,64,l),
(136,64,l),
(229,130,o),
(924,629,o),
(983,963,cs),
(1029,1222,o),
(883,1344,o),
(683,1344,cs),
(376,1344,o),
(195,1078,o),
(187,1061,c),
(245,1037,l),
(251,1048,o),
(415,1280,o),
(672,1280,cs)
);
}
);
width = 1046;
}
);
unicode = 50;
},
{
glyphname = three;
layers = (
{
layerId = "C4E47923-0598-4673-A08C-5FB6011F6DED";
shapes = (
{
closed = 1;
nodes = (
(440,872,l),
(474,960,o),
(538,1038,o),
(647,1038,cs),
(712,1038,o),
(753,986,o),
(743,933,cs),
(729,861,o),
(688,827,o),
(615,827,cs),
(581,827,l),
(533,557,l),
(559,557,l),
(631,557,o),
(688,511,o),
(675,437,cs),
(659,348,o),
(608,307,o),
(515,307,cs),
(425,307,o),
(381,430,o),
(377,506,c),
(-8,333,l),
(2,209,o),
(155,-24,o),
(458,-24,cs),
(786,-24,o),
(1003,132,o),
(1054,424,cs),
(1081,579,o),
(983,704,o),
(913,718,c),
(999,747,o),
(1067,827,o),
(1092,962,cs),
(1133,1187,o),
(936,1344,o),
(704,1344,cs),
(383,1344,o),
(235,1200,o),
(158,1019,c)
);
}
);
width = 1104;
},
{
layerId = "2CB18861-F91E-4469-AD22-4F8C4E906F22";
shapes = (
{
closed = 1;
nodes = (
(305,1126,l),
(306,1131,o),
(399,1280,o),
(621,1280,cs),
(819,1280,o),
(908,1142,o),
(883,1002,cs),
(849,811,o),
(707,723,o),
(527,723,cs),
(493,723,l),
(483,661,l),
(509,661,l),
(675,661,o),
(835,567,o),
(801,370,cs),
(766,165,o),
(642,40,o),
(399,40,cs),
(219,40,o),
(110,179,o),
(97,248,c),
(33,213,l),
(48,135,o),
(177,-24,o),
(390,-24,cs),
(666,-24,o),
(825,121,o),
(870,370,cs),
(904,560,o),
(756,687,o),
(648,694,c),
(798,713,o),
(914,814,o),
(948,1005,cs),
(977,1169,o),
(875,1344,o),
(635,1344,cs),
(384,1344,o),
(258,1179,o),
(246,1155,c)
);
}
);
width = 1000;
}
);
unicode = 51;
},
{
glyphname = four;
layers = (
{
layerId = "C4E47923-0598-4673-A08C-5FB6011F6DED";
shapes = (
{
closed = 1;
nodes = (
(620,1320,l),
(20,581,l),
(-33,278,l),
(503,278,l),
(454,0,l),
(840,0,l),
(889,278,l),
(1043,278,l),
(1102,613,l),
(948,613,l),
(1073,1320,l)
);
},
{
closed = 1;
nodes = (
(409,613,l),
(601,851,l),
(604,851,l),
(562,613,l)
);
}
);
width = 1098;
},
{
layerId = "2CB18861-F91E-4469-AD22-4F8C4E906F22";
shapes = (
{
closed = 1;
nodes = (
(791,1320,l),
(41,339,l),
(30,278,l),
(595,278,l),
(546,0,l),
(610,0,l),
(659,278,l),
(809,278,l),
(820,342,l),
(670,342,l),
(843,1320,l)
);
},
{
closed = 1;
nodes = (
(121,342,l),
(752,1166,l),
(752,1166,l),
(606,342,l)
);
}
);
width = 930;
}
);
unicode = 52;
},
{
glyphname = five;
layers = (
{
layerId = "C4E47923-0598-4673-A08C-5FB6011F6DED";
shapes = (
{
closed = 1;
nodes = (
(-6,286,l),
(20,150,o),
(174,-24,o),
(447,-24,cs),
(767,-24,o),
(983,132,o),
(1042,467,cs),
(1093,758,o),
(885,888,o),
(712,888,cs),
(621,888,o),
(557,867,o),
(539,850,c),
(590,986,l),
(1068,986,l),
(1127,1320,l),
(327,1320,l),
(83,624,l),
(377,507,l),
(409,551,o),
(446,584,o),
(538,584,cs),
(620,584,o),
(662,522,o),
(648,443,cs),
(631,347,o),
(582,296,o),
(487,296,cs),
(409,296,o),
(360,344,o),
(349,427,c)
);
}
);
width = 1096;
},
{
layerId = "2CB18861-F91E-4469-AD22-4F8C4E906F22";
shapes = (
{
closed = 1;
nodes = (
(70,184,l),
(70,184,o),
(149,-24,o),
(409,-24,cs),
(712,-24,o),
(858,139,o),
(908,432,cs),
(950,679,o),
(797,834,o),
(614,834,cs),
(410,834,o),
(324,751,o),
(301,707,c),
(477,1256,l),
(1002,1256,l),
(1014,1320,l),
(427,1320,l),
(191,594,l),
(256,576,l),
(317,687,o),
(411,770,o),
(597,770,cs),
(762,770,o),
(877,636,o),
(844,432,cs),
(801,168,o),
(664,40,o),
(420,40,cs),
(201,40,o),
(137,224,o),
(137,224,c)
);
}
);
width = 1037;
}
);
rightKerningGroup = 6;
unicode = 53;
},
{
glyphname = six;
layers = (
{
layerId = "C4E47923-0598-4673-A08C-5FB6011F6DED";
shapes = (
{
closed = 1;
nodes = (
(698.46,893,o),
(682.226,886,o),
(673.168,880,c),
(1138.752,1320,l),
(688.752,1320,l),
(316.511,950,ls),
(207.644,843,o),
(93.195,693,o),
(51.934,459,cs),
(1.152,171,o),
(228,-24,o),
(481.768,-24,cs),
(792,-24,o),
(1021.096,148,o),
(1074.523,451,cs),
(1120.897,714,o),
(907,893,o),
(738.46,893,c)
);
},
{
closed = 1;
nodes = (
(460,288,o),
(397.183,364,o),
(410.231,438,cs),
(426.277,529,o),
(495,587,o),
(586.504,587,cs),
(660,587,o),
(722.103,511,o),
(709.231,438,cs),
(693.009,346,o),
(625,288,o),
(533.782,288,cs)
);
}
);
width = 1142;
},
{
layerId = "2CB18861-F91E-4469-AD22-4F8C4E906F22";
shapes = (
{
closed = 1;
nodes = (
(474.644,843,o),
(364.004,794,o),
(316.069,749,c),
(874.752,1320,l),
(792.752,1320,l),
(320.704,832,ls),
(209.426,717,o),
(117.149,602,o),
(86.292,427,cs),
(44.678,191,o),
(218,-24,o),
(440.768,-24,cs),
(707,-24,o),
(909.98,136,o),
(957.941,408,cs),
(997.086,630,o),
(821,843,o),
(609.644,843,cs)
);
},
{
closed = 1;
nodes = (
(274,38,o),
(118.026,227,o),
(150.47,411,cs),
(190.497,638,o),
(361,782,o),
(588.888,782,cs),
(772,782,o),
(926.738,594,o),
(894.47,411,cs),
(854.268,183,o),
(685,38,o),
(457.7,38,cs)
);
}
);
width = 1080;
}
);
rightKerningGroup = 6;
unicode = 54;
},
{
glyphname = seven;
layers = (
{
layerId = "C4E47923-0598-4673-A08C-5FB6011F6DED";
shapes = (
{
closed = 1;
nodes = (
(195,986,l),
(760,986,l),
(5,0,l),
(430,0,l),
(1225,1066,l),
(1270,1320,l),
(254,1320,l)
);
}
);
width = 1125;
},
{
layerId = "2CB18861-F91E-4469-AD22-4F8C4E906F22";
shapes = (
{
closed = 1;
nodes = (
(277,1256,l),
(971,1256,l),
(35,0,l),
(110,0,l),
(1050,1262,l),
(1060,1320,l),
(289,1320,l)
);
}
);
width = 997;
}
);
unicode = 55;
},
{
glyphname = eight;
layers = (
{
layerId = "C4E47923-0598-4673-A08C-5FB6011F6DED";
shapes = (
{
closed = 1;
nodes = (
(781,-24,o),
(1023,114,o),
(1067,371,cs),
(1095,535,o),
(1000,657,o),
(904,712,c),
(1047,797,o),
(1086,832,o),
(1114,992,cs),
(1151,1200,o),
(963,1344,o),
(723,1344,cs),
(446,1344,o),
(244,1229,o),
(202,992,cs),
(178,855,o),
(251,762,o),
(321,712,c),
(143,629,o),
(70,564,o),
(36,371,cs),
(-4,145,o),
(236,-24,o),
(484,-24,cs)
);
},
{
closed = 1;
nodes = (
(484,310,o),
(438,368,o),
(448,424,cs),
(460,494,o),
(511,538,o),
(581,538,cs),
(638,538,o),
(685,480,o),
(675,424,cs),
(663,354,o),
(612,310,o),
(541,310,cs)
);
},
{
closed = 1;
nodes = (
(578,830,o),
(534,885,o),
(544,941,cs),
(556,1008,o),
(604,1050,o),
(673,1050,cs),
(727,1050,o),
(773,995,o),
(763,941,cs),
(750,872,o),
(701,830,o),
(634,830,cs)
);
}
);
width = 1139;
},
{
layerId = "2CB18861-F91E-4469-AD22-4F8C4E906F22";
shapes = (
{
closed = 1;
nodes = (
(707,-24,o),
(862,121,o),
(903,357,cs),
(937,550,o),
(812,677,o),
(705,712,c),
(846,763,o),
(927,827,o),
(960,1014,cs),
(991,1190,o),
(857,1344,o),
(682,1344,cs),
(466,1344,o),
(325,1229,o),
(286,1014,cs),
(257,852,o),
(364,740,o),
(436,712,c),
(259,660,o),
(153,580,o),
(113,357,cs),
(79,168,o),
(219,-24,o),
(442,-24,cs)
);
},
{
closed = 1;
nodes = (
(285,40,o),
(152,193,o),
(181,358,cs),
(217,561,o),
(358,677,o),
(564,677,cs),
(729,677,o),
(864,524,o),
(834,358,cs),
(798,156,o),
(656,40,o),
(452,40,cs)
);
},
{
closed = 1;
nodes = (
(441,741,o),
(328,875,o),
(352,1011,cs),
(381,1177,o),
(503,1280,o),
(671,1280,cs),
(805,1280,o),
(916,1145,o),
(892,1011,cs),
(862,843,o),
(742,741,o),
(576,741,cs)
);
}
);
width = 1075;
}
);
unicode = 56;
},
{
glyphname = fraction;
layers = (
{
layerId = "C4E47923-0598-4673-A08C-5FB6011F6DED";
shapes = (
{
closed = 1;
nodes = (
(-339.2,0,l),
(-96,0,l),
(905.6,1320,l),
(662.4,1320,l)
);
}
);
width = 478;
},
{
layerId = "2CB18861-F91E-4469-AD22-4F8C4E906F22";
shapes = (
{
closed = 1;
nodes = (
(-339.2,0,l),
(-265.6,0,l),
(736,1320,l),
(662.4,1320,l)
);
}
);
width = 308;
}
);
rightKerningGroup = d;
unicode = 8260;
},
{
glyphname = period;
layers = (
{
layerId = "C4E47923-0598-4673-A08C-5FB6011F6DED";
shapes = (
{
closed = 1;
nodes = (
(336,-24,o),
(435.2,57.6,o),
(454.4,164.8,cs),
(478.4,297.6,o),
(388.8,409.6,o),
(254.4,409.6,cs),
(147.2,409.6,o),
(48,328,o),
(30.4,219.2,cs),
(6.4,88,o),
(94.4,-24,o),
(225.6,-24,cs)
);
}
);
width = 558;
},
{
layerId = "2CB18861-F91E-4469-AD22-4F8C4E906F22";
shapes = (
{
closed = 1;
nodes = (
(256,-24,o),
(304,17.6,o),
(313.6,67.2,c),
(323.2,126.4,o),
(288,169.6,o),
(230.4,169.6,cs),
(180.8,169.6,o),
(132.8,128,o),
(123.2,76.8,cs),
(113.6,19.2,o),
(150.4,-24,o),
(206.4,-24,cs)
);
}
);
width = 558;
}
);
leftKerningGroup = comma;
rightKerningGroup = d;
unicode = 46;
},
{
glyphname = comma;
layers = (
{
guides = (
{
position = "{0, 202}";
},
{
position = "{0, -24}";
}
);
layerId = "C4E47923-0598-4673-A08C-5FB6011F6DED";
shapes = (
{
closed = 1;
nodes = (
(176,411.2,o),
(75.2,328,o),
(57.6,222.4,cs),
(40,113.6,o),
(94.4,38.4,o),
(166.4,11.2,c),
(97.6,-145.6,o),
(-19.2,-273.6,o),
(-19.2,-273.6,c),
(81.6,-350.4,l),
(254.4,-216,o),
(438.4,-38.4,o),
(473.6,171.2,cs),
(497.6,302.4,o),
(409.6,411.2,o),
(280,411.2,cs)
);
}
);
width = 606;
},
{
guides = (
{
position = "{0, 202}";
},
{
position = "{0, -24}";
}
);
layerId = "2CB18861-F91E-4469-AD22-4F8C4E906F22";
shapes = (
{
closed = 1;
nodes = (
(110.4,168,o),
(64,128,o),
(52.8,68.8,c),
(40,12.8,o),
(94.4,-54.4,o),
(177.6,-16,c),
(144,-99.2,o),
(14.4,-155.2,o),
(14.4,-155.2,c),
(62.4,-195.2,l),
(150.4,-153.6,o),
(238.4,-65.6,o),
(262.4,51.2,cs),
(276.8,116.8,o),
(233.6,168,o),
(168,168,cs)
);
}
);
width = 436;
}
);
leftKerningGroup = comma;
rightKerningGroup = d;
unicode = 44;
},
{
glyphname = exclam;
layers = (
{
layerId = "C4E47923-0598-4673-A08C-5FB6011F6DED";
shapes = (
{
closed = 1;
nodes = (
(427.2,478.4,l),
(632,1376,l),
(270.4,1376,l),
(158.4,478.4,l)
);
},
{
closed = 1;
nodes = (
(336,-24,o),
(435.2,57.6,o),
(454.4,164.8,cs),
(478.4,297.6,o),
(388.8,409.6,o),
(254.4,409.6,cs),
(147.2,409.6,o),
(48,328,o),
(30.4,219.2,cs),
(6.4,88,o),
(94.4,-24,o),
(225.6,-24,cs)
);
}
);
width = 558;
},
{
layerId = "2CB18861-F91E-4469-AD22-4F8C4E906F22";
shapes = (
{
closed = 1;
nodes = (
(286.4,313.6,l),
(491.2,1376,l),
(404.8,1376,l),
(238.4,313.6,l)
);
},
{
closed = 1;
nodes = (
(256,-24,o),
(304,17.6,o),
(313.6,67.2,c),
(323.2,126.4,o),
(288,169.6,o),
(230.4,169.6,cs),
(180.8,169.6,o),
(132.8,128,o),
(123.2,76.8,cs),
(113.6,19.2,o),
(150.4,-24,o),
(206.4,-24,cs)
);
}
);
width = 558;
}
);
rightKerningGroup = d;
unicode = 33;
},
{
glyphname = question;
layers = (
{
layerId = "C4E47923-0598-4673-A08C-5FB6011F6DED";
shapes = (
{
closed = 1;
nodes = (
(668.8,478.4,l),
(672,507.2,ls),
(680,566.4,o),
(713.6,595.2,o),
(780.8,620.8,c),
(931.2,672,o),
(1046.4,766.4,o),
(1070.4,904,cs),
(1115.2,1156.8,o),
(883.2,1344,o),
(630.4,1344,cs),
(248,1344,o),
(145.6,1033.6,o),
(147.2,1033.6,c),
(422.4,854.4,l),
(449.6,923.2,o),
(513.6,1017.6,o),
(619.2,1017.6,cs),
(638.4,1017.6,o),
(656,988.8,o),
(652.8,958.4,cs),
(638.4,848,o),
(563.2,873.6,o),
(440,817.6,cs),
(368,785.6,o),
(356.8,715.2,o),
(348.8,644.8,cs),
(328,478.4,l)
);
},
{
closed = 1;
nodes = (
(540.8,-24,o),
(636.8,57.6,o),
(659.2,164.8,cs),
(684.8,297.6,o),
(593.6,409.6,o),
(460.8,409.6,cs),
(353.6,409.6,o),
(254.4,328,o),
(235.2,219.2,cs),
(212.8,88,o),
(300.8,-24,o),
(432,-24,cs)
);
}
);
width = 1020;
},
{
layerId = "2CB18861-F91E-4469-AD22-4F8C4E906F22";
shapes = (
{
closed = 1;
nodes = (
(408,313.6,l),
(444.8,520,ls),
(451.2,553.6,o),
(452.8,630.4,o),
(508.8,667.2,cs),
(681.6,779.2,o),
(830.4,862.4,o),
(862.4,1035.2,cs),
(896,1225.6,o),
(798.4,1344,o),
(555.2,1344,cs),
(299.2,1344,o),
(168,1129.6,o),
(158.4,1102.4,c),
(225.6,1083.2,l),
(249.6,1152,o),
(377.6,1283.2,o),
(553.6,1283.2,cs),
(723.2,1283.2,o),
(822.4,1204.8,o),
(795.2,1044.8,cs),
(768,888,o),
(598.4,798.4,o),
(489.6,731.2,cs),
(412.8,684.8,o),
(395.2,619.2,o),
(384,548.8,c),
(340.8,313.6,l)
);
},
{
closed = 1;
nodes = (
(369.6,-24,o),
(420.8,17.6,o),
(427.2,67.2,cs),
(433.6,126.4,o),
(400,169.6,o),
(342.4,169.6,cs),
(292.8,169.6,o),
(243.2,128,o),
(235.2,76.8,cs),
(225.6,19.2,o),
(262.4,-24,o),
(320,-24,cs)
);
}
);
width = 788;
}
);
rightKerningGroup = d;
unicode = 63;
},
{
glyphname = bullet;
layers = (
{
layerId = "C4E47923-0598-4673-A08C-5FB6011F6DED";
shapes = (
{
closed = 1;
nodes = (
(512,948.8,o),
(326.4,795.2,o),
(292.8,596.8,cs),
(254.4,376,o),
(401.6,193.6,o),
(622.4,193.6,cs),
(819.2,193.6,o),
(1006.4,345.6,o),
(1040,542.4,cs),
(1080,764.8,o),
(929.6,948.8,o),
(707.2,948.8,cs)
);
}
);
width = 1277;
},
{
layerId = "2CB18861-F91E-4469-AD22-4F8C4E906F22";
shapes = (
{
closed = 1;
nodes = (
(376,720,o),
(302.4,654.4,o),
(288,574.4,cs),
(273.6,488,o),
(328,422.4,o),
(414.4,422.4,cs),
(494.4,422.4,o),
(569.6,486.4,o),
(584,564.8,c),
(598.4,652.8,o),
(542.4,720,o),
(456,720,cs)
);
}
);
width = 816;
}
);
rightKerningGroup = d;
unicode = 8226;
},
{
glyphname = asterisk;
layers = (
{
layerId = "C4E47923-0598-4673-A08C-5FB6011F6DED";
shapes = (
{
closed = 1;
nodes = (
(648,1384,l),
(481.6,1384,l),
(449.6,1208,l),
(278.4,1257.6,l),
(203.2,1104,l),
(368,1041.6,l),
(243.2,889.6,l),
(363.2,801.6,l),
(496,939.2,l),
(577.6,803.2,l),
(712,889.6,l),
(636.8,1041.6,l),
(822.4,1104,l),
(796.8,1257.6,l),
(617.6,1208,l)
);
}
);
width = 781;
},
{
layerId = "2CB18861-F91E-4469-AD22-4F8C4E906F22";
shapes = (
{
closed = 1;
nodes = (
(592,1356.8,l),
(526.4,1356.8,l),
(484.8,1142.4,l),
(294.4,1211.2,l),
(264,1148.8,l),
(452.8,1075.2,l),
(299.2,902.4,l),
(344,867.2,l),
(504,1035.2,l),
(593.6,865.6,l),
(649.6,900.8,l),
(563.2,1075.2,l),
(777.6,1148.8,l),
(769.6,1211.2,l),
(555.2,1142.4,l)
);
}
);
width = 781;
}
);
rightKerningGroup = d;
unicode = 42;
},
{
glyphname = numbersign;
layers = (
{
layerId = "C4E47923-0598-4673-A08C-5FB6011F6DED";
shapes = (
{
closed = 1;
nodes = (
(92.8,0,l),
(361.6,0,l),
(942.4,1320,l),
(673.6,1320,l)
);
},
{
closed = 1;
nodes = (
(476.8,0,l),
(747.2,0,l),
(1326.4,1320,l),
(1057.6,1320,l)
);
},
{
closed = 1;
nodes = (
(272,747.2,l),
(1208,747.2,l),
(1328,996.8,l),
(392,996.8,l)
);
},
{
closed = 1;
nodes = (
(94.4,324.8,l),
(1030.4,324.8,l),
(1150.4,574.4,l),
(212.8,574.4,l)
);
}
);
width = 1387;
},
{
layerId = "2CB18861-F91E-4469-AD22-4F8C4E906F22";
shapes = (
{
closed = 1;
nodes = (
(131.2,0,l),
(190.4,0,l),
(772.8,1320,l),
(713.6,1320,l)
);
},
{
closed = 1;
nodes = (
(475.2,0,l),
(532.8,0,l),
(1115.2,1320,l),
(1057.6,1320,l)
);
},
{
closed = 1;
nodes = (
(291.2,856,l),
(1112,856,l),
(1142.4,915.2,l),
(320,915.2,l)
);
},
{
closed = 1;
nodes = (
(107.2,406.4,l),
(929.6,406.4,l),
(958.4,465.6,l),
(137.6,465.6,l)
);
}
);
width = 1214;
}
);
rightKerningGroup = d;
unicode = 35;
},
{
glyphname = slash;
layers = (
{
layerId = "C4E47923-0598-4673-A08C-5FB6011F6DED";
shapes = (
{
closed = 1;
nodes = (
(-68.8,-192,l),
(246.4,-192,l),
(1182.4,1376,l),
(867.2,1376,l)
);
}
);
width = 1050;
},
{
layerId = "2CB18861-F91E-4469-AD22-4F8C4E906F22";
shapes = (
{
closed = 1;
nodes = (
(-68.8,-192,l),
(19.2,-192,l),
(955.2,1376,l),
(867.2,1376,l)
);
}
);
width = 823;
}
);
rightKerningGroup = d;
unicode = 47;
},
{
glyphname = backslash;
layers = (
{
layerId = "C4E47923-0598-4673-A08C-5FB6011F6DED";
shapes = (
{
closed = 1;
nodes = (
(504,1376,l),
(206.4,1376,l),
(622.4,0,l),
(920,0,l)
);
}
);
width = 1030;
},
{
layerId = "2CB18861-F91E-4469-AD22-4F8C4E906F22";
shapes = (
{
closed = 1;
nodes = (
(292.8,1376,l),
(206.4,1376,l),
(624,0,l),
(708.8,0,l)
);
}
);
width = 818;
}
);
rightKerningGroup = d;
unicode = 92;
},
{
glyphname = parenleft;
layers = (
{
guides = (
{
angle = 30.098;
position = "{493, -245}";
}
);
layerId = "C4E47923-0598-4673-A08C-5FB6011F6DED";
shapes = (
{
closed = 1;
nodes = (
(444.8,-331.2,l),
(481.6,-390.4,o),
(300.8,-150.4,o),
(404.8,444.8,cs),
(526.4,1113.6,o),
(820.8,1377.6,o),
(760,1316.8,c),
(550.4,1403.2,l),
(611.2,1472,o),
(195.2,1134.4,o),
(83.2,505.6,cs),
(-28.8,-131.2,o),
(241.6,-483.2,o),
(201.6,-416,c)
);
}
);
width = 725;
},
{
guides = (
{
angle = 30.098;
position = "{493, -245}";
}
);
layerId = "2CB18861-F91E-4469-AD22-4F8C4E906F22";
shapes = (
{
closed = 1;
nodes = (
(324.8,-353.6,l),
(227.2,-201.6,o),
(164.8,112,o),
(227.2,480,cs),
(288,841.6,o),
(475.2,1196.8,o),
(628.8,1350.4,c),
(558.4,1392,l),
(400,1216,o),
(219.2,857.6,o),
(152,470.4,cs),
(86.4,96,o),
(145.6,-228.8,o),
(246.4,-396.8,c)
);
}
);
width = 470;
}
);
rightKerningGroup = bracket;
unicode = 40;
},
{
glyphname = braceleft;
layers = (
{
layerId = "C4E47923-0598-4673-A08C-5FB6011F6DED";
shapes = (
{
closed = 1;
nodes = (
(118.4,396.8,l),
(171.2,396.8,o),
(209.6,388.8,o),
(196.8,315.2,cs),
(118.4,-112,l),
(97.6,-244.8,o),
(158.4,-416,o),
(363.2,-416,cs),
(536,-416,l),
(580.8,-164.8,l),
(489.6,-164.8,ls),
(464,-164.8,o),
(422.4,-136,o),
(433.6,-72,cs),
(497.6,294.4,ls),
(513.6,384,o),
(467.2,436.8,o),
(436.8,467.2,c),
(502.4,510.4,o),
(542.4,545.6,o),
(558.4,636.8,cs),
(622.4,1001.6,ls),
(633.6,1065.6,o),
(715.2,1124.8,o),
(740.8,1124.8,cs),
(808,1124.8,l),
(854.4,1376,l),
(654.4,1376,ls),
(449.6,1376,o),
(356.8,1233.6,o),
(332.8,1100.8,cs),
(257.6,673.6,ls),
(244.8,600,o),
(176,563.2,o),
(123.2,563.2,c)
);
}
);
width = 780;
},
{
layerId = "2CB18861-F91E-4469-AD22-4F8C4E906F22";
shapes = (
{
closed = 1;
nodes = (
(102.4,424,l),
(209.6,424,o),
(222.4,376,o),
(209.6,302.4,cs),
(134.4,-124.8,ls),
(110.4,-257.6,o),
(57.6,-416,o),
(262.4,-416,cs),
(336,-416,l),
(352,-329.6,l),
(324.8,-329.6,ls),
(190.4,-329.6,o),
(193.6,-286.4,o),
(204.8,-222.4,cs),
(297.6,307.2,ls),
(313.6,396.8,o),
(284.8,470.4,o),
(212.8,478.4,c),
(291.2,488,o),
(342.4,558.4,o),
(358.4,649.6,cs),
(452.8,1179.2,ls),
(464,1243.2,o),
(480,1289.6,o),
(616,1289.6,cs),
(636.8,1289.6,l),
(651.2,1376,l),
(572.8,1376,ls),
(368,1376,o),
(372.8,1220.8,o),
(348.8,1088,cs),
(273.6,660.8,ls),
(260.8,587.2,o),
(225.6,536,o),
(118.4,536,c)
);
}
);
width = 578;
}
);
rightKerningGroup = d;
unicode = 123;
},
{
glyphname = bracketleft;
layers = (
{
layerId = "C4E47923-0598-4673-A08C-5FB6011F6DED";
shapes = (
{
closed = 1;
nodes = (
(528,-416,l),
(568,-190.4,l),
(297.6,-190.4,l),
(532.8,1150.4,l),
(803.2,1150.4,l),
(844.8,1376,l),
(267.2,1376,l),
(-49.6,-416,l)
);
}
);
width = 772;
},
{
layerId = "2CB18861-F91E-4469-AD22-4F8C4E906F22";
shapes = (
{
closed = 1;
nodes = (
(308.8,-416,l),
(324.8,-326.4,l),
(54.4,-326.4,l),
(339.2,1286.4,l),
(609.6,1286.4,l),
(624,1376,l),
(265.6,1376,l),
(-49.6,-416,l)
);
}
);
width = 549;
}
);
rightKerningGroup = bracket;
unicode = 91;
},
{
glyphname = hyphen;
layers = (
{
layerId = "C4E47923-0598-4673-A08C-5FB6011F6DED";
shapes = (
{
closed = 1;
nodes = (
(592,302.4,l),
(648,624,l),
(132.8,624,l),
(76.8,302.4,l)
);
}
);
width = 707;
},
{
layerId = "2CB18861-F91E-4469-AD22-4F8C4E906F22";
shapes = (
{
closed = 1;
nodes = (
(616,438.4,l),
(624,488,l),
(108.8,488,l),
(100.8,438.4,l)
);
}
);
width = 707;
}
);
rightKerningGroup = d;
unicode = 45;
},
{
glyphname = endash;
layers = (
{
layerId = "C4E47923-0598-4673-A08C-5FB6011F6DED";
shapes = (
{
closed = 1;
nodes = (
(883.2,302.4,l),
(939.2,624,l),
(36.8,624,l),
(-19.2,302.4,l)
);
}
);
width = 903;
},
{
layerId = "2CB18861-F91E-4469-AD22-4F8C4E906F22";
shapes = (
{
closed = 1;
nodes = (
(771.2,438.4,l),
(779.2,488,l),
(12.8,488,l),
(4.8,438.4,l)
);
}
);
width = 766;
}
);
unicode = 8211;
},
{
glyphname = emdash;
layers = (
{
layerId = "C4E47923-0598-4673-A08C-5FB6011F6DED";
shapes = (
{
closed = 1;
nodes = (
(1873.6,302.4,l),
(1929.6,624,l),
(94.4,624,l),
(36.8,302.4,l)
);
}
);
width = 1950;
},
{
layerId = "2CB18861-F91E-4469-AD22-4F8C4E906F22";
shapes = (
{
closed = 1;
nodes = (
(1596.8,438.4,l),
(1604.8,488,l),
(152,488,l),
(144,438.4,l)
);
}
);
width = 1731;
}
);
unicode = 8212;
},
{
glyphname = underscore;
layers = (
{
layerId = "C4E47923-0598-4673-A08C-5FB6011F6DED";
shapes = (
{
closed = 1;
nodes = (
(763.2,-176,l),
(792,-8,l),
(-75.2,-8,l),
(-104,-176,l)
);
}
);
width = 867;
},
{
layerId = "2CB18861-F91E-4469-AD22-4F8C4E906F22";
shapes = (
{
closed = 1;
nodes = (
(609.6,-120,l),
(620.8,-64,l),
(-83.2,-64,l),
(-92.8,-120,l)
);
}
);
width = 703;
}
);
rightKerningGroup = d;
unicode = 95;
},
{
glyphname = quotesinglbase;
layers = (
{
layerId = "C4E47923-0598-4673-A08C-5FB6011F6DED";
shapes = (
{
closed = 1;
nodes = (
(166.4,406.4,o),
(81.6,334.4,o),
(65.6,244.8,cs),
(48,152,o),
(99.2,88,o),
(155.2,60.8,c),
(96,-76.8,o),
(-3.2,-190.4,o),
(-3.2,-190.4,c),
(91.2,-254.4,l),
(235.2,-137.6,o),
(395.2,16,o),
(427.2,195.2,cs),
(448,308.8,o),
(368,406.4,o),
(254.4,406.4,cs)
);
}
);
width = 501;
},
{
layerId = "2CB18861-F91E-4469-AD22-4F8C4E906F22";
shapes = (
{
closed = 1;
nodes = (
(100.8,179.2,o),
(48,134.4,o),
(35.2,68.8,c),
(25.6,6.4,o),
(80,-65.6,o),
(171.2,-25.6,c),
(134.4,-116.8,o),
(-4.8,-179.2,o),
(-4.8,-179.2,c),
(46.4,-224,l),
(144,-176,o),
(244.8,-80,o),
(268.8,49.6,cs),
(281.6,123.2,o),
(236.8,179.2,o),
(163.2,179.2,cs)
);
}
);
width = 369;
}
);
rightKerningGroup = d;
unicode = 8218;
},
{
glyphname = quotedblbase;
layers = (
{
layerId = "C4E47923-0598-4673-A08C-5FB6011F6DED";
shapes = (
{
closed = 1;
nodes = (
(168,406.4,o),
(81.6,334.4,o),
(65.6,244.8,cs),
(48,152,o),
(99.2,88,o),
(158.4,60.8,c),
(96,-76.8,o),
(-3.2,-190.4,o),
(-3.2,-190.4,c),
(91.2,-254.4,l),
(236.8,-137.6,o),
(393.6,16,o),
(424,195.2,c),
(446.4,308.8,o),
(371.2,406.4,o),
(256,406.4,cs)
);
},
{
closed = 1;
nodes = (
(580.8,406.4,o),
(496,334.4,o),
(481.6,244.8,c),
(462.4,152,o),
(515.2,88,o),
(569.6,60.8,c),
(512,-76.8,o),
(412.8,-190.4,o),
(412.8,-190.4,c),
(505.6,-254.4,l),
(649.6,-137.6,o),
(811.2,16,o),
(841.6,195.2,c),
(864,308.8,o),
(782.4,406.4,o),
(668.8,406.4,cs)
);
}
);
width = 915;
},
{
layerId = "2CB18861-F91E-4469-AD22-4F8C4E906F22";
shapes = (
{
closed = 1;
nodes = (
(99.2,179.2,o),
(48,134.4,o),
(35.2,68.8,c),
(25.6,6.4,o),
(80,-65.6,o),
(171.2,-25.6,c),
(134.4,-116.8,o),
(-4.8,-179.2,o),
(-4.8,-179.2,c),
(46.4,-224,l),
(144,-176,o),
(246.4,-80,o),
(268.8,49.6,cs),
(281.6,123.2,o),
(236.8,179.2,o),
(163.2,179.2,cs)
);
},
{
closed = 1;
nodes = (
(484.8,179.2,o),
(433.6,134.4,o),
(420.8,68.8,c),
(411.2,6.4,o),
(465.6,-65.6,o),
(556.8,-25.6,c),
(520,-116.8,o),
(379.2,-179.2,o),
(379.2,-179.2,c),
(432,-224,l),
(529.6,-176,o),
(630.4,-80,o),
(652.8,49.6,cs),
(667.2,123.2,o),
(622.4,179.2,o),
(548.8,179.2,cs)
);
}
);
width = 755;
}
);
rightKerningGroup = d;
unicode = 8222;
},
{
glyphname = quotedblleft;
layers = (
{
layerId = "C4E47923-0598-4673-A08C-5FB6011F6DED";
shapes = (
{
closed = 1;
nodes = (
(408,699.2,o),
(488,766.4,o),
(502.4,857.6,c),
(520,942.4,o),
(483.2,1012.8,o),
(422.4,1051.2,c),
(483.2,1190.4,o),
(595.2,1302.4,o),
(595.2,1302.4,c),
(499.2,1368,l),
(344,1251.2,o),
(182.4,1100.8,o),
(148.8,910.4,cs),
(129.6,796.8,o),
(206.4,699.2,o),
(320,699.2,cs)
);
},
{
closed = 1;
nodes = (
(836.8,699.2,o),
(918.4,766.4,o),
(932.8,857.6,c),
(950.4,942.4,o),
(913.6,1012.8,o),
(851.2,1051.2,c),
(913.6,1190.4,o),
(1025.6,1302.4,o),
(1025.6,1302.4,c),
(929.6,1368,l),
(772.8,1251.2,o),
(614.4,1100.8,o),
(582.4,910.4,cs),
(561.6,796.8,o),
(633.6,699.2,o),
(748.8,699.2,cs)
);
}
);
width = 927;
},
{
layerId = "2CB18861-F91E-4469-AD22-4F8C4E906F22";
shapes = (
{
closed = 1;
nodes = (
(321.6,920,o),
(387.2,974.4,o),
(398.4,1040,cs),
(412.8,1123.2,o),
(316.8,1177.6,o),
(240,1108.8,c),
(275.2,1198.4,o),
(379.2,1262.4,o),
(379.2,1262.4,c),
(334.4,1307.2,l),
(262.4,1259.2,o),
(166.4,1152,o),
(147.2,1051.2,cs),
(134.4,977.6,o),
(184,920,o),
(257.6,920,cs)
);
},
{
closed = 1;
nodes = (
(667.2,920,o),
(732.8,974.4,o),
(744,1040,cs),
(758.4,1123.2,o),
(662.4,1177.6,o),
(585.6,1108.8,c),
(620.8,1198.4,o),
(724.8,1262.4,o),
(724.8,1262.4,c),
(680,1307.2,l),
(608,1259.2,o),
(510.4,1152,o),
(491.2,1051.2,c),
(480,977.6,o),
(529.6,920,o),
(603.2,920,cs)
);
}
);
width = 732;
}
);
leftKerningGroup = quotesingle;
rightKerningGroup = quotesingle;
unicode = 8220;
},
{
glyphname = quotedblright;
layers = (
{
layerId = "C4E47923-0598-4673-A08C-5FB6011F6DED";
shapes = (
{
closed = 1;
nodes = (
(748.8,1368,o),
(667.2,1300.8,o),
(651.2,1209.6,cs),
(636.8,1124.8,o),
(672,1054.4,o),
(734.4,1016,c),
(675.2,876.8,o),
(560,764.8,o),
(560,764.8,c),
(656,699.2,l),
(812.8,816,o),
(972.8,966.4,o),
(1008,1155.2,cs),
(1028.8,1270.4,o),
(952,1368,o),
(836.8,1368,cs)
);
},
{
closed = 1;
nodes = (
(321.6,1368,o),
(236.8,1300.8,o),
(220.8,1209.6,cs),
(206.4,1124.8,o),
(241.6,1054.4,o),
(305.6,1016,c),
(244.8,876.8,o),
(129.6,764.8,o),
(129.6,764.8,c),
(225.6,699.2,l),
(384,816,o),
(540.8,966.4,o),
(576,1155.2,cs),
(595.2,1270.4,o),
(523.2,1368,o),
(409.6,1368,cs)
);
}
);
width = 930;
},
{
layerId = "2CB18861-F91E-4469-AD22-4F8C4E906F22";
shapes = (
{
closed = 1;
nodes = (
(633.6,1283.2,o),
(569.6,1228.8,o),
(558.4,1163.2,cs),
(544,1080,o),
(638.4,1027.2,o),
(718.4,1096,c),
(680,1006.4,o),
(576,942.4,o),
(576,942.4,c),
(620.8,896,l),
(694.4,945.6,o),
(790.4,1051.2,o),
(808,1153.6,cs),
(820.8,1225.6,o),
(771.2,1283.2,o),
(700.8,1283.2,cs)
);
},
{
closed = 1;
nodes = (
(288,1283.2,o),
(224,1228.8,o),
(212.8,1163.2,cs),
(198.4,1080,o),
(292.8,1027.2,o),
(371.2,1096,c),
(336,1006.4,o),
(230.4,942.4,o),
(230.4,942.4,c),
(275.2,896,l),
(348.8,945.6,o),
(444.8,1051.2,o),
(464,1153.6,c),
(475.2,1225.6,o),
(425.6,1283.2,o),
(353.6,1283.2,cs)
);
}
);
width = 730;
}
);
leftKerningGroup = quotesingle;
rightKerningGroup = quotesingle;
unicode = 8221;
},
{
glyphname = quoteleft;
layers = (
{
layerId = "C4E47923-0598-4673-A08C-5FB6011F6DED";
shapes = (
{
closed = 1;
nodes = (
(385.6,699.2,o),
(464,766.4,o),
(478.4,857.6,c),
(496,942.4,o),
(460.8,1012.8,o),
(398.4,1051.2,c),
(459.2,1190.4,o),
(571.2,1302.4,o),
(571.2,1302.4,c),
(475.2,1368,l),
(321.6,1251.2,o),
(158.4,1100.8,o),
(126.4,910.4,cs),
(105.6,796.8,o),
(182.4,699.2,o),
(296,699.2,cs)
);
}
);
width = 520;
},
{
layerId = "2CB18861-F91E-4469-AD22-4F8C4E906F22";
shapes = (
{
closed = 1;
nodes = (
(324.8,920,o),
(390.4,974.4,o),
(403.2,1040,c),
(416,1123.2,o),
(320,1177.6,o),
(243.2,1108.8,c),
(278.4,1198.4,o),
(382.4,1262.4,o),
(382.4,1262.4,c),
(339.2,1307.2,l),
(265.6,1259.2,o),
(169.6,1152,o),
(150.4,1051.2,c),
(139.2,977.6,o),
(187.2,920,o),
(260.8,920,cs)
);
}
);
width = 329;
}
);
leftKerningGroup = quotesingle;
rightKerningGroup = quotesingle;
unicode = 8216;
},
{
glyphname = quoteright;
layers = (
{
layerId = "C4E47923-0598-4673-A08C-5FB6011F6DED";
shapes = (
{
closed = 1;
nodes = (
(302.4,1368,o),
(220.8,1300.8,o),
(204.8,1209.6,cs),
(190.4,1124.8,o),
(225.6,1054.4,o),
(288,1016,c),
(228.8,876.8,o),
(113.6,764.8,o),
(113.6,764.8,c),
(209.6,699.2,l),
(366.4,816,o),
(526.4,966.4,o),
(561.6,1155.2,cs),
(582.4,1270.4,o),
(505.6,1368,o),
(390.4,1368,cs)
);
}
);
width = 502;
},
{
layerId = "2CB18861-F91E-4469-AD22-4F8C4E906F22";
shapes = (
{
closed = 1;
nodes = (
(272,1283.2,o),
(208,1228.8,o),
(196.8,1163.2,cs),
(182.4,1080,o),
(276.8,1027.2,o),
(356.8,1096,c),
(320,1006.4,o),
(214.4,942.4,o),
(214.4,942.4,c),
(259.2,896,l),
(332.8,945.6,o),
(428.8,1051.2,o),
(446.4,1153.6,cs),
(459.2,1225.6,o),
(409.6,1283.2,o),
(339.2,1283.2,cs)
);
}
);
width = 379;
}
);
leftKerningGroup = quotesingle;
rightKerningGroup = quotesingle;
unicode = 8217;
},
{
glyphname = guillemetleft;
layers = (
{
layerId = "C4E47923-0598-4673-A08C-5FB6011F6DED";
shapes = (
{
closed = 1;
nodes = (
(369.6,444.8,l),
(624,712,l),
(449.6,864,l),
(59.2,444.8,l),
(320,27.2,l),
(529.6,176,l)
);
},
{
closed = 1;
nodes = (
(782.4,444.8,l),
(1038.4,712,l),
(864,864,l),
(473.6,444.8,l),
(732.8,27.2,l),
(942.4,176,l)
);
}
);
width = 1072;
},
{
layerId = "2CB18861-F91E-4469-AD22-4F8C4E906F22";
shapes = (
{
closed = 1;
nodes = (
(120,444.8,l),
(435.2,768,l),
(398.4,798.4,l),
(59.2,444.8,l),
(275.2,89.6,l),
(321.6,124.8,l)
);
},
{
closed = 1;
nodes = (
(484.8,444.8,l),
(800,768,l),
(763.2,798.4,l),
(424,444.8,l),
(640,89.6,l),
(686.4,124.8,l)
);
}
);
width = 823;
}
);
rightKerningGroup = d;
unicode = 171;
},
{
glyphname = guilsinglleft;
layers = (
{
layerId = "C4E47923-0598-4673-A08C-5FB6011F6DED";
shapes = (
{
closed = 1;
nodes = (
(369.6,444.8,l),
(624,712,l),
(449.6,864,l),
(59.2,444.8,l),
(320,27.2,l),
(529.6,176,l)
);
}
);
width = 658;
},
{
layerId = "2CB18861-F91E-4469-AD22-4F8C4E906F22";
shapes = (
{
closed = 1;
nodes = (
(120,444.8,l),
(435.2,768,l),
(398.4,798.4,l),
(59.2,444.8,l),
(275.2,89.6,l),
(321.6,124.8,l)
);
}
);
width = 458;
}
);
rightKerningGroup = d;
unicode = 8249;
},
{
glyphname = quotedbl;
layers = (
{
layerId = "C4E47923-0598-4673-A08C-5FB6011F6DED";
shapes = (
{
closed = 1;
nodes = (
(336,1366.4,o),
(256,1316.8,o),
(243.2,1244.8,c),
(243.2,1238.4,l),
(227.2,1153.6,o),
(217.6,700.8,o),
(217.6,700.8,c),
(358.4,688,l),
(358.4,688,o),
(550.4,1123.2,o),
(566.4,1208,c),
(568,1214.4,l),
(580.8,1286.4,o),
(502.4,1366.4,o),
(404.8,1366.4,cs)
);
},
{
closed = 1;
nodes = (
(726.4,1366.4,o),
(646.4,1316.8,o),
(633.6,1244.8,c),
(633.6,1238.4,l),
(617.6,1153.6,o),
(608,700.8,o),
(608,700.8,c),
(748.8,688,l),
(748.8,688,o),
(940.8,1123.2,o),
(955.2,1208,c),
(956.8,1214.4,l),
(969.6,1286.4,o),
(892.8,1366.4,o),
(795.2,1366.4,cs)
);
}
);
width = 912;
},
{
layerId = "2CB18861-F91E-4469-AD22-4F8C4E906F22";
shapes = (
{
closed = 1;
nodes = (
(267.2,1284.8,o),
(244.8,1251.2,o),
(238.4,1209.6,c),
(235.2,1204.8,l),
(227.2,1158.4,o),
(212.8,912,o),
(212.8,912,c),
(267.2,908.8,l),
(267.2,908.8,o),
(361.6,1156.8,o),
(369.6,1203.2,c),
(371.2,1206.4,l),
(377.6,1248,o),
(360,1284.8,o),
(312,1284.8,cs)
);
},
{
closed = 1;
nodes = (
(534.4,1284.8,o),
(512,1251.2,o),
(504,1209.6,c),
(502.4,1204.8,l),
(494.4,1158.4,o),
(478.4,912,o),
(478.4,912,c),
(534.4,908.8,l),
(534.4,908.8,o),
(628.8,1156.8,o),
(635.2,1203.2,c),
(636.8,1206.4,l),
(644.8,1248,o),
(627.2,1284.8,o),
(579.2,1284.8,cs)
);
}
);
width = 592;
}
);
rightKerningGroup = d;
unicode = 34;
},
{
glyphname = quotesingle;
layers = (
{
layerId = "C4E47923-0598-4673-A08C-5FB6011F6DED";
shapes = (
{
closed = 1;
nodes = (
(336,1366.4,o),
(256,1316.8,o),
(243.2,1244.8,c),
(243.2,1238.4,l),
(227.2,1153.6,o),
(217.6,700.8,o),
(217.6,700.8,c),
(358.4,688,l),
(358.4,688,o),
(550.4,1123.2,o),
(566.4,1208,c),
(568,1214.4,l),
(580.8,1286.4,o),
(502.4,1366.4,o),
(404.8,1366.4,cs)
);
}
);
width = 522;
},
{
layerId = "2CB18861-F91E-4469-AD22-4F8C4E906F22";
shapes = (
{
closed = 1;
nodes = (
(267.2,1284.8,o),
(244.8,1251.2,o),
(238.4,1209.6,c),
(235.2,1204.8,l),
(227.2,1158.4,o),
(212.8,912,o),
(212.8,912,c),
(267.2,908.8,l),
(267.2,908.8,o),
(361.6,1156.8,o),
(369.6,1203.2,c),
(371.2,1206.4,l),
(377.6,1248,o),
(360,1284.8,o),
(312,1284.8,cs)
);
}
);
width = 326;
}
);
leftKerningGroup = quotesingle;
rightKerningGroup = quotesingle;
unicode = 39;
},
{
glyphname = cent;
layers = (
{
anchors = (
{
name = bottom;
position = "{304, 0}";
},
{
name = top;
position = "{448, 821}";
}
);
layerId = "C4E47923-0598-4673-A08C-5FB6011F6DED";
shapes = (
{
closed = 1;
nodes = (
(227.2,-206.4,l),
(444.8,-206.4,l),
(659.2,1017.6,l),
(441.6,1017.6,l)
);
},
{
alignment = -1;
ref = c;
}
);
width = 751;
},
{
anchors = (
{
name = bottom;
position = "{316, 0}";
},
{
name = top;
position = "{460, 821}";
}
);
layerId = "2CB18861-F91E-4469-AD22-4F8C4E906F22";
shapes = (
{
closed = 1;
nodes = (
(283.2,-206.4,l),
(336,-206.4,l),
(550.4,1017.6,l),
(497.6,1017.6,l)
);
},
{
alignment = -1;
ref = c;
}
);
width = 776;
},
{
layerId = "C9292ED3-9131-4287-9506-A2A8B1867EC4";
name = "BoldItalicItalic.Bold [500]";
shapes = (
{
closed = 1;
nodes = (
(417.6,790.4,l),
(588.8,790.4,l),
(628.8,1017.6,l),
(457.6,1017.6,l)
);
},
{
closed = 1;
nodes = (
(243.2,-206.4,l),
(414.4,-206.4,l),
(454.4,20.8,l),
(283.2,20.8,l)
);
}
);
width = 794;
},
{
layerId = "B4467F56-AD27-4A48-AFC6-DAF6FF881C35";
name = "LightItalicItalic.Light [500]";
shapes = (
{
closed = 1;
nodes = (
(449.6,790.4,l),
(524.8,790.4,l),
(564.8,1017.6,l),
(489.6,1017.6,l)
);
},
{
closed = 1;
nodes = (
(275.2,-206.4,l),
(350.4,-206.4,l),
(390.4,20.8,l),
(315.2,20.8,l)
);
}
);
width = 773;
}
);
leftKerningGroup = c;
rightKerningGroup = c;
unicode = 162;
},
{
glyphname = dollar;
layers = (
{
anchors = (
{
name = bottom;
position = "{502, 0}";
},
{
name = top;
position = "{734, 1320}";
}
);
layerId = "C4E47923-0598-4673-A08C-5FB6011F6DED";
shapes = (
{
closed = 1;
nodes = (
(368,-206.4,l),
(585.6,-206.4,l),
(891.2,1534.4,l),
(673.6,1534.4,l)
);
},
{
alignment = -1;
pos = (40,0);
ref = S;
}
);
width = 1127;
},
{
anchors = (
{
name = bottom;
position = "{375, 0}";
},
{
name = top;
position = "{607, 1320}";
}
);
layerId = "2CB18861-F91E-4469-AD22-4F8C4E906F22";
shapes = (
{
closed = 1;
nodes = (
(340.8,-206.4,l),
(393.6,-206.4,l),
(699.2,1534.4,l),
(646.4,1534.4,l)
);
},
{
alignment = -1;
pos = (12,0);
ref = S;
}
);
width = 898;
},
{
layerId = "C9292ED3-9131-4287-9506-A2A8B1867EC4";
name = "BoldItalicItalic.Bold [500]";
shapes = (
{
closed = 1;
nodes = (
(601.6,1307.2,l),
(772.8,1307.2,l),
(812.8,1534.4,l),
(641.6,1534.4,l)
);
},
{
closed = 1;
nodes = (
(336,-206.4,l),
(507.2,-206.4,l),
(547.2,20.8,l),
(376,20.8,l)
);
}
);
width = 1069;
},
{
layerId = "B4467F56-AD27-4A48-AFC6-DAF6FF881C35";
name = "LightItalicItalic.Light [500]";
shapes = (
{
closed = 1;
nodes = (
(616,1307.2,l),
(691.2,1307.2,l),
(731.2,1534.4,l),
(656,1534.4,l)
);
},
{
closed = 1;
nodes = (
(350.4,-206.4,l),
(425.6,-206.4,l),
(465.6,20.8,l),
(390.4,20.8,l)
);
}
);
width = 928;
}
);
leftKerningGroup = S;
rightKerningGroup = d;
unicode = 36;
},
{
glyphname = euro;
layers = (
{
anchors = (
{
name = bottom;
position = "{623, 0}";
},
{
name = top;
position = "{855, 1320}";
}
);
layerId = "C4E47923-0598-4673-A08C-5FB6011F6DED";
shapes = (
{
closed = 1;
nodes = (
(60.8,689.6,l),
(1056,689.6,l),
(1091.2,894.4,l),
(96,894.4,l)
);
},
{
closed = 1;
nodes = (
(16,422.4,l),
(1011.2,422.4,l),
(1046.4,627.2,l),
(51.2,627.2,l)
);
},
{
alignment = -1;
pos = (110,0);
ref = C;
}
);
width = 1305;
},
{
anchors = (
{
name = bottom;
position = "{523, 0}";
},
{
name = top;
position = "{755, 1320}";
}
);
layerId = "2CB18861-F91E-4469-AD22-4F8C4E906F22";
shapes = (
{
closed = 1;
nodes = (
(72,745.6,l),
(1067.2,745.6,l),
(1083.2,838.4,l),
(88,838.4,l)
);
},
{
closed = 1;
nodes = (
(24,478.4,l),
(1019.2,478.4,l),
(1035.2,571.2,l),
(40,571.2,l)
);
},
{
alignment = -1;
pos = (110,0);
ref = C;
}
);
width = 1217;
}
);
rightKerningGroup = d;
unicode = 8364;
},
{
glyphname = sterling;
layers = (
{
layerId = "C4E47923-0598-4673-A08C-5FB6011F6DED";
shapes = (
{
closed = 1;
nodes = (
(96,449.6,l),
(355.2,462.4,l),
(361.6,432,o),
(358.4,435.2,o),
(355.2,417.6,cs),
(347.2,368,o),
(339.2,358.4,o),
(296,320,c),
(148.8,307.2,o),
(33.6,94.4,o),
(17.6,14.4,c),
(238.4,-12.8,l),
(238.4,-12.8,o),
(259.2,35.2,o),
(312,35.2,cs),
(452.8,35.2,o),
(604.8,-24,o),
(816,-24,cs),
(1083.2,-24,o),
(1155.2,235.2,o),
(1155.2,235.2,c),
(900.8,366.4,l),
(900.8,366.4,o),
(843.2,268.8,o),
(769.6,268.8,cs),
(664,268.8,o),
(571.2,284.8,o),
(603.2,273.6,c),
(614.4,273.6,o),
(664,310.4,o),
(675.2,382.4,cs),
(680,411.2,o),
(686.4,409.6,o),
(688,436.8,c),
(841.6,449.6,l),
(876.8,635.2,l),
(651.2,622.4,l),
(628.8,715.2,o),
(617.6,779.2,o),
(636.8,897.6,cs),
(654.4,1000,o),
(704,1036.8,o),
(768,1036.8,cs),
(873.6,1036.8,o),
(835.2,867.2,o),
(835.2,867.2,c),
(1184,1020.8,l),
(1180.8,1020.8,o),
(1192,1345.6,o),
(774.4,1345.6,cs),
(491.2,1345.6,o),
(304,1180.8,o),
(262.4,952,cs),
(240,819.2,o),
(254.4,729.6,o),
(297.6,648,c),
(126.4,635.2,l)
);
}
);
width = 1246;
},
{
layerId = "2CB18861-F91E-4469-AD22-4F8C4E906F22";
shapes = (
{
closed = 1;
nodes = (
(104,496,l),
(310.4,497.6,l),
(316.8,476.8,o),
(324.8,377.6,o),
(320,352,cs),
(312,310.4,o),
(283.2,235.2,o),
(265.6,227.2,c),
(144,225.6,o),
(35.2,107.2,o),
(17.6,1.6,c),
(102.4,-1.6,l),
(102.4,-1.6,o),
(161.6,153.6,o),
(288,153.6,cs),
(436.8,153.6,o),
(513.6,-24,o),
(715.2,-24,cs),
(907.2,-24,o),
(1000,174.4,o),
(1000,174.4,c),
(939.2,208,l),
(939.2,208,o),
(894.4,48,o),
(723.2,48,cs),
(606.4,48,o),
(499.2,192,o),
(360,222.4,c),
(363.2,222.4,o),
(390.4,280,o),
(401.6,332.8,cs),
(412.8,388.8,o),
(404.8,481.6,o),
(400,494.4,c),
(795.2,496,l),
(811.2,579.2,l),
(377.6,577.6,l),
(363.2,619.2,o),
(316.8,792,o),
(339.2,920,cs),
(376,1123.2,o),
(515.2,1268.8,o),
(734.4,1268.8,cs),
(985.6,1268.8,o),
(1016,1067.2,o),
(1016,1067.2,c),
(1099.2,1096,l),
(1099.2,1096,o),
(1036.8,1345.6,o),
(739.2,1345.6,cs),
(444.8,1345.6,o),
(299.2,1140.8,o),
(260.8,929.6,cs),
(238.4,806.4,o),
(281.6,622.4,o),
(292.8,582.4,c),
(118.4,579.2,l)
);
}
);
width = 1103;
}
);
rightKerningGroup = d;
unicode = 163;
},
{
glyphname = yen;
layers = (
{
anchors = (
{
name = bottom;
position = "{600, 0}";
},
{
name = top;
position = "{832, 1320}";
},
{
name = topleft;
position = "{231, 1320}";
}
);
layerId = "C4E47923-0598-4673-A08C-5FB6011F6DED";
shapes = (
{
closed = 1;
nodes = (
(164.8,475.2,l),
(1200,475.2,l),
(1246.4,742.4,l),
(211.2,742.4,l)
);
},
{
closed = 1;
nodes = (
(104,129.6,l),
(1139.2,129.6,l),
(1185.6,396.8,l),
(148.8,396.8,l)
);
},
{
alignment = -1;
pos = (39,0);
ref = Y;
}
);
width = 1286;
},
{
anchors = (
{
name = bottom;
position = "{424, 0}";
},
{
name = top;
position = "{656, 1320}";
},
{
name = topleft;
position = "{234, 1320}";
}
);
layerId = "2CB18861-F91E-4469-AD22-4F8C4E906F22";
shapes = (
{
closed = 1;
nodes = (
(91.2,502.4,l),
(932.8,502.4,l),
(945.6,577.6,l),
(104,577.6,l)
);
},
{
closed = 1;
nodes = (
(54.4,294.4,l),
(896,294.4,l),
(908.8,369.6,l),
(67.2,369.6,l)
);
},
{
alignment = -1;
pos = (42,0);
ref = Y;
}
);
width = 903;
}
);
rightKerningGroup = d;
unicode = 165;
},
{
glyphname = plus;
layers = (
{
layerId = "C4E47923-0598-4673-A08C-5FB6011F6DED";
shapes = (
{
closed = 1;
nodes = (
(931.2,502.4,l),
(988.8,824,l),
(739.2,824,l),
(784,1073.6,l),
(460.8,1073.6,l),
(417.6,824,l),
(168,824,l),
(110.4,502.4,l),
(360,502.4,l),
(315.2,252.8,l),
(638.4,252.8,l),
(681.6,502.4,l)
);
}
);
width = 1013;
},
{
layerId = "2CB18861-F91E-4469-AD22-4F8C4E906F22";
shapes = (
{
closed = 1;
nodes = (
(958.4,638.4,l),
(966.4,688,l),
(580.8,688,l),
(649.6,1073.6,l),
(601.6,1073.6,l),
(532.8,688,l),
(145.6,688,l),
(137.6,638.4,l),
(524.8,638.4,l),
(456,252.8,l),
(504,252.8,l),
(572.8,638.4,l)
);
}
);
width = 1014;
}
);
rightKerningGroup = d;
unicode = 43;
},
{
glyphname = minus;
layers = (
{
layerId = "C4E47923-0598-4673-A08C-5FB6011F6DED";
shapes = (
{
closed = 1;
nodes = (
(971.2,504,l),
(1027.2,825.6,l),
(168,825.6,l),
(112,504,l)
);
}
);
width = 1051;
},
{
layerId = "2CB18861-F91E-4469-AD22-4F8C4E906F22";
shapes = (
{
closed = 1;
nodes = (
(859.2,635.2,l),
(868.8,683.2,l),
(145.6,683.2,l),
(136,635.2,l)
);
}
);
width = 916;
}
);
rightKerningGroup = d;
unicode = 8722;
},
{
glyphname = multiply;
layers = (
{
layerId = "C4E47923-0598-4673-A08C-5FB6011F6DED";
shapes = (
{
closed = 1;
nodes = (
(1056,878.4,l),
(860.8,1104,l),
(606.4,891.2,l),
(432,1104,l),
(172.8,880,l),
(348.8,664,l),
(99.2,451.2,l),
(294.4,222.4,l),
(548.8,436.8,l),
(726.4,222.4,l),
(982.4,448,l),
(803.2,662.4,l)
);
}
);
width = 1064;
},
{
layerId = "2CB18861-F91E-4469-AD22-4F8C4E906F22";
shapes = (
{
closed = 1;
nodes = (
(897.6,982.4,l),
(865.6,1017.6,l),
(491.2,697.6,l),
(228.8,1017.6,l),
(188.8,980.8,l),
(452.8,664,l),
(76.8,344,l),
(108.8,308.8,l),
(483.2,628.8,l),
(745.6,308.8,l),
(785.6,344,l),
(521.6,664,l)
);
}
);
width = 886;
}
);
rightKerningGroup = d;
unicode = 215;
},
{
glyphname = divide;
layers = (
{
layerId = "C4E47923-0598-4673-A08C-5FB6011F6DED";
shapes = (
{
closed = 1;
nodes = (
(564.8,1196.8,o),
(500.8,1144,o),
(488,1070.4,cs),
(470.4,976,o),
(534.4,892.8,o),
(630.4,892.8,cs),
(704,892.8,o),
(769.6,945.6,o),
(780.8,1016,c),
(800,1113.6,o),
(732.8,1196.8,o),
(636.8,1196.8,cs)
);
},
{
closed = 1;
nodes = (
(971.2,504,l),
(1027.2,825.6,l),
(168,825.6,l),
(112,504,l)
);
},
{
closed = 1;
nodes = (
(430.4,433.6,o),
(366.4,380.8,o),
(353.6,307.2,cs),
(336,212.8,o),
(400,129.6,o),
(496,129.6,cs),
(569.6,129.6,o),
(636.8,182.4,o),
(646.4,252.8,c),
(665.6,350.4,o),
(598.4,433.6,o),
(502.4,433.6,cs)
);
}
);
width = 1051;
},
{
layerId = "2CB18861-F91E-4469-AD22-4F8C4E906F22";
shapes = (
{
closed = 1;
nodes = (
(526.4,1038.4,o),
(489.6,1008,o),
(483.2,969.6,cs),
(475.2,926.4,o),
(504,892.8,o),
(545.6,892.8,cs),
(585.6,892.8,o),
(619.2,923.2,o),
(627.2,958.4,c),
(635.2,1004.8,o),
(608,1038.4,o),
(561.6,1038.4,cs)
);
},
{
closed = 1;
nodes = (
(859.2,635.2,l),
(868.8,683.2,l),
(145.6,683.2,l),
(136,635.2,l)
);
},
{
closed = 1;
nodes = (
(419.2,433.6,o),
(382.4,403.2,o),
(377.6,364.8,c),
(369.6,321.6,o),
(398.4,288,o),
(438.4,288,cs),
(478.4,288,o),
(513.6,318.4,o),
(521.6,353.6,c),
(529.6,400,o),
(500.8,433.6,o),
(456,433.6,cs)
);
}
);
width = 916;
}
);
rightKerningGroup = d;
unicode = 247;
},
{
glyphname = equal;
layers = (
{
layerId = "C4E47923-0598-4673-A08C-5FB6011F6DED";
shapes = (
{
closed = 1;
nodes = (
(1008,708.8,l),
(1065.6,1030.4,l),
(206.4,1030.4,l),
(148.8,708.8,l)
);
},
{
closed = 1;
nodes = (
(936,294.4,l),
(993.6,616,l),
(134.4,616,l),
(76.8,294.4,l)
);
}
);
width = 1053;
},
{
layerId = "2CB18861-F91E-4469-AD22-4F8C4E906F22";
shapes = (
{
closed = 1;
nodes = (
(888,795.2,l),
(896,844.8,l),
(172.8,844.8,l),
(164.8,795.2,l)
);
},
{
closed = 1;
nodes = (
(832,486.4,l),
(840,534.4,l),
(118.4,534.4,l),
(110.4,486.4,l)
);
}
);
width = 916;
}
);
rightKerningGroup = d;
unicode = 61;
},
{
glyphname = notequal;
layers = (
{
layerId = "C4E47923-0598-4673-A08C-5FB6011F6DED";
shapes = (
{
closed = 1;
nodes = (
(1073.6,1230.4,l),
(828.8,1230.4,l),
(-25.6,89.6,l),
(220.8,89.6,l)
);
},
{
alignment = -1;
pos = (-50,0);
ref = equal;
}
);
width = 964;
},
{
layerId = "2CB18861-F91E-4469-AD22-4F8C4E906F22";
shapes = (
{
closed = 1;
nodes = (
(918.4,1148.8,l),
(844.8,1148.8,l),
(75.2,171.2,l),
(148.8,171.2,l)
);
},
{
alignment = -1;
pos = (32,0);
ref = equal;
}
);
width = 1046;
}
);
rightKerningGroup = d;
unicode = 8800;
},
{
glyphname = greater;
layers = (
{
layerId = "C4E47923-0598-4673-A08C-5FB6011F6DED";
shapes = (
{
closed = 1;
nodes = (
(1024,555.2,l),
(1059.2,776,l),
(214.4,1123.2,l),
(166.4,830.4,l),
(624,664,l),
(104,500.8,l),
(57.6,208,l)
);
}
);
width = 1093;
},
{
layerId = "2CB18861-F91E-4469-AD22-4F8C4E906F22";
shapes = (
{
closed = 1;
nodes = (
(920,611.2,l),
(939.2,720,l),
(209.6,1096,l),
(200,1035.2,l),
(921.6,664,l),
(68.8,296,l),
(57.6,235.2,l)
);
}
);
width = 982;
}
);
rightKerningGroup = d;
unicode = 62;
},
{
glyphname = plusminus;
layers = (
{
layerId = "C4E47923-0598-4673-A08C-5FB6011F6DED";
shapes = (
{
closed = 1;
nodes = (
(940.8,542.4,l),
(996.8,864,l),
(747.2,864,l),
(785.6,1073.6,l),
(464,1073.6,l),
(425.6,864,l),
(176,864,l),
(120,542.4,l),
(369.6,542.4,l),
(332.8,332.8,l),
(654.4,332.8,l),
(691.2,542.4,l)
);
},
{
closed = 1;
nodes = (
(838.4,-38.4,l),
(894.4,283.2,l),
(73.6,283.2,l),
(17.6,-38.4,l)
);
}
);
width = 1013;
},
{
layerId = "2CB18861-F91E-4469-AD22-4F8C4E906F22";
shapes = (
{
closed = 1;
nodes = (
(964.8,678.4,l),
(972.8,728,l),
(587.2,728,l),
(649.6,1073.6,l),
(600,1073.6,l),
(537.6,728,l),
(152,728,l),
(144,678.4,l),
(529.6,678.4,l),
(468.8,332.8,l),
(518.4,332.8,l),
(579.2,678.4,l)
);
},
{
closed = 1;
nodes = (
(862.4,97.6,l),
(870.4,147.2,l),
(49.6,147.2,l),
(41.6,97.6,l)
);
}
);
width = 1013;
}
);
rightKerningGroup = d;
unicode = 177;
},
{
glyphname = asciitilde;
layers = (
{
layerId = "C4E47923-0598-4673-A08C-5FB6011F6DED";
shapes = (
{
closed = 1;
nodes = (
(931.2,860.8,l),
(936,860.8,o),
(860.8,755.2,o),
(771.2,755.2,cs),
(713.6,755.2,o),
(622.4,860.8,o),
(449.6,860.8,cs),
(283.2,860.8,o),
(132.8,617.6,o),
(132.8,617.6,c),
(286.4,470.4,l),
(281.6,470.4,o),
(356.8,574.4,o),
(446.4,574.4,cs),
(504,574.4,o),
(601.6,468.8,o),
(769.6,468.8,cs),
(936,468.8,o),
(1086.4,712,o),
(1086.4,712,c)
);
}
);
width = 1130;
},
{
layerId = "2CB18861-F91E-4469-AD22-4F8C4E906F22";
shapes = (
{
closed = 1;
nodes = (
(1011.2,764.8,l),
(1011.2,764.8,o),
(912,590.4,o),
(776,590.4,cs),
(656,590.4,o),
(595.2,804.8,o),
(430.4,804.8,cs),
(256,804.8,o),
(132.8,622.4,o),
(132.8,622.4,c),
(195.2,563.2,l),
(196.8,563.2,o),
(296,739.2,o),
(430.4,739.2,cs),
(553.6,739.2,o),
(612.8,524.8,o),
(771.2,524.8,cs),
(947.2,524.8,o),
(1070.4,707.2,o),
(1070.4,707.2,c)
);
}
);
width = 1113;
}
);
rightKerningGroup = d;
unicode = 126;
},
{
glyphname = asciicircum;
layers = (
{
layerId = "C4E47923-0598-4673-A08C-5FB6011F6DED";
shapes = (
{
closed = 1;
nodes = (
(648,1344,l),
(470.4,1344,l),
(67.2,968,l),
(401.6,968,l),
(528,1080,l),
(603.2,968,l),
(921.6,968,l)
);
}
);
width = 794;
},
{
layerId = "2CB18861-F91E-4469-AD22-4F8C4E906F22";
shapes = (
{
closed = 1;
nodes = (
(596.8,1344,l),
(528,1344,l),
(148.8,968,l),
(232,968,l),
(555.2,1299.2,l),
(761.6,968,l),
(840,968,l)
);
}
);
width = 794;
}
);
rightKerningGroup = d;
unicode = 94;
},
{
glyphname = percent;
layers = (
{
layerId = "C4E47923-0598-4673-A08C-5FB6011F6DED";
shapes = (
{
closed = 1;
nodes = (
(222,0,l),
(470,0,l),
(1551,1320,l),
(1303,1320,l)
);
},
{
closed = 1;
nodes = (
(112,862,o),
(253,680,o),
(472,680,cs),
(734,680,o),
(887,817,o),
(925,1029,cs),
(956,1200,o),
(814,1378,o),
(595,1378,cs),
(333,1378,o),
(178,1244,o),
(141,1029,cs)
);
},
{
closed = 1;
nodes = (
(417,1116,o),
(473,1168,o),
(558,1168,cs),
(630,1168,o),
(672,1101,o),
(659,1029,cs),
(643,941,o),
(594,893,o),
(509,893,cs),
(438,893,o),
(391,956,o),
(403,1029,cs)
);
},
{
closed = 1;
nodes = (
(814,125,o),
(955,-58,o),
(1174,-58,cs),
(1436,-58,o),
(1589,80,o),
(1627,291,cs),
(1658,462,o),
(1516,640,o),
(1297,640,cs),
(1035,640,o),
(880,506,o),
(843,291,cs)
);
},
{
closed = 1;
nodes = (
(1120,379,o),
(1175,430,o),
(1260,430,cs),
(1332,430,o),
(1374,364,o),
(1361,291,cs),
(1346,204,o),
(1296,155,o),
(1211,155,cs),
(1140,155,o),
(1093,219,o),
(1105,291,cs)
);
}
);
width = 1680;
},
{
layerId = "2CB18861-F91E-4469-AD22-4F8C4E906F22";
shapes = (
{
closed = 1;
nodes = (
(181,0,l),
(246,0,l),
(1247,1320,l),
(1182,1320,l)
);
},
{
closed = 1;
nodes = (
(192,912,o),
(281,806,o),
(408,806,cs),
(553,806,o),
(652,886,o),
(677,1029,cs),
(698,1151,o),
(597,1253,o),
(487,1253,cs),
(342,1253,o),
(239,1175,o),
(213,1029,cs)
);
},
{
closed = 1;
nodes = (
(293,1144,o),
(363,1198,o),
(475,1198,cs),
(561,1198,o),
(635,1126,o),
(618,1029,cs),
(597,910,o),
(525,861,o),
(416,861,cs),
(320,861,o),
(254,930,o),
(272,1029,cs)
);
},
{
closed = 1;
nodes = (
(731,173,o),
(820,67,o),
(946,67,cs),
(1092,67,o),
(1191,147,o),
(1216,290,cs),
(1237,411,o),
(1136,514,o),
(1025,514,cs),
(880,514,o),
(778,436,o),
(752,290,cs)
);
},
{
closed = 1;
nodes = (
(830,405,o),
(903,459,o),
(1014,459,cs),
(1100,459,o),
(1174,387,o),
(1157,290,cs),
(1136,171,o),
(1064,122,o),
(955,122,cs),
(859,122,o),
(794,189,o),
(811,290,cs)
);
}
);
width = 1379;
}
);
rightKerningGroup = d;
unicode = 37;
},
{
glyphname = perthousand;
layers = (
{
layerId = "C4E47923-0598-4673-A08C-5FB6011F6DED";
shapes = (
{
closed = 1;
nodes = (
(-32,259,l),
(54,99,l),
(1858,1098,l),
(1771,1258,l)
);
},
{
closed = 1;
nodes = (
(112,862,o),
(253,680,o),
(472,680,cs),
(734,680,o),
(887,817,o),
(925,1029,cs),
(956,1200,o),
(814,1378,o),
(595,1378,cs),
(333,1378,o),
(178,1244,o),
(141,1029,cs)
);
},
{
closed = 1;
nodes = (
(417,1116,o),
(473,1168,o),
(558,1168,cs),
(630,1168,o),
(672,1101,o),
(659,1029,cs),
(643,941,o),
(594,893,o),
(509,893,cs),
(438,893,o),
(391,956,o),
(403,1029,cs)
);
},
{
closed = 1;
nodes = (
(765,125,o),
(907,-58,o),
(1126,-58,cs),
(1388,-58,o),
(1542,80,o),
(1579,291,cs),
(1609,462,o),
(1468,640,o),
(1249,640,cs),
(987,640,o),
(834,506,o),
(795,291,cs)
);
},
{
closed = 1;
nodes = (
(1073,379,o),
(1127,430,o),
(1212,430,cs),
(1284,430,o),
(1325,364,o),
(1313,291,cs),
(1299,204,o),
(1248,155,o),
(1163,155,cs),
(1092,155,o),
(1044,219,o),
(1057,291,cs)
);
},
{
closed = 1;
nodes = (
(1597,125,o),
(1739,-58,o),
(1958,-58,cs),
(2220,-58,o),
(2374,80,o),
(2411,291,cs),
(2441,462,o),
(2300,640,o),
(2081,640,cs),
(1819,640,o),
(1666,506,o),
(1627,291,cs)
);
},
{
closed = 1;
nodes = (
(1905,379,o),
(1959,430,o),
(2044,430,cs),
(2116,430,o),
(2157,364,o),
(2145,291,cs),
(2131,204,o),
(2080,155,o),
(1995,155,cs),
(1924,155,o),
(1876,219,o),
(1889,291,cs)
);
}
);
width = 2464;
},
{
layerId = "2CB18861-F91E-4469-AD22-4F8C4E906F22";
shapes = (
{
closed = 1;
nodes = (
(-4,296,l),
(19,256,l),
(1631,1208,l),
(1607,1248,l)
);
},
{
closed = 1;
nodes = (
(305,912,o),
(393,806,o),
(520,806,cs),
(665,806,o),
(763,886,o),
(789,1029,cs),
(811,1151,o),
(709,1253,o),
(599,1253,cs),
(454,1253,o),
(350,1175,o),
(325,1029,cs)
);
},
{
closed = 1;
nodes = (
(403,1144,o),
(475,1198,o),
(587,1198,cs),
(673,1198,o),
(748,1126,o),
(730,1029,cs),
(708,910,o),
(637,861,o),
(528,861,cs),
(432,861,o),
(368,930,o),
(384,1029,cs)
);
},
{
closed = 1;
nodes = (
(413,173,o),
(501,67,o),
(628,67,cs),
(774,67,o),
(872,147,o),
(897,290,cs),
(918,411,o),
(818,514,o),
(707,514,cs),
(562,514,o),
(458,435,o),
(433,290,cs)
);
},
{
closed = 1;
nodes = (
(513,405,o),
(584,459,o),
(695,459,cs),
(782,459,o),
(855,387,o),
(838,290,cs),
(817,171,o),
(745,122,o),
(636,122,cs),
(540,122,o),
(475,189,o),
(493,290,cs)
);
},
{
closed = 1;
nodes = (
(999,173,o),
(1087,67,o),
(1214,67,cs),
(1359,67,o),
(1458,147,o),
(1483,290,cs),
(1504,411,o),
(1403,514,o),
(1293,514,cs),
(1148,514,o),
(1044,435,o),
(1019,290,cs)
);
},
{
closed = 1;
nodes = (
(1098,405,o),
(1170,459,o),
(1281,459,cs),
(1367,459,o),
(1441,387,o),
(1424,290,cs),
(1403,171,o),
(1331,122,o),
(1222,122,cs),
(1126,122,o),
(1060,189,o),
(1078,290,cs)
);
}
);
width = 1586;
}
);
rightKerningGroup = d;
unicode = 8240;
},
{
glyphname = at;
layers = (
{
layerId = "C4E47923-0598-4673-A08C-5FB6011F6DED";
shapes = (
{
closed = 1;
nodes = (
(1108.8,608,o),
(1121.6,670.4,o),
(1121.6,670.4,c),
(1171.2,952,l),
(934.4,952,l),
(916.8,897.6,l),
(860.8,953.6,o),
(800,969.6,o),
(736,969.6,cs),
(585.6,969.6,o),
(449.6,840,o),
(420.8,672,cs),
(387.2,480,o),
(497.6,323.2,o),
(668.8,323.2,cs),
(705.6,323.2,o),
(766.4,313.6,o),
(838.4,376,c),
(868.8,419.2,l),
(929.6,380.8,o),
(1025.6,360,o),
(1116.8,360,cs),
(1268.8,360,o),
(1446.4,435.2,o),
(1488,680,cs),
(1556.8,1070.4,o),
(1286.4,1344,o),
(899.2,1344,cs),
(521.6,1344,o),
(156.8,1081.6,o),
(86.4,688,cs),
(11.2,268.8,o),
(302.4,-24,o),
(705.6,-24,cs),
(1084.8,-24,o),
(1254.4,241.6,o),
(1216,196.8,c),
(1006.4,342.4,l),
(1014.4,350.4,o),
(897.6,265.6,o),
(708.8,265.6,cs),
(480,265.6,o),
(336,424,o),
(374.4,633.6,cs),
(416,868.8,o),
(643.2,1080,o),
(900.8,1080,cs),
(1140.8,1080,o),
(1304,947.2,o),
(1267.2,734.4,c),
(1248,641.6,o),
(1241.6,608,o),
(1160,608,cs)
);
},
{
closed = 1;
nodes = (
(744,676.8,o),
(798.4,724.8,o),
(849.6,724.8,cs),
(873.6,724.8,o),
(891.2,704,o),
(884.8,670.4,cs),
(875.2,616,o),
(825.6,576,o),
(774.4,576,cs),
(745.6,576,o),
(728,588.8,o),
(732.8,620.8,c)
);
}
);
width = 1476;
},
{
layerId = "2CB18861-F91E-4469-AD22-4F8C4E906F22";
shapes = (
{
closed = 1;
nodes = (
(1036.8,403.2,o),
(1065.6,520,o),
(1065.6,520,c),
(1140.8,952,l),
(1068.8,952,l),
(1051.2,851.2,l),
(1049.6,878.4,o),
(971.2,969.6,o),
(808,969.6,cs),
(596.8,969.6,o),
(444.8,827.2,o),
(412.8,649.6,cs),
(382.4,467.2,o),
(486.4,323.2,o),
(702.4,323.2,cs),
(883.2,323.2,o),
(985.6,448,o),
(992,468.8,c),
(998.4,481.6,l),
(998.4,420.8,o),
(1033.6,347.2,o),
(1140.8,347.2,cs),
(1276.8,347.2,o),
(1448,475.2,o),
(1488,702.4,cs),
(1555.2,1083.2,o),
(1291.2,1344,o),
(915.2,1344,cs),
(526.4,1344,o),
(152,1068.8,o),
(81.6,665.6,cs),
(9.6,256,o),
(291.2,-24,o),
(683.2,-24,cs),
(907.2,-24,o),
(1107.2,75.2,o),
(1203.2,188.8,c),
(1147.2,233.6,l),
(1132.8,216,o),
(990.4,46.4,o),
(686.4,46.4,cs),
(356.8,46.4,o),
(92.8,300.8,o),
(155.2,656,cs),
(219.2,1019.2,o),
(571.2,1273.6,o),
(912,1273.6,cs),
(1256,1273.6,o),
(1459.2,1028.8,o),
(1403.2,712,cs),
(1366.4,491.2,o),
(1211.2,403.2,o),
(1140.8,403.2,cs)
);
},
{
closed = 1;
nodes = (
(500.8,800,o),
(640,916.8,o),
(800,916.8,cs),
(947.2,916.8,o),
(1044.8,811.2,o),
(1019.2,662.4,cs),
(993.6,508.8,o),
(852.8,379.2,o),
(694.4,379.2,cs),
(531.2,379.2,o),
(446.4,497.6,o),
(472,644.8,cs)
);
}
);
width = 1471;
}
);
rightKerningGroup = d;
unicode = 64;
},
{
glyphname = ampersand;
layers = (
{
guides = (
{
position = "{0, -29}";
},
{
angle = 80.025;
position = "{1032, 214}";
}
);
layerId = "C4E47923-0598-4673-A08C-5FB6011F6DED";
shapes = (
{
closed = 1;
nodes = (
(1300.8,312,l),
(1227.2,294.4,o),
(1172.8,283.2,o),
(1145.6,304,cs),
(1126.4,318.4,o),
(1121.6,344,o),
(1129.6,393.6,cs),
(1153.6,528,l),
(1310.4,520,l),
(1358.4,792,l),
(822.4,796.8,ls),
(632,800,o),
(608,883.2,o),
(625.6,971.2,cs),
(638.4,1033.6,o),
(712,1049.6,o),
(793.6,1049.6,cs),
(892.8,1049.6,o),
(1006.4,1017.6,o),
(1078.4,964.8,c),
(1134.4,1265.6,l),
(1081.6,1320,o),
(950.4,1340.8,o),
(785.6,1340.8,cs),
(513.6,1340.8,o),
(313.6,1259.2,o),
(272,1020.8,cs),
(256,929.6,o),
(276.8,728,o),
(464,700.8,c),
(344,700.8,o),
(112,601.6,o),
(80,422.4,cs),
(27.2,124.8,o),
(180.8,-14.4,o),
(406.4,-14.4,cs),
(672,-14.4,o),
(758.4,110.4,o),
(788.8,185.6,c),
(768,16,o),
(913.6,-8,o),
(1011.2,-8,cs),
(1115.2,-8,o),
(1192,8,o),
(1260.8,22.4,c)
);
},
{
closed = 1;
nodes = (
(472,476.8,o),
(500.8,534.4,o),
(667.2,532.8,cs),
(814.4,529.6,l),
(795.2,310.4,o),
(624,304,o),
(577.6,289.6,c),
(524.8,280,o),
(449.6,299.2,o),
(459.2,382.4,cs)
);
}
);
width = 1333;
},
{
guides = (
{
position = "{0, -29}";
},
{
angle = 80.025;
position = "{1032, 214}";
}
);
layerId = "2CB18861-F91E-4469-AD22-4F8C4E906F22";
shapes = (
{
closed = 1;
nodes = (
(1000,84.8,l),
(907.2,43.2,o),
(849.6,32,o),
(820.8,59.2,c),
(795.2,80,o),
(790.4,128,o),
(804.8,204.8,cs),
(892.8,694.4,l),
(1072,696,l),
(1081.6,761.6,l),
(561.6,761.6,ls),
(369.6,761.6,o),
(296,891.2,o),
(320,1036.8,cs),
(342.4,1188.8,o),
(497.6,1270.4,o),
(662.4,1270.4,cs),
(737.6,1270.4,o),
(817.6,1256,o),
(884.8,1220.8,c),
(896,1292.8,l),
(836.8,1321.6,o),
(731.2,1339.2,o),
(660.8,1339.2,cs),
(448,1339.2,o),
(273.6,1220.8,o),
(241.6,1020.8,cs),
(216,848,o),
(316.8,740.8,o),
(417.6,720,c),
(268.8,702.4,o),
(99.2,585.6,o),
(57.6,337.6,cs),
(28.8,164.8,o),
(118.4,-27.2,o),
(372.8,-27.2,cs),
(560,-27.2,o),
(702.4,105.6,o),
(750.4,232,c),
(716.8,84.8,o),
(724.8,-19.2,o),
(864,-19.2,cs),
(907.2,-19.2,o),
(960,-4.8,o),
(987.2,20.8,c)
);
},
{
closed = 1;
nodes = (
(158.4,516.8,o),
(331.2,692.8,o),
(616,692.8,cs),
(825.6,694.4,l),
(779.2,385.6,o),
(680,36.8,o),
(361.6,38.4,cs),
(196.8,40,o),
(99.2,164.8,o),
(128,342.4,cs)
);
}
);
width = 1067;
}
);
rightKerningGroup = d;
unicode = 38;
},
{
glyphname = paragraph;
layers = (
{
layerId = "C4E47923-0598-4673-A08C-5FB6011F6DED";
shapes = (
{
closed = 1;
nodes = (
(1326.4,1320,l),
(622.4,1320,ls),
(371.2,1320,o),
(169.6,1153.6,o),
(126.4,910.4,cs),
(78.4,643.2,o),
(238.4,427.2,o),
(488,427.2,cs),
(667.2,427.2,l),
(592,0,l),
(800,0,l),
(995.2,1115.2,l),
(1081.6,1115.2,l),
(884.8,0,l),
(1092.8,0,l)
);
}
);
width = 1262;
},
{
layerId = "2CB18861-F91E-4469-AD22-4F8C4E906F22";
shapes = (
{
closed = 1;
nodes = (
(872,1320,l),
(572.8,1320,ls),
(296,1320,o),
(164.8,1140.8,o),
(139.2,996.8,cs),
(113.6,848,o),
(182.4,646.4,o),
(460.8,646.4,cs),
(512,646.4,l),
(398.4,0,l),
(454.4,0,l),
(675.2,1251.2,l),
(803.2,1251.2,l),
(582.4,0,l),
(638.4,0,l)
);
}
);
width = 809;
}
);
rightKerningGroup = d;
unicode = 182;
},
{
glyphname = section;
layers = (
{
layerId = "C4E47923-0598-4673-A08C-5FB6011F6DED";
shapes = (
{
closed = 1;
nodes = (
(664,-440,o),
(812.8,-257.6,o),
(835.2,-132.8,cs),
(862.4,9.6,o),
(820.8,128,o),
(737.6,182.4,c),
(912,256,o),
(1008,348.8,o),
(1027.2,449.6,cs),
(1060.8,644.8,o),
(969.6,785.6,o),
(780.8,870.4,c),
(665.6,940.8,o),
(603.2,971.2,o),
(604.8,977.6,cs),
(609.6,1001.6,o),
(619.2,1030.4,o),
(654.4,1030.4,cs),
(724.8,1030.4,o),
(678.4,964.8,o),
(678.4,964.8,c),
(1038.4,1022.4,l),
(1038.4,1022.4,o),
(1040,1344,o),
(664,1344,cs),
(395.2,1344,o),
(227.2,1198.4,o),
(195.2,1020.8,cs),
(171.2,888,o),
(225.6,780.8,o),
(297.6,715.2,c),
(161.6,673.6,o),
(30.4,580.8,o),
(4.8,446.4,cs),
(-28.8,246.4,o),
(57.6,110.4,o),
(246.4,25.6,c),
(363.2,-44.8,o),
(424,-80,o),
(424,-88,c),
(420.8,-108.8,o),
(377.6,-126.4,o),
(342.4,-126.4,cs),
(273.6,-126.4,o),
(278.4,-38.4,o),
(278.4,-38.4,c),
(-75.2,-94.4,l),
(-72,-94.4,o),
(-72,-440,o),
(336,-440,cs)
);
},
{
closed = 1;
nodes = (
(460.8,572.8,o),
(513.6,542.4,o),
(526.4,548.8,c),
(606.4,516.8,o),
(689.6,476.8,o),
(680,433.6,c),
(670.4,366.4,o),
(601.6,342.4,o),
(512,316.8,c),
(497.6,332.8,o),
(492.8,336,o),
(475.2,331.2,c),
(417.6,369.6,o),
(340.8,411.2,o),
(350.4,459.2,c),
(360,518.4,o),
(424,556.8,o),
(465.6,569.6,c)
);
}
);
width = 1028;
},
{
layerId = "2CB18861-F91E-4469-AD22-4F8C4E906F22";
shapes = (
{
closed = 1;
nodes = (
(640,-440,o),
(731.2,-244.8,o),
(755.2,-110.4,cs),
(777.6,22.4,o),
(740.8,92.8,o),
(651.2,152,c),
(747.2,193.6,o),
(857.6,286.4,o),
(881.6,422.4,cs),
(915.2,606.4,o),
(755.2,651.2,o),
(576,740.8,cs),
(449.6,806.4,o),
(291.2,875.2,o),
(323.2,1052.8,cs),
(348.8,1201.6,o),
(504,1304,o),
(688,1304,cs),
(905.6,1304,o),
(923.2,1107.2,o),
(923.2,1107.2,c),
(972.8,1115.2,l),
(972.8,1115.2,o),
(964.8,1344,o),
(680,1344,cs),
(433.6,1344,o),
(302.4,1179.2,o),
(280,1054.4,cs),
(252.8,896,o),
(345.6,832,o),
(427.2,764.8,c),
(347.2,745.6,o),
(177.6,665.6,o),
(150.4,502.4,cs),
(121.6,332.8,o),
(289.6,275.2,o),
(470.4,184,cs),
(595.2,120,o),
(740.8,70.4,o),
(708.8,-110.4,cs),
(683.2,-254.4,o),
(606.4,-400,o),
(312,-400,cs),
(57.6,-400,o),
(54.4,-193.6,o),
(54.4,-193.6,c),
(-9.6,-203.2,l),
(-9.6,-203.2,o),
(0,-440,o),
(313.6,-440,cs)
);
},
{
closed = 1;
nodes = (
(510.4,739.2,o),
(569.6,700.8,o),
(571.2,702.4,c),
(707.2,636.8,o),
(849.6,577.6,o),
(825.6,446.4,cs),
(801.6,305.6,o),
(651.2,200,o),
(592,182.4,c),
(537.6,203.2,o),
(481.6,232,o),
(475.2,235.2,cs),
(345.6,308.8,o),
(185.6,364.8,o),
(208,489.6,cs),
(235.2,641.6,o),
(393.6,712,o),
(505.6,745.6,c)
);
}
);
width = 1021;
}
);
rightKerningGroup = d;
unicode = 167;
},
{
glyphname = copyright;
layers = (
{
layerId = "C4E47923-0598-4673-A08C-5FB6011F6DED";
shapes = (
{
closed = 1;
nodes = (
(-8,305.6,o),
(196.8,-35.2,o),
(646.4,-35.2,cs),
(1080,-35.2,o),
(1403.2,264,o),
(1468.8,662.4,cs),
(1531.2,1075.2,o),
(1280,1376,o),
(876.8,1376,cs),
(486.4,1376,o),
(139.2,1089.6,o),
(60.8,678.4,cs)
);
},
{
closed = 1;
nodes = (
(342.4,932.8,o),
(558.4,1150.4,o),
(833.6,1150.4,cs),
(1105.6,1150.4,o),
(1278.4,929.6,o),
(1238.4,660.8,cs),
(1198.4,400,o),
(976,203.2,o),
(688,203.2,cs),
(355.2,203.2,o),
(262.4,449.6,o),
(297.6,672,cs)
);
},
{
closed = 1;
nodes = (
(958.4,548.8,l),
(905.6,534.4,o),
(859.2,526.4,o),
(822.4,526.4,cs),
(747.2,526.4,o),
(662.4,576,o),
(683.2,656,c),
(697.6,731.2,o),
(752,800,o),
(867.2,800,cs),
(894.4,800,o),
(932.8,798.4,o),
(998.4,763.2,c),
(1060.8,1001.6,l),
(1004.8,1022.4,o),
(964.8,1027.2,o),
(892.8,1027.2,cs),
(659.2,1027.2,o),
(457.6,886.4,o),
(427.2,670.4,cs),
(396.8,454.4,o),
(512,315.2,o),
(745.6,307.2,cs),
(827.2,305.6,o),
(867.2,320,o),
(913.6,332.8,c)
);
}
);
width = 1444;
},
{
layerId = "2CB18861-F91E-4469-AD22-4F8C4E906F22";
shapes = (
{
closed = 1;
nodes = (
(11.2,278.4,o),
(195.2,-48,o),
(630.4,-48,cs),
(1049.6,-48,o),
(1369.6,240,o),
(1444.8,624,cs),
(1523.2,1024,o),
(1281.6,1313.6,o),
(892.8,1313.6,cs),
(516.8,1313.6,o),
(166.4,1038.4,o),
(84.8,640,cs)
);
},
{
closed = 1;
nodes = (
(230.4,963.2,o),
(513.6,1243.2,o),
(868.8,1243.2,cs),
(1214.4,1243.2,o),
(1432,980.8,o),
(1368,636.8,cs),
(1307.2,307.2,o),
(1011.2,25.6,o),
(641.6,25.6,cs),
(219.2,25.6,o),
(115.2,352,o),
(168,633.6,cs)
);
},
{
closed = 1;
nodes = (
(931.2,428.8,l),
(878.4,398.4,o),
(801.6,376,o),
(736,376,cs),
(576,376,o),
(532.8,491.2,o),
(563.2,643.2,cs),
(600,822.4,o),
(721.6,881.6,o),
(840,881.6,cs),
(921.6,881.6,o),
(998.4,844.8,o),
(1006.4,835.2,c),
(1022.4,910.4,l),
(1009.6,926.4,o),
(942.4,953.6,o),
(857.6,953.6,cs),
(659.2,953.6,o),
(529.6,824,o),
(488,640,cs),
(446.4,456,o),
(528,304,o),
(723.2,305.6,cs),
(787.2,305.6,o),
(856,320,o),
(905.6,348.8,c)
);
}
);
width = 1439;
}
);
rightKerningGroup = d;
unicode = 169;
},
{
glyphname = registered;
layers = (
{
layerId = "C4E47923-0598-4673-A08C-5FB6011F6DED";
shapes = (
{
closed = 1;
nodes = (
(102.4,801.6,o),
(246.4,627.2,o),
(452.8,627.2,cs),
(641.6,627.2,o),
(816,774.4,o),
(846.4,956.8,cs),
(883.2,1168,o),
(745.6,1344,o),
(532.8,1344,cs),
(350.4,1344,o),
(174.4,1196.8,o),
(140.8,1011.2,cs)
);
},
{
closed = 1;
nodes = (
(353.6,820.8,l),
(436.8,820.8,l),
(459.2,952,l),
(448,952,l),
(536,820.8,l),
(641.6,820.8,l),
(545.6,955.2,l),
(592,969.6,o),
(614.4,988.8,o),
(620.8,1027.2,cs),
(633.6,1104,o),
(584,1152,o),
(521.6,1152,cs),
(411.2,1152,l)
);
},
{
closed = 1;
nodes = (
(484.8,1086.4,l),
(489.6,1086.4,ls),
(508.8,1086.4,o),
(540.8,1076.8,o),
(534.4,1046.4,c),
(526.4,995.2,o),
(470.4,1011.2,o),
(451.2,1011.2,c),
(470.4,1011.2,l)
);
},
{
closed = 1;
nodes = (
(259.2,1144,o),
(388.8,1265.6,o),
(526.4,1265.6,cs),
(705.6,1265.6,o),
(787.2,1120,o),
(760,960,cs),
(736,817.6,o),
(601.6,715.2,o),
(467.2,715.2,cs),
(305.6,715.2,o),
(204.8,844.8,o),
(233.6,1004.8,cs)
);
}
);
width = 790;
},
{
layerId = "2CB18861-F91E-4469-AD22-4F8C4E906F22";
shapes = (
{
closed = 1;
nodes = (
(113.6,788.8,o),
(248,627.2,o),
(444.8,627.2,cs),
(643.2,627.2,o),
(827.2,779.2,o),
(862.4,979.2,cs),
(899.2,1180.8,o),
(764.8,1344,o),
(563.2,1344,cs),
(369.6,1344,o),
(182.4,1184,o),
(148.8,988.8,cs)
);
},
{
closed = 1;
nodes = (
(372.8,820.8,l),
(424,820.8,l),
(446.4,952,l),
(494.4,952,l),
(540.8,820.8,l),
(601.6,820.8,l),
(547.2,956.8,l),
(590.4,971.2,o),
(612.8,1001.6,o),
(622.4,1049.6,c),
(633.6,1116.8,o),
(592,1152,o),
(529.6,1152,cs),
(430.4,1152,l)
);
},
{
closed = 1;
nodes = (
(473.6,1108.8,l),
(523.2,1108.8,ls),
(569.6,1108.8,o),
(579.2,1100.8,o),
(572.8,1062.4,cs),
(564.8,1019.2,o),
(550.4,988.8,o),
(502.4,988.8,cs),
(454.4,988.8,l)
);
},
{
closed = 1;
nodes = (
(224,1160,o),
(387.2,1300.8,o),
(561.6,1300.8,cs),
(729.6,1300.8,o),
(852.8,1150.4,o),
(820.8,984,cs),
(787.2,816,o),
(628.8,668.8,o),
(444.8,668.8,cs),
(283.2,668.8,o),
(164.8,814.4,o),
(193.6,980.8,cs)
);
}
);
width = 790;
}
);
rightKerningGroup = d;
unicode = 174;
},
{
glyphname = trademark;
layers = (
{
layerId = "C4E47923-0598-4673-A08C-5FB6011F6DED";
shapes = (
{
closed = 1;
nodes = (
(169.6,1220.8,l),
(256,1220.8,l),
(200,907.2,l),
(318.4,907.2,l),
(376,1220.8,l),
(462.4,1220.8,l),
(480,1320,l),
(187.2,1320,l)
);
},
{
closed = 1;
nodes = (
(963.2,1320,l),
(846.4,1320,l),
(700.8,1113.6,l),
(638.4,1320,l),
(523.2,1320,l),
(416,907.2,l),
(532.8,907.2,l),
(587.2,1113.6,l),
(590.4,1113.6,l),
(651.2,910.4,l),
(702.4,910.4,l),
(836.8,1113.6,l),
(836.8,1113.6,l),
(816,907.2,l),
(931.2,907.2,l)
);
}
);
width = 872;
},
{
layerId = "2CB18861-F91E-4469-AD22-4F8C4E906F22";
shapes = (
{
closed = 1;
nodes = (
(180.8,1276.8,l),
(305.6,1276.8,l),
(240,907.2,l),
(283.2,907.2,l),
(348.8,1276.8,l),
(473.6,1276.8,l),
(481.6,1320,l),
(188.8,1320,l)
);
},
{
closed = 1;
nodes = (
(785.6,1320,l),
(723.2,1320,l),
(609.6,1004.8,l),
(604.8,1320,l),
(545.6,1320,l),
(435.2,907.2,l),
(476.8,907.2,l),
(564.8,1249.6,l),
(566.4,1249.6,l),
(560,910.4,l),
(628.8,910.4,l),
(739.2,1249.6,l),
(740.8,1249.6,l),
(707.2,907.2,l),
(750.4,907.2,l)
);
}
);
width = 691;
}
);
rightKerningGroup = d;
unicode = 8482;
},
{
glyphname = degree;
layers = (
{
layerId = "C4E47923-0598-4673-A08C-5FB6011F6DED";
shapes = (
{
closed = 1;
nodes = (
(240,1145.6,o),
(320,1054.4,o),
(456,1054.4,cs),
(564.8,1054.4,o),
(651.2,1115.2,o),
(665.6,1208,c),
(686.4,1326.4,o),
(600,1416,o),
(472,1416,cs),
(366.4,1416,o),
(275.2,1356.8,o),
(260.8,1262.4,c)
);
},
{
closed = 1;
nodes = (
(404.8,1260.8,o),
(451.2,1304,o),
(499.2,1304,cs),
(524.8,1304,o),
(536,1289.6,o),
(532.8,1262.4,c),
(523.2,1212.8,o),
(476.8,1164.8,o),
(427.2,1164.8,cs),
(401.6,1164.8,o),
(392,1182.4,o),
(395.2,1208,c)
);
}
);
width = 636;
},
{
layerId = "2CB18861-F91E-4469-AD22-4F8C4E906F22";
shapes = (
{
closed = 1;
nodes = (
(244.8,1161.6,o),
(292.8,1110.4,o),
(371.2,1110.4,cs),
(444.8,1110.4,o),
(505.6,1160,o),
(520,1230.4,c),
(532.8,1310.4,o),
(481.6,1360,o),
(406.4,1360,cs),
(336,1360,o),
(273.6,1312,o),
(259.2,1240,cs)
);
},
{
closed = 1;
nodes = (
(312,1280,o),
(358.4,1316.8,o),
(408,1316.8,cs),
(452.8,1316.8,o),
(484.8,1281.6,o),
(475.2,1240,c),
(467.2,1190.4,o),
(419.2,1152,o),
(369.6,1152,cs),
(321.6,1152,o),
(296,1187.2,o),
(304,1230.4,cs)
);
}
);
width = 487;
}
);
rightKerningGroup = d;
unicode = 176;
},
{
glyphname = bar;
layers = (
{
layerId = "C4E47923-0598-4673-A08C-5FB6011F6DED";
shapes = (
{
closed = 1;
nodes = (
(588.8,1376,l),
(267.2,1376,l),
(24,0,l),
(345.6,0,l)
);
}
);
width = 515;
},
{
layerId = "2CB18861-F91E-4469-AD22-4F8C4E906F22";
shapes = (
{
closed = 1;
nodes = (
(315.2,1376,l),
(267.2,1376,l),
(24,0,l),
(72,0,l)
);
}
);
width = 242;
}
);
leftKerningGroup = i;
rightKerningGroup = d;
unicode = 124;
},
{
glyphname = brokenbar;
layers = (
{
layerId = "C4E47923-0598-4673-A08C-5FB6011F6DED";
shapes = (
{
closed = 1;
nodes = (
(588.8,1376,l),
(267.2,1376,l),
(172.8,844.8,l),
(494.4,844.8,l)
);
},
{
closed = 1;
nodes = (
(440,531.2,l),
(118.4,531.2,l),
(24,0,l),
(345.6,0,l)
);
}
);
width = 515;
},
{
layerId = "2CB18861-F91E-4469-AD22-4F8C4E906F22";
shapes = (
{
closed = 1;
nodes = (
(315.2,1376,l),
(267.2,1376,l),
(172.8,844.8,l),
(220.8,844.8,l)
);
},
{
closed = 1;
nodes = (
(166.4,531.2,l),
(118.4,531.2,l),
(24,0,l),
(72,0,l)
);
}
);
width = 242;
}
);
rightKerningGroup = d;
unicode = 166;
},
{
glyphname = commaaccent;
layers = (
{
anchors = (
{
name = _bottom;
position = "{143, 0}";
},
{
name = bottom;
position = "{34, -619}";
}
);
layerId = "C4E47923-0598-4673-A08C-5FB6011F6DED";
shapes = (
{
closed = 1;
nodes = (
(-36.8,-60.8,o),
(-116.8,-147.2,o),
(-112,-252.8,cs),
(-107.2,-337.6,o),
(-38.4,-428.8,o),
(73.6,-411.2,c),
(62.4,-484.8,o),
(-78.4,-548.8,o),
(-78.4,-548.8,c),
(6.4,-619.2,l),
(120,-556.8,o),
(273.6,-446.4,o),
(264,-246.4,cs),
(259.2,-144,o),
(169.6,-60.8,o),
(68.8,-60.8,cs)
);
}
);
width = 386;
},
{
anchors = (
{
name = _bottom;
position = "{22, 0}";
},
{
name = bottom;
position = "{-48, -392}";
}
);
layerId = "2CB18861-F91E-4469-AD22-4F8C4E906F22";
shapes = (
{
closed = 1;
nodes = (
(-36.8,-60.8,o),
(-86.4,-102.4,o),
(-100.8,-155.2,cs),
(-115.2,-206.4,o),
(-60.8,-252.8,o),
(1.6,-240,c),
(-49.6,-304,o),
(-140.8,-355.2,o),
(-140.8,-355.2,c),
(-94.4,-392,l),
(-27.2,-356.8,o),
(76.8,-276.8,o),
(99.2,-174.4,cs),
(113.6,-110.4,o),
(76.8,-60.8,o),
(12.8,-60.8,cs)
);
}
);
width = 203;
}
);
},
{
glyphname = acute;
layers = (
{
layerId = "C4E47923-0598-4673-A08C-5FB6011F6DED";
shapes = (
{
closed = 1;
nodes = (
(686.4,1144,l),
(500.8,1369.6,l),
(179.2,1067.2,l),
(294.4,915.2,l)
);
}
);
width = 906;
},
{
layerId = "2CB18861-F91E-4469-AD22-4F8C4E906F22";
shapes = (
{
closed = 1;
nodes = (
(691.2,1201.6,l),
(648,1276.8,l),
(313.6,1051.2,l),
(340.8,1000,l)
);
}
);
width = 906;
}
);
rightKerningGroup = d;
unicode = 180;
},
{
glyphname = breve;
layers = (
{
layerId = "C4E47923-0598-4673-A08C-5FB6011F6DED";
shapes = (
{
closed = 1;
nodes = (
(614.4,1384,l),
(612.8,1312,o),
(569.6,1203.2,o),
(456,1203.2,cs),
(339.2,1203.2,o),
(289.6,1310.4,o),
(278.4,1384,c),
(22.4,1320,l),
(54.4,1110.4,o),
(233.6,988.8,o),
(460.8,988.8,cs),
(691.2,988.8,o),
(854.4,1113.6,o),
(870.4,1323.2,c)
);
}
);
width = 963;
},
{
layerId = "2CB18861-F91E-4469-AD22-4F8C4E906F22";
shapes = (
{
closed = 1;
nodes = (
(737.6,1241.6,l),
(716.8,1177.6,o),
(649.6,1116.8,o),
(547.2,1116.8,cs),
(454.4,1116.8,o),
(401.6,1179.2,o),
(401.6,1243.2,c),
(339.2,1228.8,l),
(328,1156.8,o),
(384,1044.8,o),
(532.8,1044.8,cs),
(680,1044.8,o),
(774.4,1148.8,o),
(801.6,1222.4,c)
);
}
);
width = 963;
}
);
rightKerningGroup = d;
unicode = 728;
},
{
glyphname = caron;
layers = (
{
layerId = "C4E47923-0598-4673-A08C-5FB6011F6DED";
shapes = (
{
closed = 1;
nodes = (
(444.8,1168,l),
(209.6,1360,l),
(65.6,1185.6,l),
(398.4,892.8,l),
(846.4,1176,l),
(723.2,1360,l)
);
}
);
width = 931;
},
{
layerId = "2CB18861-F91E-4469-AD22-4F8C4E906F22";
shapes = (
{
closed = 1;
nodes = (
(526.4,1128,l),
(324.8,1273.6,l),
(284.8,1230.4,l),
(516.8,1027.2,l),
(796.8,1225.6,l),
(769.6,1273.6,l)
);
}
);
width = 931;
}
);
rightKerningGroup = d;
unicode = 711;
},
{
glyphname = cedilla;
layers = (
{
guides = (
{
position = "{0, -438}";
}
);
layerId = "C4E47923-0598-4673-A08C-5FB6011F6DED";
shapes = (
{
closed = 1;
nodes = (
(248,-176,l),
(286.4,-203.2,l),
(296,-196.8,o),
(313.6,-193.6,o),
(336,-193.6,cs),
(379.2,-193.6,o),
(436.8,-206.4,o),
(427.2,-240,c),
(419.2,-278.4,o),
(385.6,-292.8,o),
(347.2,-292.8,cs),
(304,-292.8,o),
(249.6,-273.6,o),
(214.4,-240,c),
(118.4,-369.6,l),
(182.4,-408,o),
(267.2,-430.4,o),
(348.8,-430.4,cs),
(480,-430.4,o),
(604.8,-376,o),
(625.6,-257.6,c),
(644.8,-168,o),
(571.2,-80,o),
(404.8,-88,c),
(456,22.4,l),
(355.2,60.8,l)
);
}
);
width = 960;
},
{
guides = (
{
position = "{0, -438}";
}
);
layerId = "2CB18861-F91E-4469-AD22-4F8C4E906F22";
shapes = (
{
closed = 1;
nodes = (
(252.8,-177.6,l),
(291.2,-201.6,l),
(320,-192,o),
(347.2,-185.6,o),
(369.6,-185.6,cs),
(435.2,-185.6,o),
(475.2,-222.4,o),
(465.6,-275.2,cs),
(454.4,-336,o),
(396.8,-364.8,o),
(328,-364.8,cs),
(276.8,-364.8,o),
(219.2,-347.2,o),
(176,-313.6,c),
(129.6,-368,l),
(177.6,-419.2,o),
(251.2,-443.2,o),
(321.6,-443.2,cs),
(435.2,-443.2,o),
(548.8,-380.8,o),
(563.2,-265.6,c),
(571.2,-184,o),
(524.8,-115.2,o),
(369.6,-132.8,c),
(432,11.2,l),
(379.2,38.4,l)
);
}
);
width = 960;
}
);
unicode = 184;
},
{
glyphname = circumflex;
layers = (
{
guides = (
{
position = "{0, 1786}";
}
);
layerId = "C4E47923-0598-4673-A08C-5FB6011F6DED";
shapes = (
{
closed = 1;
nodes = (
(448,1089.6,l),
(684.8,897.6,l),
(827.2,1072,l),
(489.6,1364.8,l),
(48,1081.6,l),
(171.2,897.6,l)
);
}
);
width = 931;
},
{
guides = (
{
position = "{0, 1786}";
}
);
layerId = "2CB18861-F91E-4469-AD22-4F8C4E906F22";
shapes = (
{
closed = 1;
nodes = (
(534.4,1193.6,l),
(731.2,1048,l),
(769.6,1091.2,l),
(550.4,1292.8,l),
(259.2,1094.4,l),
(286.4,1048,l)
);
}
);
width = 931;
}
);
rightKerningGroup = d;
unicode = 710;
},
{
glyphname = dieresis;
layers = (
{
guides = (
{
position = "{0, 1154}";
}
);
layerId = "C4E47923-0598-4673-A08C-5FB6011F6DED";
shapes = (
{
closed = 1;
nodes = (
(131.2,1272,o),
(52.8,1192,o),
(57.6,1092.8,cs),
(62.4,996.8,o),
(142.4,920,o),
(238.4,920,cs),
(337.6,920,o),
(414.4,1000,o),
(409.6,1099.2,cs),
(406.4,1195.2,o),
(326.4,1272,o),
(230.4,1272,cs)
);
},
{
closed = 1;
nodes = (
(510.4,1272,o),
(432,1192,o),
(436.8,1092.8,cs),
(441.6,996.8,o),
(521.6,920,o),
(617.6,920,cs),
(716.8,920,o),
(793.6,1000,o),
(788.8,1099.2,cs),
(785.6,1195.2,o),
(705.6,1272,o),
(609.6,1272,cs)
);
}
);
width = 898;
},
{
guides = (
{
position = "{0, 1154}";
}
);
layerId = "2CB18861-F91E-4469-AD22-4F8C4E906F22";
shapes = (
{
closed = 1;
nodes = (
(297.6,1249.6,o),
(260.8,1219.2,o),
(251.2,1185.6,c),
(240,1139.2,o),
(267.2,1100.8,o),
(313.6,1100.8,cs),
(348.8,1100.8,o),
(387.2,1131.2,o),
(396.8,1164.8,c),
(408,1211.2,o),
(377.6,1249.6,o),
(334.4,1249.6,cs)
);
},
{
closed = 1;
nodes = (
(676.8,1249.6,o),
(640,1219.2,o),
(630.4,1185.6,c),
(619.2,1139.2,o),
(646.4,1100.8,o),
(692.8,1100.8,cs),
(728,1100.8,o),
(766.4,1131.2,o),
(776,1164.8,c),
(787.2,1211.2,o),
(756.8,1249.6,o),
(713.6,1249.6,cs)
);
}
);
width = 898;
}
);
rightKerningGroup = d;
unicode = 168;
},
{
glyphname = dotaccent;
layers = (
{
layerId = "C4E47923-0598-4673-A08C-5FB6011F6DED";
shapes = (
{
closed = 1;
nodes = (
(131.2,1273.6,o),
(52.8,1195.2,o),
(57.6,1094.4,cs),
(62.4,998.4,o),
(142.4,923.2,o),
(238.4,923.2,cs),
(337.6,923.2,o),
(414.4,1001.6,o),
(409.6,1102.4,cs),
(406.4,1198.4,o),
(326.4,1273.6,o),
(230.4,1273.6,cs)
);
}
);
width = 518;
},
{
layerId = "2CB18861-F91E-4469-AD22-4F8C4E906F22";
shapes = (
{
closed = 1;
nodes = (
(297.6,1243.2,o),
(260.8,1214.4,o),
(251.2,1179.2,cs),
(240,1132.8,o),
(267.2,1094.4,o),
(313.6,1094.4,cs),
(348.8,1094.4,o),
(387.2,1124.8,o),
(396.8,1160,cs),
(408,1206.4,o),
(377.6,1243.2,o),
(334.4,1243.2,cs)
);
}
);
width = 518;
}
);
rightKerningGroup = d;
unicode = 729;
},
{
glyphname = grave;
layers = (
{
layerId = "C4E47923-0598-4673-A08C-5FB6011F6DED";
shapes = (
{
closed = 1;
nodes = (
(544,1067.2,l),
(185.6,1369.6,l),
(12.8,1144,l),
(438.4,915.2,l)
);
}
);
width = 621;
},
{
layerId = "2CB18861-F91E-4469-AD22-4F8C4E906F22";
shapes = (
{
closed = 1;
nodes = (
(552,1051.2,l),
(310.4,1276.8,l),
(232,1201.6,l),
(500.8,1000,l)
);
}
);
width = 621;
}
);
rightKerningGroup = d;
unicode = 96;
},
{
glyphname = hungarumlaut;
layers = (
{
layerId = "C4E47923-0598-4673-A08C-5FB6011F6DED";
shapes = (
{
closed = 1;
nodes = (
(547.2,1201.6,l),
(382.4,1401.6,l),
(123.2,1073.6,l),
(235.2,918.4,l)
);
},
{
closed = 1;
nodes = (
(881.6,1201.6,l),
(716.8,1401.6,l),
(457.6,1073.6,l),
(569.6,918.4,l)
);
}
);
width = 970;
},
{
layerId = "2CB18861-F91E-4469-AD22-4F8C4E906F22";
shapes = (
{
closed = 1;
nodes = (
(596.8,1228.8,l),
(552,1308.8,l),
(232,1033.6,l),
(262.4,992,l)
);
},
{
closed = 1;
nodes = (
(942.4,1228.8,l),
(897.6,1308.8,l),
(577.6,1033.6,l),
(608,992,l)
);
}
);
width = 970;
}
);
rightKerningGroup = d;
unicode = 733;
},
{
glyphname = macron;
layers = (
{
layerId = "C4E47923-0598-4673-A08C-5FB6011F6DED";
shapes = (
{
closed = 1;
nodes = (
(763.2,974.4,l),
(806.4,1216,l),
(107.2,1216,l),
(64,974.4,l)
);
}
);
width = 877;
},
{
layerId = "2CB18861-F91E-4469-AD22-4F8C4E906F22";
shapes = (
{
closed = 1;
nodes = (
(768,1116.8,l),
(782.4,1182.4,l),
(246.4,1182.4,l),
(233.6,1116.8,l)
);
}
);
width = 877;
}
);
rightKerningGroup = d;
unicode = 175;
},
{
glyphname = ogonek;
layers = (
{
layerId = "C4E47923-0598-4673-A08C-5FB6011F6DED";
shapes = (
{
closed = 1;
nodes = (
(414.4,-246.4,l),
(307.2,-281.6,o),
(268.8,-246.4,o),
(268.8,-193.6,cs),
(268.8,-116.8,o),
(360,9.6,o),
(480,0,c),
(444.8,62.4,l),
(140.8,3.2,o),
(17.6,-147.2,o),
(17.6,-270.4,cs),
(17.6,-416,o),
(185.6,-524.8,o),
(438.4,-388.8,c)
);
}
);
width = 645;
},
{
layerId = "2CB18861-F91E-4469-AD22-4F8C4E906F22";
shapes = (
{
closed = 1;
nodes = (
(515.2,-315.2,l),
(372.8,-372.8,o),
(304,-326.4,o),
(304,-251.2,cs),
(304,-168,o),
(384,-76.8,o),
(540.8,1.6,c),
(496,43.2,l),
(321.6,-20.8,o),
(225.6,-171.2,o),
(225.6,-281.6,cs),
(225.6,-392,o),
(326.4,-462.4,o),
(524.8,-377.6,c)
);
}
);
width = 645;
}
);
rightKerningGroup = d;
unicode = 731;
},
{
glyphname = ring;
layers = (
{
layerId = "C4E47923-0598-4673-A08C-5FB6011F6DED";
shapes = (
{
closed = 1;
nodes = (
(52.8,1017.6,o),
(176.,912.,o),
(348.8,912.,cs),
(523.2,912.,o),
(643.2,1020.8,o),
(635.2,1176.,cs),
(627.2,1326.4,o),
(494.4,1432.,o),
(329.6,1432.,cs),
(163.2,1432.,o),
(36.8,1323.2,o),
(44.8,1169.6,cs)
);
},
{
closed = 1;
nodes = (
(257.6,1217.6,o),
(294.4,1254.4,o),
(332.8,1254.4,cs),
(376.,1254.4,o),
(412.8,1214.4,o),
(417.6,1169.6,cs),
(422.4,1126.4,o),
(388.8,1088.,o),
(348.8,1088.,cs),
(300.8,1088.,o),
(265.6,1129.6,o),
(262.4,1176.,c)
);
}
);
width = 739;
},
{
layerId = "2CB18861-F91E-4469-AD22-4F8C4E906F22";
shapes = (
{
closed = 1;
nodes = (
(264.,1091.2,o),
(316.8,1027.2,o),
(420.8,1027.2,cs),
(510.4,1027.2,o),
(587.2,1083.2,o),
(608.,1163.2,c),
(628.8,1252.8,o),
(568.,1316.8,o),
(472.,1316.8,cs),
(384.,1316.8,o),
(302.4,1260.8,o),
(284.8,1182.4,cs)
);
},
{
closed = 1;
nodes = (
(366.4,1219.2,o),
(403.2,1262.4,o),
(464.,1262.4,cs),
(510.4,1262.4,o),
(547.2,1227.2,o),
(537.6,1182.4,cs),
(526.4,1124.8,o),
(486.4,1080.,o),
(422.4,1080.,cs),
(374.4,1080.,o),
(345.6,1116.8,o),
(355.2,1163.2,cs)
);
}
);
width = 739;
}
);
rightKerningGroup = d;
unicode = 730;
},
{
glyphname = tilde;
layers = (
{
layerId = "C4E47923-0598-4673-A08C-5FB6011F6DED";
shapes = (
{
closed = 1;
nodes = (
(411.2,1035.2,o),
(494.4,961.6,o),
(620.8,961.6,cs),
(764.8,961.6,o),
(833.6,1144,o),
(843.2,1281.6,c),
(656,1280,l),
(649.6,1251.2,o),
(630.4,1211.2,o),
(601.6,1209.6,cs),
(510.4,1206.4,o),
(419.2,1281.6,o),
(292.8,1281.6,cs),
(148.8,1281.6,o),
(80,1099.2,o),
(68.8,961.6,c),
(260.8,963.2,l),
(265.6,993.6,o),
(283.2,1032,o),
(313.6,1033.6,c)
);
}
);
width = 963;
},
{
layerId = "2CB18861-F91E-4469-AD22-4F8C4E906F22";
shapes = (
{
closed = 1;
nodes = (
(496,1116.8,o),
(540.8,1043.2,o),
(665.6,1043.2,cs),
(752,1043.2,o),
(833.6,1132.8,o),
(870.4,1200,c),
(776,1204.8,l),
(758.4,1166.4,o),
(715.2,1118.4,o),
(659.2,1123.2,cs),
(571.2,1131.2,o),
(548.8,1200,o),
(422.4,1200,cs),
(337.6,1200,o),
(257.6,1110.4,o),
(222.4,1043.2,c),
(307.2,1038.4,l),
(326.4,1075.2,o),
(374.4,1123.2,o),
(428.8,1120,cs)
);
}
);
width = 963;
}
);
rightKerningGroup = d;
unicode = 732;
},
{
glyphname = hookabovecomb;
layers = (
{
anchors = (
{
name = _top;
position = "{654, 821}";
},
{
name = top;
position = "{756, 1402}";
}
);
layerId = "C4E47923-0598-4673-A08C-5FB6011F6DED";
shapes = (
{
closed = 1;
nodes = (
(559,995,l),
(601,1006,o),
(706,1056,o),
(716,1114,cs),
(726,1171,o),
(693,1179,o),
(632,1179,cs),
(574,1179,o),
(514,1155,o),
(470,1134,c),
(503,1322,l),
(530,1338,o),
(589,1370,o),
(712,1370,cs),
(850,1370,o),
(978,1310,o),
(949,1144,cs),
(918,968,o),
(703,882,o),
(621,859,c)
);
}
);
width = 1120;
},
{
anchors = (
{
name = _top;
position = "{614, 821}";
},
{
name = top;
position = "{705, 1338}";
}
);
layerId = "2CB18861-F91E-4469-AD22-4F8C4E906F22";
shapes = (
{
closed = 1;
nodes = (
(580,930,l),
(638,944,o),
(777,1003,o),
(797,1120,cs),
(818,1237,o),
(731,1243,o),
(670,1243,cs),
(613,1243,o),
(524,1214,o),
(481,1194,c),
(492,1258,l),
(519,1274,o),
(593,1306,o),
(700,1306,cs),
(801,1306,o),
(890,1267,o),
(866,1128,cs),
(840,981,o),
(702,915,o),
(609,878,c)
);
}
);
width = 1120;
}
);
unicode = 777;
},
{
glyphname = hookabovecomb.case;
layers = (
{
anchors = (
{
name = _top;
position = "{526, 1320}";
},
{
name = top;
position = "{613, 1814}";
}
);
layerId = "C4E47923-0598-4673-A08C-5FB6011F6DED";
shapes = (
{
closed = 1;
nodes = (
(432,1499,l),
(474,1508,o),
(577,1550,o),
(586,1599,cs),
(594,1647,o),
(561,1654,o),
(500,1654,cs),
(442,1654,o),
(382,1633,o),
(339,1616,c),
(367,1773,l),
(393,1787,o),
(451,1814,o),
(574,1814,cs),
(712,1814,o),
(842,1763,o),
(817,1624,cs),
(791,1476,o),
(579,1404,o),
(498,1385,c)
);
}
);
width = 700;
},
{
anchors = (
{
name = _top;
position = "{486, 1320}";
},
{
name = top;
position = "{569, 1790}";
}
);
layerId = "2CB18861-F91E-4469-AD22-4F8C4E906F22";
shapes = (
{
closed = 1;
nodes = (
(456,1454,l),
(515,1468,o),
(651,1517,o),
(669,1614,cs),
(687,1721,o),
(601,1727,o),
(540,1727,cs),
(483,1727,o),
(393,1698,o),
(350,1678,c),
(361,1742,l),
(388,1758,o),
(463,1790,o),
(570,1790,cs),
(671,1790,o),
(760,1751,o),
(737,1622,cs),
(715,1495,o),
(579,1439,o),
(485,1402,c)
);
}
);
width = 700;
}
);
},
